<?xml version="1.0" encoding="UTF-8"?>
<svg version="1.1" xmlns="http://www.w3.org/2000/svg" width="512" height="512">
<path d="M0 0 C1.07865326 -0.00623996 2.15730652 -0.01247993 3.26864624 -0.01890898 C6.89546342 -0.03490751 10.52161492 -0.02220737 14.1484375 -0.00964355 C16.74349359 -0.0150616 19.3385466 -0.02218246 21.93359375 -0.03088379 C28.25779314 -0.04868452 34.5818028 -0.04482221 40.90600967 -0.03323323 C46.04510304 -0.02420524 51.18414317 -0.02297214 56.32324219 -0.02732849 C57.41973996 -0.02824789 57.41973996 -0.02824789 58.53838921 -0.02918586 C60.02332816 -0.03046474 61.5082671 -0.0317616 62.99320602 -0.03307623 C76.92247659 -0.04448657 90.85164192 -0.03136123 104.78089523 -0.00987476 C116.73679537 0.00799666 128.69254017 0.00489268 140.6484375 -0.0135498 C154.52733926 -0.03494854 168.40614875 -0.04338789 182.2850647 -0.03110075 C183.76458739 -0.02982653 185.24411009 -0.02856905 186.72363281 -0.02732849 C187.81560628 -0.02640284 187.81560628 -0.02640284 188.92963982 -0.02545848 C194.06346728 -0.02200258 199.19723628 -0.02783908 204.33105469 -0.0372467 C211.23887883 -0.04962671 218.14640414 -0.04083189 225.05419922 -0.01766968 C227.59390778 -0.01236719 230.13364098 -0.01392247 232.67333984 -0.02272034 C236.13152254 -0.03359813 239.58875349 -0.02000508 243.046875 0 C244.56612076 -0.01338433 244.56612076 -0.01338433 246.11605835 -0.02703905 C252.86867287 0.04909909 252.86867287 0.04909909 256.15380859 2.35120392 C258.01344426 5.27953964 257.9229189 7.31986232 257.7734375 10.75793457 C257.73734375 11.83559082 257.70125 12.91324707 257.6640625 14.02355957 C257.61765625 14.84340332 257.57125 15.66324707 257.5234375 16.50793457 C258.35069336 16.4869873 259.17794922 16.46604004 260.03027344 16.44445801 C263.7778712 16.36131838 267.52527499 16.30927926 271.2734375 16.25793457 C272.57539063 16.22441895 273.87734375 16.19090332 275.21875 16.15637207 C276.46914063 16.14348145 277.71953125 16.13059082 279.0078125 16.11730957 C280.15991211 16.0963623 281.31201172 16.07541504 282.49902344 16.05383301 C285.5234375 16.50793457 285.5234375 16.50793457 287.89746094 18.07922363 C290.1266543 21.4089557 290.04077759 23.76777857 290.0546875 27.75793457 C290.0585144 28.45306152 290.06234131 29.14818848 290.06628418 29.86437988 C290.0689993 31.33021498 290.06166585 32.79609885 290.04492188 34.26184082 C290.02350169 36.50122432 290.04473193 38.73740044 290.0703125 40.97668457 C290.06766915 42.40377496 290.062544 43.83086336 290.0546875 45.25793457 C290.05017578 46.55215332 290.04566406 47.84637207 290.04101562 49.17980957 C289.5234375 52.50793457 289.5234375 52.50793457 288.00683594 54.92297363 C284.51884263 57.14908969 281.27082275 57.11087965 277.2578125 57.11730957 C276.46441467 57.13384583 275.67101685 57.15038208 274.85357666 57.16741943 C272.32678481 57.21589073 269.80059469 57.23726744 267.2734375 57.25793457 C265.55726141 57.28609514 263.84111334 57.31602269 262.125 57.34777832 C257.92452872 57.42164893 253.7243913 57.47122844 249.5234375 57.50793457 C249.29269531 58.02065918 249.06195313 58.53338379 248.82421875 59.06164551 C242.21159639 73.65254049 234.81424519 86.15035379 224.5234375 98.50793457 C224.01039063 99.14473145 223.49734375 99.78152832 222.96875 100.43762207 C219.23388668 104.9800234 215.04202871 108.75726136 210.5234375 112.50793457 C209.77191406 113.14730957 209.02039063 113.78668457 208.24609375 114.44543457 C194.10984586 126.17600008 177.80053812 134.5405475 160.2734375 139.88293457 C159.49476318 140.12157227 158.71608887 140.36020996 157.91381836 140.6060791 C145.98955859 144.04211437 134.13804658 144.89040052 121.7734375 144.82043457 C121.06867279 144.81794708 120.36390808 144.81545959 119.63778687 144.81289673 C109.01079897 144.75494749 98.81458836 144.41000503 88.5234375 141.50793457 C87.32581787 141.17729004 87.32581787 141.17729004 86.10400391 140.83996582 C65.95791838 135.10237281 48.67949952 125.7746721 32.5234375 112.50793457 C31.56695312 111.72418457 30.61046875 110.94043457 29.625 110.13293457 C23.48928791 104.84678262 18.45116357 98.91667121 13.5234375 92.50793457 C12.86730469 91.69066895 12.21117187 90.87340332 11.53515625 90.03137207 C-5.05431573 68.55482117 -14.47242592 41.30181623 -14.9140625 14.25793457 C-14.93654053 13.35172363 -14.95901855 12.4455127 -14.98217773 11.51184082 C-14.97903564 10.65977051 -14.97589355 9.8077002 -14.97265625 8.92980957 C-14.97543579 7.79430664 -14.97543579 7.79430664 -14.97827148 6.63586426 C-13.18455593 -0.9719337 -6.33085329 -0.05577388 0 0 Z " fill="#5E5C60" transform="translate(134.4765625,199.4920654296875)"/>
<path d="M0 0 C3.72751196 2.13674736 7.05781623 4.53906542 10.4375 7.1875 C20.52621534 14.81283577 31.63053741 20.50267743 43 26 C41.68611749 37.82494263 38.6753137 49.40697398 36 61 C75.6 61 115.2 61 156 61 C153.69 50.77 151.38 40.54 149 30 C149 28.68 149 27.36 149 26 C149.5168335 25.75991211 150.03366699 25.51982422 150.56616211 25.27246094 C165.28621724 18.36182006 178.38279517 10.25907599 191 0 C191.99 0.495 191.99 0.495 193 1 C193.69061947 3.15546513 193.69061947 3.15546513 194.3212738 6.06178284 C194.68491028 7.70778473 194.68491028 7.70778473 195.05589294 9.38703918 C195.31516068 10.60195541 195.57442841 11.81687164 195.84155273 13.06860352 C196.25904282 14.97610886 196.25904282 14.97610886 196.68496704 16.92214966 C197.45102234 20.42347204 198.20644203 23.92701433 198.95993686 27.43105817 C199.75215237 31.10707211 200.55363522 34.78106468 201.35401917 38.45530701 C202.70040673 44.6424104 204.04045739 50.83085828 205.3762207 57.02026367 C207.08112998 64.92003269 208.79577849 72.817652 210.51383877 80.71457005 C211.99845502 87.5386348 213.47899784 94.36358234 214.9586575 101.18872333 C215.42988936 103.36182336 215.90156291 105.53482722 216.37325859 107.70782661 C218.04613024 115.41971938 219.70092658 123.13500794 221.32911301 130.8564949 C221.92659719 133.6560641 222.54792037 136.448873 223.17825317 139.24118042 C223.48577418 140.67351807 223.79243047 142.10604188 224.09790039 143.53881836 C224.35189102 144.67790146 224.60588165 145.81698456 224.86756897 146.99058533 C225.03477983 150.79035051 224.01314111 152.8167301 222 156 C218.65126458 157.67436771 214.87967138 157.20634047 211.1953125 157.23828125 C210.31978729 157.246353 209.44426208 157.25442474 208.54220581 157.26274109 C206.68782533 157.27658221 204.83341937 157.28730424 202.97900391 157.29516602 C200.14306434 157.31239029 197.30828714 157.35627643 194.47265625 157.40039062 C192.67188358 157.41051655 190.87110099 157.41903297 189.0703125 157.42578125 C188.22228058 157.44328934 187.37424866 157.46079742 186.5005188 157.47883606 C182.82413418 157.46529131 180.66762755 157.43961013 177.54882812 155.38598633 C175.62479363 152.42199057 174.91284224 149.85035834 174.1484375 146.3984375 C174.00346832 145.76193268 173.85849915 145.12542786 173.70913696 144.46963501 C173.25063313 142.44088962 172.81267996 140.40832778 172.375 138.375 C172.0742357 137.03225595 171.77216369 135.68980411 171.46875 134.34765625 C170.62018565 130.5704945 169.80554634 126.7865875 169 123 C168.67563965 121.49034668 168.67563965 121.49034668 168.34472656 119.95019531 C168.16135742 119.07202148 167.97798828 118.19384766 167.7890625 117.2890625 C167.6338916 116.5460791 167.4787207 115.8030957 167.31884766 115.03759766 C167 113 167 113 167 109 C120.14 109 73.28 109 25 109 C24.67 111.97 24.34 114.94 24 118 C23.13879128 122.69688158 22.12262191 127.3576377 21.09863281 132.02124023 C20.62416821 134.19130436 20.16335578 136.36398778 19.703125 138.53710938 C19.39926242 139.93507539 19.09460239 141.33286837 18.7890625 142.73046875 C18.51787598 143.98239014 18.24668945 145.23431152 17.96728516 146.52416992 C17.00123441 149.9955643 15.80643079 152.88639881 14 156 C10.65126458 157.67436771 6.87967138 157.20634047 3.1953125 157.23828125 C2.31978729 157.246353 1.44426208 157.25442474 0.54220581 157.26274109 C-1.31217467 157.27658221 -3.16658063 157.28730424 -5.02099609 157.29516602 C-7.85693566 157.31239029 -10.69171286 157.35627643 -13.52734375 157.40039062 C-15.32811642 157.41051655 -17.12889901 157.41903297 -18.9296875 157.42578125 C-19.77771942 157.44328934 -20.62575134 157.46079742 -21.4994812 157.47883606 C-27.35542311 157.45726126 -27.35542311 157.45726126 -30.50439453 155.22338867 C-32.89864532 151.66406089 -33.1172824 149.79201943 -32.4777832 145.47341919 C-32.17793711 144.02738868 -31.86816837 142.58339526 -31.55078125 141.14111328 C-31.29836418 139.94451143 -31.29836418 139.94451143 -31.04084778 138.72373581 C-30.4734036 136.04566703 -29.89305482 133.3705674 -29.3125 130.6953125 C-28.90349677 128.7805824 -28.4951467 126.86571268 -28.08740234 124.95071411 C-26.97237381 119.72864848 -25.84481578 114.50936719 -24.71331787 109.29084778 C-23.99690126 105.98570415 -23.2826241 102.68010437 -22.56884766 99.37438965 C-19.58463269 85.56142731 -16.57421336 71.75430122 -13.54931641 57.95019531 C-12.23301636 51.94269404 -10.92209206 45.93403203 -9.61230469 39.92510796 C-8.59230207 35.24938747 -7.56895563 30.57440372 -6.5446167 25.8996315 C-6.058585 23.67901719 -5.57375204 21.45814016 -5.09014893 19.2369957 C-4.42428517 16.18049044 -3.75378653 13.12503919 -3.08203125 10.06982422 C-2.88469894 9.15914688 -2.68736664 8.24846954 -2.48405457 7.31019592 C-1.11418796 1.11418796 -1.11418796 1.11418796 0 0 Z " fill="#5E5C60" transform="translate(160,315)"/>
<path d="M0 0 C8.12162538 5.74456429 11.87541989 12.40771963 14.5625 21.8125 C19.8425 22.1425 25.1225 22.4725 30.5625 22.8125 C30.51609375 21.41515625 30.4696875 20.0178125 30.421875 18.578125 C30.38435418 16.73960471 30.34795435 14.9010613 30.3125 13.0625 C30.27898437 12.14210937 30.24546875 11.22171875 30.2109375 10.2734375 C30.19160156 8.93925781 30.19160156 8.93925781 30.171875 7.578125 C30.1404541 6.35270996 30.1404541 6.35270996 30.10839844 5.10253906 C30.75692669 1.83200413 31.86073081 0.74295591 34.5625 -1.1875 C37.890625 -1.70507812 37.890625 -1.70507812 41.8125 -1.71875 C42.50762695 -1.7225769 43.20275391 -1.72640381 43.91894531 -1.73034668 C45.38478041 -1.7330618 46.85066428 -1.72572835 48.31640625 -1.70898438 C50.55578975 -1.68756419 52.79196587 -1.70879443 55.03125 -1.734375 C56.45834039 -1.73173165 57.88542879 -1.7266065 59.3125 -1.71875 C61.25382812 -1.71198242 61.25382812 -1.71198242 63.234375 -1.70507812 C66.5625 -1.1875 66.5625 -1.1875 68.99121094 0.54785156 C70.81123534 3.17099425 71.03412487 4.41913002 70.953125 7.578125 C70.94023437 8.46757812 70.92734375 9.35703125 70.9140625 10.2734375 C70.88054687 11.19382813 70.84703125 12.11421875 70.8125 13.0625 C70.79445313 13.99835938 70.77640625 14.93421875 70.7578125 15.8984375 C70.71076909 18.20356438 70.63902778 20.50816354 70.5625 22.8125 C75.8425 22.4825 81.1225 22.1525 86.5625 21.8125 C87.119375 20.141875 87.67625 18.47125 88.25 16.75 C91.09837792 8.974428 94.20750738 3.96966974 101.5625 -0.1875 C107.44268258 -2.14756086 114.16520843 -2.01565527 120 0 C128.12162538 5.74456429 131.87541989 12.40771963 134.5625 21.8125 C139.8425 22.1425 145.1225 22.4725 150.5625 22.8125 C150.51609375 21.41515625 150.4696875 20.0178125 150.421875 18.578125 C150.38435418 16.73960471 150.34795435 14.9010613 150.3125 13.0625 C150.27898437 12.14210937 150.24546875 11.22171875 150.2109375 10.2734375 C150.19804687 9.38398438 150.18515625 8.49453125 150.171875 7.578125 C150.15092773 6.76118164 150.12998047 5.94423828 150.10839844 5.10253906 C150.75692669 1.83200413 151.86073081 0.74295591 154.5625 -1.1875 C157.890625 -1.70507812 157.890625 -1.70507812 161.8125 -1.71875 C162.50762695 -1.7225769 163.20275391 -1.72640381 163.91894531 -1.73034668 C165.38478041 -1.7330618 166.85066428 -1.72572835 168.31640625 -1.70898438 C170.55578975 -1.68756419 172.79196587 -1.70879443 175.03125 -1.734375 C176.45834039 -1.73173165 177.88542879 -1.7266065 179.3125 -1.71875 C181.25382812 -1.71198242 181.25382812 -1.71198242 183.234375 -1.70507812 C186.5625 -1.1875 186.5625 -1.1875 188.99121094 0.54785156 C190.81123534 3.17099425 191.03412487 4.41913002 190.953125 7.578125 C190.94023437 8.46757812 190.92734375 9.35703125 190.9140625 10.2734375 C190.86378906 11.65402344 190.86378906 11.65402344 190.8125 13.0625 C190.79445313 13.99835938 190.77640625 14.93421875 190.7578125 15.8984375 C190.71076909 18.20356438 190.63902778 20.50816354 190.5625 22.8125 C195.8425 22.8125 201.1225 22.8125 206.5625 22.8125 C206.48 20.915 206.3975 19.0175 206.3125 17.0625 C206.06986272 11.48184249 206.06986272 11.48184249 208.14941406 8.65637207 C211.40573358 6.16817365 213.4866844 6.30523148 217.5625 6.29492188 C218.25891602 6.2879126 218.95533203 6.28090332 219.67285156 6.27368164 C221.96980932 6.25610804 224.26553021 6.26772081 226.5625 6.28125 C228.16146073 6.27855487 229.76041987 6.27467227 231.359375 6.26965332 C234.70849226 6.26375918 238.05718243 6.27231808 241.40625 6.29101562 C245.69728591 6.31380565 249.98732111 6.30068204 254.27832031 6.27672577 C257.57950366 6.2622652 260.88045011 6.26687485 264.18164062 6.27723694 C265.76367308 6.27990354 267.34572711 6.27663678 268.92773438 6.26731873 C271.13990163 6.25714821 273.350453 6.2726581 275.5625 6.29492188 C277.4496875 6.29969543 277.4496875 6.29969543 279.375 6.30456543 C282.5625 6.8125 282.5625 6.8125 284.96765137 8.59094238 C286.67736446 10.97250139 287.06677774 11.99268975 287.08007812 14.875 C287.09268677 15.66261719 287.10529541 16.45023438 287.11828613 17.26171875 C287.10614075 18.52435547 287.10614075 18.52435547 287.09375 19.8125 C287.0975769 20.68519531 287.10140381 21.55789062 287.10534668 22.45703125 C287.1080649 24.29949092 287.10070994 26.14198924 287.08398438 27.984375 C287.06257248 30.80295934 287.08378801 33.61899485 287.109375 36.4375 C287.10673171 38.22917229 287.10160669 40.02084299 287.09375 41.8125 C287.10184692 42.65425781 287.10994385 43.49601562 287.11828613 44.36328125 C287.09937317 45.54470703 287.09937317 45.54470703 287.08007812 46.75 C287.07689575 47.43964844 287.07371338 48.12929687 287.07043457 48.83984375 C286.29808695 51.83939617 285.03853831 52.98164165 282.5625 54.8125 C279.375 55.32043457 279.375 55.32043457 275.5625 55.33007812 C274.51787598 55.34059204 274.51787598 55.34059204 273.45214844 55.35131836 C271.15519068 55.36889196 268.85946979 55.35727919 266.5625 55.34375 C264.96353927 55.34644513 263.36458013 55.35032773 261.765625 55.35534668 C258.41650774 55.36124082 255.06781757 55.35268192 251.71875 55.33398438 C247.42771409 55.31119435 243.13767889 55.32431796 238.84667969 55.34827423 C235.54549634 55.3627348 232.24454989 55.35812515 228.94335938 55.34776306 C227.36132692 55.34509646 225.77927289 55.34836322 224.19726562 55.35768127 C221.98509837 55.36785179 219.774547 55.3523419 217.5625 55.33007812 C216.304375 55.32689575 215.04625 55.32371338 213.75 55.32043457 C209.99425723 54.72194937 208.7937846 53.84412923 206.5625 50.8125 C206.03582191 46.74654512 206.38343125 42.93108117 206.5625 38.8125 C201.2825 38.8125 196.0025 38.8125 190.5625 38.8125 C190.60890625 40.20984375 190.6553125 41.6071875 190.703125 43.046875 C190.74064582 44.88539529 190.77704565 46.7239387 190.8125 48.5625 C190.84601563 49.48289063 190.87953125 50.40328125 190.9140625 51.3515625 C190.92695313 52.24101562 190.93984375 53.13046875 190.953125 54.046875 C190.97407227 54.86381836 190.99501953 55.68076172 191.01660156 56.52246094 C190.36807331 59.79299587 189.26426919 60.88204409 186.5625 62.8125 C183.234375 63.33007812 183.234375 63.33007812 179.3125 63.34375 C178.26980957 63.34949036 178.26980957 63.34949036 177.20605469 63.35534668 C175.74021959 63.3580618 174.27433572 63.35072835 172.80859375 63.33398438 C170.56921025 63.31256419 168.33303413 63.33379443 166.09375 63.359375 C164.66665961 63.35673165 163.23957121 63.3516065 161.8125 63.34375 C160.51828125 63.33923828 159.2240625 63.33472656 157.890625 63.33007812 C154.5625 62.8125 154.5625 62.8125 152.13378906 61.07714844 C150.31376466 58.45400575 150.09087513 57.20586998 150.171875 54.046875 C150.18476563 53.15742188 150.19765625 52.26796875 150.2109375 51.3515625 C150.26121094 49.97097656 150.26121094 49.97097656 150.3125 48.5625 C150.33054687 47.62664062 150.34859375 46.69078125 150.3671875 45.7265625 C150.41423091 43.42143562 150.48597222 41.11683646 150.5625 38.8125 C142.6425 39.3075 142.6425 39.3075 134.5625 39.8125 C133.985 41.50375 133.4075 43.195 132.8125 44.9375 C129.97995598 52.63570325 126.68580234 57.66412671 119.5625 61.8125 C113.68231742 63.77256086 106.95979157 63.64065527 101.125 61.625 C93.00337462 55.88043571 89.24958011 49.21728037 86.5625 39.8125 C81.2825 39.4825 76.0025 39.1525 70.5625 38.8125 C70.60890625 40.20984375 70.6553125 41.6071875 70.703125 43.046875 C70.74064582 44.88539529 70.77704565 46.7239387 70.8125 48.5625 C70.84601563 49.48289063 70.87953125 50.40328125 70.9140625 51.3515625 C70.93339844 52.68574219 70.93339844 52.68574219 70.953125 54.046875 C70.97407227 54.86381836 70.99501953 55.68076172 71.01660156 56.52246094 C70.36807331 59.79299587 69.26426919 60.88204409 66.5625 62.8125 C63.234375 63.33007812 63.234375 63.33007812 59.3125 63.34375 C58.26980957 63.34949036 58.26980957 63.34949036 57.20605469 63.35534668 C55.74021959 63.3580618 54.27433572 63.35072835 52.80859375 63.33398438 C50.56921025 63.31256419 48.33303413 63.33379443 46.09375 63.359375 C44.66665961 63.35673165 43.23957121 63.3516065 41.8125 63.34375 C40.51828125 63.33923828 39.2240625 63.33472656 37.890625 63.33007812 C34.5625 62.8125 34.5625 62.8125 32.13378906 61.07714844 C30.31376466 58.45400575 30.09087513 57.20586998 30.171875 54.046875 C30.18476563 53.15742188 30.19765625 52.26796875 30.2109375 51.3515625 C30.24445313 50.43117187 30.27796875 49.51078125 30.3125 48.5625 C30.33054687 47.62664062 30.34859375 46.69078125 30.3671875 45.7265625 C30.41423091 43.42143562 30.48597222 41.11683646 30.5625 38.8125 C22.6425 39.3075 22.6425 39.3075 14.5625 39.8125 C13.985 41.50375 13.4075 43.195 12.8125 44.9375 C9.97995598 52.63570325 6.68580234 57.66412671 -0.4375 61.8125 C-6.31768258 63.77256086 -13.04020843 63.64065527 -18.875 61.625 C-26.62605135 56.14254905 -31.33399165 48.99144553 -33.4375 39.8125 C-34.66726562 39.77382812 -34.66726562 39.77382812 -35.921875 39.734375 C-36.99953125 39.67765625 -38.0771875 39.6209375 -39.1875 39.5625 C-40.25484375 39.51609375 -41.3221875 39.4696875 -42.421875 39.421875 C-46.0298618 38.69279995 -47.25678138 37.74089358 -49.4375 34.8125 C-49.96875 32.8125 -49.96875 32.8125 -49.9375 30.8125 C-49.95296875 29.8225 -49.95296875 29.8225 -49.96875 28.8125 C-49.17879592 25.83855523 -47.86881247 24.66416182 -45.4375 22.8125 C-42.421875 22.203125 -42.421875 22.203125 -39.1875 22.0625 C-37.57101563 21.97742188 -37.57101563 21.97742188 -35.921875 21.890625 C-35.10203125 21.86484375 -34.2821875 21.8390625 -33.4375 21.8125 C-33.20675781 21.09964844 -32.97601563 20.38679688 -32.73828125 19.65234375 C-29.71860986 10.78429694 -26.82883253 4.55542708 -18.4375 -0.1875 C-12.55731742 -2.14756086 -5.83479157 -2.01565527 0 0 Z " fill="#5E5C60" transform="translate(169.4375,129.1875)"/>
<path d="M0 0 C2.0625 2.6875 2.0625 2.6875 3 6 C2.34257065 10.09067149 1.30428122 12.57937596 -1.125 15.9375 C-3.49243193 19.80430549 -3.87625026 22.57404205 -3 27 C-1.40521237 30.06057006 -1.40521237 30.06057006 1 33 C7.54233437 42.0791579 10.14256611 49.6871849 9 61 C7.37793091 67.7513146 4.91580128 73.08419872 0 78 C-3.20841035 79.60420518 -6.5193987 79.47462745 -10 79 C-12.5 77.5 -12.5 77.5 -14 75 C-14.77055997 69.86293354 -14.44637785 67.26427335 -11.5 63 C-8.53847626 58.69693132 -8.24688876 56.18809964 -9 51 C-10.59478763 47.93942994 -10.59478763 47.93942994 -13 45 C-19.54233437 35.9208421 -22.14256611 28.3128151 -21 17 C-19.18097237 9.42891204 -16.40141361 2.77984017 -9.625 -1.5 C-5.80955694 -2.22675106 -3.53121593 -1.5694293 0 0 Z " fill="#5E5C60" transform="translate(310,41)"/>
<path d="M0 0 C2.0625 2.6875 2.0625 2.6875 3 6 C2.34257065 10.09067149 1.30428122 12.57937596 -1.125 15.9375 C-3.49243193 19.80430549 -3.87625026 22.57404205 -3 27 C-1.40521237 30.06057006 -1.40521237 30.06057006 1 33 C7.54233437 42.0791579 10.14256611 49.6871849 9 61 C7.37793091 67.7513146 4.91580128 73.08419872 0 78 C-3.20841035 79.60420518 -6.5193987 79.47462745 -10 79 C-12.5 77.5 -12.5 77.5 -14 75 C-14.77055997 69.86293354 -14.44637785 67.26427335 -11.5 63 C-8.53847626 58.69693132 -8.24688876 56.18809964 -9 51 C-10.59478763 47.93942994 -10.59478763 47.93942994 -13 45 C-19.54233437 35.9208421 -22.14256611 28.3128151 -21 17 C-19.18097237 9.42891204 -16.40141361 2.77984017 -9.625 -1.5 C-5.80955694 -2.22675106 -3.53121593 -1.5694293 0 0 Z " fill="#5E5C60" transform="translate(262,41)"/>
<path d="M0 0 C2.0625 2.6875 2.0625 2.6875 3 6 C2.34257065 10.09067149 1.30428122 12.57937596 -1.125 15.9375 C-3.49243193 19.80430549 -3.87625026 22.57404205 -3 27 C-1.40521237 30.06057006 -1.40521237 30.06057006 1 33 C7.54233437 42.0791579 10.14256611 49.6871849 9 61 C7.37793091 67.7513146 4.91580128 73.08419872 0 78 C-3.20841035 79.60420518 -6.5193987 79.47462745 -10 79 C-12.5 77.5 -12.5 77.5 -14 75 C-14.77055997 69.86293354 -14.44637785 67.26427335 -11.5 63 C-8.53847626 58.69693132 -8.24688876 56.18809964 -9 51 C-10.59478763 47.93942994 -10.59478763 47.93942994 -13 45 C-19.54233437 35.9208421 -22.14256611 28.3128151 -21 17 C-19.18097237 9.42891204 -16.40141361 2.77984017 -9.625 -1.5 C-5.80955694 -2.22675106 -3.53121593 -1.5694293 0 0 Z " fill="#5E5C60" transform="translate(214,41)"/>
</svg>
