<?xml version="1.0" encoding="UTF-8"?>
<svg version="1.1" xmlns="http://www.w3.org/2000/svg" width="512" height="512">
<path d="M0 0 C156.75 0 313.5 0 475 0 C473.82224655 20.02180868 473.82224655 20.02180868 471.9375 29.0625 C471.72198486 30.11050781 471.50646973 31.15851563 471.28442383 32.23828125 C463.76116442 67.02262891 447.27724365 98.79585441 422.99609375 124.8515625 C421.17614754 126.81040872 419.46282627 128.82295875 417.75 130.875 C384.38843896 168.77554893 332.99344746 192.1470875 284 201 C283.16694336 201.16081055 282.33388672 201.32162109 281.47558594 201.48730469 C252.81426099 206.81938854 219.55370348 206.64570575 191 201 C190.10587402 200.83902832 189.21174805 200.67805664 188.29052734 200.51220703 C151.19559836 193.80224681 115.25605349 178.54342337 85 156 C84.3723877 155.53464844 83.74477539 155.06929687 83.09814453 154.58984375 C64.65915482 140.72636774 48.12798715 123.97076985 35 105 C34.59426758 104.4229834 34.18853516 103.8459668 33.77050781 103.25146484 C12.59859743 72.8732225 0 37.0667377 0 0 Z M406 92 C403.03 95.3 400.06 98.6 397 102 C397.86625 103.0725 398.7325 104.145 399.625 105.25 C400.35589844 106.15492188 400.35589844 106.15492188 401.1015625 107.078125 C403.46998746 109.60528788 403.46998746 109.60528788 409 113 C412.3 109.37 415.6 105.74 419 102 C416.01439924 99.01439924 413.69975383 96.98219365 410.25 94.75 C408.8475 93.8425 407.445 92.935 406 92 Z M378.875 119.3125 C358.72092076 136.50656484 334.65196933 149.80666092 309.33496094 157.56689453 C308.11728027 157.95917236 308.11728027 157.95917236 306.875 158.359375 C305.78832031 158.69146973 305.78832031 158.69146973 304.6796875 159.03027344 C302.82708594 159.87307773 302.82708594 159.87307773 302.20922852 161.90039062 C301.88779006 165.12602744 302.92930697 167.69486961 303.9375 170.75 C304.31777344 171.92046875 304.69804687 173.0909375 305.08984375 174.296875 C305.39019531 175.18890625 305.69054687 176.0809375 306 177 C336.08069041 168.13377292 363.44241062 153.76103346 387.31103516 133.43798828 C389.85645858 131.27080933 392.42957607 129.13742756 395 127 C393.58330822 121.80546349 390.07891809 118.33817117 386 115 C382.77417356 115 381.25526329 117.22733747 378.875 119.3125 Z " fill="#5BCB90" transform="translate(0,276)"/>
<path d="M0 0 C8.41575567 6.06935539 12.38540854 13.5477884 14.6640625 23.578125 C15.49422414 26.69004661 15.49422414 26.69004661 17.6640625 28.578125 C20.77922428 29.65889541 22.60218575 29.68937328 25.8515625 29.578125 C34.0450763 29.37962803 40.85996126 31.75053304 47.1640625 37.015625 C54.01235729 43.58382593 56.98501924 50.28505186 57.2265625 59.765625 C57.13800813 67.92872765 54.84269325 75.34850766 49.08203125 81.35546875 C48.63472656 81.77957031 48.18742187 82.20367187 47.7265625 82.640625 C46.7119386 84.4470905 46.7119386 84.4470905 46.7265625 86.640625 C48.58547971 91.88933243 51.15625135 93.69531337 55.7265625 96.640625 C55.7265625 97.630625 55.7265625 98.620625 55.7265625 99.640625 C53.42578125 101.796875 53.42578125 101.796875 50.4140625 104.140625 C44.87122485 108.11956376 44.87122485 108.11956376 40.8515625 113.453125 C40.61987514 117.50765386 42.63546192 120.33425322 45.171875 123.37109375 C49.50352905 127.93444092 54.3934528 131.33917614 59.7265625 134.640625 C59.17498148 138.34757393 57.84429596 139.74404871 54.9765625 142.078125 C53.90341797 142.98884766 53.90341797 142.98884766 52.80859375 143.91796875 C51.09928502 145.33223733 49.38267451 146.73767642 47.6640625 148.140625 C45.43808437 150.56404452 45.43808437 150.56404452 45.3515625 154.015625 C47.0931087 158.60697406 49.3985784 160.03697398 53.3046875 162.8359375 C60.25632424 168.0160281 64.45194907 173.98539283 65.7265625 182.640625 C65.7265625 185.610625 65.7265625 188.580625 65.7265625 191.640625 C50.8765625 191.640625 36.0265625 191.640625 20.7265625 191.640625 C17.5955305 174.07367576 14.46591986 156.50647534 11.33892822 138.93880653 C9.8870438 130.7822796 8.43451216 122.62586891 6.98046875 114.46972656 C5.71347632 107.36279687 4.44768611 100.2556543 3.18335342 93.14825094 C2.51354421 89.38318675 1.84312374 85.61823368 1.17126465 81.8535347 C0.53942382 78.31296463 -0.09081402 74.77211304 -0.71980286 71.23103523 C-1.06216501 69.30606411 -1.40624473 67.38139872 -1.75036621 65.45674133 C-1.95230591 64.31808121 -2.15424561 63.17942108 -2.36230469 62.0062561 C-2.62778107 60.51571685 -2.62778107 60.51571685 -2.89862061 58.99506569 C-3.2734375 56.640625 -3.2734375 56.640625 -3.2734375 54.640625 C-8.2234375 55.960625 -13.1734375 57.280625 -18.2734375 58.640625 C-17.98529175 60.26261307 -17.697146 61.88460114 -17.40026855 63.55574036 C-14.68981456 78.81497644 -11.98202333 94.0746825 -9.27695465 109.33487415 C-7.88606662 117.18093636 -6.49421317 125.02682502 -5.10009766 132.87231445 C-3.88520508 139.70922749 -2.67211294 146.54645709 -1.46119547 153.38407534 C-0.81976979 157.00560875 -0.17743435 160.62697553 0.46705627 164.24796486 C1.18591357 168.28696915 1.90075087 172.32667479 2.61523438 176.36645508 C2.93783485 178.17367035 2.93783485 178.17367035 3.26695251 180.01739502 C3.46047806 181.11535904 3.6540036 182.21332306 3.85339355 183.34455872 C4.02300346 184.30045804 4.19261337 185.25635736 4.36736298 186.24122334 C4.7265625 188.640625 4.7265625 188.640625 4.7265625 191.640625 C-9.1334375 191.640625 -22.9934375 191.640625 -37.2734375 191.640625 C-34.2734375 181.640625 -34.2734375 181.640625 -31.2734375 177.640625 C-30.69010417 174.640625 -30.69010417 174.640625 -31.2734375 171.640625 C-33.48744504 168.71899278 -34.7531289 167.75006018 -38.375 166.98828125 C-39.53773437 166.89417969 -40.70046875 166.80007812 -41.8984375 166.703125 C-51.17518808 165.58567633 -58.43005505 162.55413787 -64.8046875 155.578125 C-70.28196785 148.35277645 -71.6978493 140.25251416 -71.125 131.328125 C-70.03555514 124.54935698 -66.13046602 117.49765352 -61.2734375 112.640625 C-61.31727128 109.3770007 -61.39858993 106.72480249 -63.51416016 104.10302734 C-65.1566588 102.60858491 -66.85056349 101.21346418 -68.5859375 99.828125 C-75.26065194 94.05059327 -78.61912002 89.4575793 -79.62890625 80.48046875 C-80.03573394 71.07945059 -77.99088441 63.73132014 -72.1484375 56.328125 C-66.17484594 50.02337485 -58.87869056 47.31097934 -50.40234375 46.1953125 C-47.82655513 45.52418959 -46.83402121 44.78580833 -45.2734375 42.640625 C-45.04825676 39.09402832 -44.91199696 36.0835634 -45.7734375 32.64453125 C-47.76877416 24.64759606 -45.94295419 16.19110197 -41.83203125 9.18359375 C-32.21828921 -4.26672283 -14.41550932 -8.61958289 0 0 Z " fill="#5BCB90" transform="translate(104.2734375,68.359375)"/>
<path d="M0 0 C5.79023783 4.72361508 9.80577573 10.05700852 11.75 17.3125 C12.51010704 25.34665468 12.43299177 32.2494279 8.66015625 39.45703125 C7.27490421 42.28104292 7.12311524 44.24773006 7.75 47.3125 C9.78080785 49.77408528 11.94620597 51.6899716 14.46484375 53.640625 C20.18507003 58.19677897 24.4243514 63.9736 25.75 71.3125 C25.86691615 73.28919865 25.92501504 75.2698861 25.9375 77.25 C25.95167969 78.26964844 25.96585938 79.28929688 25.98046875 80.33984375 C25.60565858 85.17425966 24.60933414 87.47721203 21.09765625 90.890625 C20.01088289 91.79133339 18.91530431 92.68149228 17.8125 93.5625 C17.22911865 94.04211182 16.6457373 94.52172363 16.04467773 95.01586914 C14.28733198 96.45765288 12.51987762 97.88614507 10.75 99.3125 C8.93677706 100.79078037 7.12422558 102.2698849 5.3125 103.75 C4.42691406 104.47058594 3.54132813 105.19117187 2.62890625 105.93359375 C-0.7008147 108.68501852 -3.97776622 111.49319504 -7.25 114.3125 C-12.25687049 118.62634056 -17.32254879 122.85283548 -22.453125 127.01953125 C-26.74758585 130.54026941 -30.97536933 134.13863134 -35.20703125 137.734375 C-38.20807226 140.27697714 -41.22502953 142.79847372 -44.25 145.3125 C-45.57 144.6525 -46.89 143.9925 -48.25 143.3125 C-47.24601985 140.7980272 -46.23973123 138.28836465 -45.1796875 135.796875 C-40.61022785 123.95012777 -40.40131972 111.59824534 -45.5703125 99.92578125 C-47.02329455 94.3393158 -43.12252161 88.7848999 -40.625 83.8671875 C-40.27743652 83.17489044 -39.92987305 82.48259338 -39.57177734 81.76931763 C-38.46828814 79.5734571 -37.35925648 77.38045182 -36.25 75.1875 C-35.50483725 73.70721799 -34.760042 72.22675093 -34.015625 70.74609375 C-32.65070771 68.0325392 -31.28373318 65.32004501 -29.9140625 62.60888672 C-28.68759037 60.17933468 -27.46712423 57.74674847 -26.25 55.3125 C-30.87 53.0025 -35.49 50.6925 -40.25 48.3125 C-40.91 50.2925 -41.57 52.2725 -42.25 54.3125 C-43.29863069 56.56720835 -44.38761769 58.80341506 -45.5078125 61.0234375 C-45.81572723 61.63643707 -46.12364197 62.24943665 -46.44088745 62.88101196 C-47.41515063 64.81843658 -48.39496917 66.7529876 -49.375 68.6875 C-50.0407353 70.00892788 -50.70610353 71.33054076 -51.37109375 72.65234375 C-52.99315823 75.87454525 -54.62021374 79.09419593 -56.25 82.3125 C-59.9089316 80.88222517 -63.29252984 79.24146398 -66.75 77.375 C-71.28240536 75.03026555 -75.22403449 73.82634118 -80.25 73 C-85.80136442 71.87124457 -85.80136442 71.87124457 -87.74609375 69.44921875 C-88.6875 67.1875 -88.6875 67.1875 -89.453125 64.77734375 C-91.58502253 58.18309206 -95.80391965 53.53807921 -101.1875 49.375 C-105.08459058 46.05622978 -105.08459058 46.05622978 -105.77734375 42.94140625 C-105.27218079 34.63859966 -101.43962205 26.98035941 -95.375 21.375 C-87.98083746 15.54472342 -80.55115749 14.11389877 -71.25 14.3125 C-66.54981792 15.13932499 -62.56608916 16.45551171 -58.5625 19.0625 C-55.0968839 20.935806 -52.99254438 20.32466031 -49.25 19.3125 C-47.06953491 16.55453966 -47.06953491 16.55453966 -45.625 13.0625 C-41.73498569 4.67524963 -35.95446752 -1.20531164 -27.203125 -4.4453125 C-17.597324 -7.08876936 -8.17847732 -5.73900799 0 0 Z " fill="#5BCB90" transform="translate(218.25,10.6875)"/>
<path d="M0 0 C6.32775638 4.52138994 11.7807523 10.03858442 13.6796875 17.82421875 C14.98752751 26.70796128 14.55138259 34.19762985 10 42 C9.443125 43.051875 8.88625 44.10375 8.3125 45.1875 C3.08596229 51.54409992 -4.09485958 55.50018711 -12.296875 56.3359375 C-21.43804388 56.43934439 -27.96879623 55.08732959 -35.75 50.3125 C-42.28384492 43.59715939 -46.25817409 36.23626411 -46.375 26.75 C-46.19561356 17.47466572 -43.35472386 10.52340212 -37 3.7578125 C-26.49833951 -5.47216254 -12.18736713 -6.9964515 0 0 Z " fill="#5BCB90" transform="translate(363,64)"/>
<path d="M0 0 C3.26737472 1.46172027 3.84356919 2.59154176 5.125 5.9375 C5.58132894 11.91910903 1.85398538 16.99518507 -1 22 C-1.40943848 22.72461426 -1.81887695 23.44922852 -2.24072266 24.19580078 C-4.69355616 28.53089604 -7.16928088 32.85237925 -9.65625 37.16796875 C-13.15498727 43.25043664 -16.58071083 49.37261496 -20 55.5 C-24.80057175 64.09454023 -29.6447339 72.66198078 -34.54003906 81.20288086 C-38.13413615 87.47594438 -41.69824804 93.76537491 -45.25 100.0625 C-49.77735357 108.08832534 -54.33679681 116.09526948 -58.9161377 124.09152222 C-64.3243058 133.53513259 -69.69661361 142.9969623 -75 152.5 C-86.1344895 172.44636916 -97.52008635 192.25065702 -109 212 C-110.37102178 207.88693465 -109.10890799 206.57754059 -107.203125 202.734375 C-106.7465023 201.80254898 -106.7465023 201.80254898 -106.28065491 200.85189819 C-105.2793805 198.81338699 -104.26463908 196.78188733 -103.25 194.75 C-102.55255048 193.33500402 -101.85618792 191.91947179 -101.16088867 190.50341797 C-99.76317968 187.65829283 -98.36138287 184.81524313 -96.95654297 181.97363281 C-94.36070782 176.71353957 -91.83198984 171.42200257 -89.3125 166.125 C-88.42994659 164.27591798 -87.54713413 162.42695958 -86.6640625 160.578125 C-86.22868164 159.66611328 -85.79330078 158.75410156 -85.34472656 157.81445312 C-78.28105738 143.03050644 -71.16820465 128.270277 -64.03994751 113.51739502 C-59.23798883 103.57784368 -54.46450677 93.62497243 -49.70703125 83.6640625 C-45.32403707 74.48841859 -40.91823087 65.32370606 -36.51611328 56.15722656 C-34.50869416 51.9768813 -32.50182165 47.79627423 -30.49584961 43.61523438 C-29.50455099 41.55077045 -28.51189134 39.48695946 -27.51782227 37.42382812 C-24.88556175 31.9561272 -22.28306176 26.47649594 -19.71875 20.9765625 C-19.17992187 19.82994141 -18.64109375 18.68332031 -18.0859375 17.50195312 C-17.0513191 15.29892947 -16.02487667 13.09204207 -15.0078125 10.88085938 C-14.54117188 9.89150391 -14.07453125 8.90214844 -13.59375 7.8828125 C-13.18833984 7.01027832 -12.78292969 6.13774414 -12.36523438 5.23876953 C-9.21549312 0.07368954 -5.86997589 -0.62892599 0 0 Z " fill="#5BCB90" transform="translate(467,6)"/>
<path d="M0 0 C8.25741919 6.97948527 12.53496541 13.71612894 15.5 24.09375 C-9.58 24.09375 -34.66 24.09375 -60.5 24.09375 C-58.5 5.09375 -58.5 5.09375 -54.4375 0.15625 C-51.9921875 -1.53515625 -51.9921875 -1.53515625 -49.5 -2.90625 C-48.76007813 -3.32777344 -48.02015625 -3.74929687 -47.2578125 -4.18359375 C-32.07939733 -11.77280133 -13.51836023 -10.30774967 0 0 Z " fill="#5BCB90" transform="translate(356.5,235.90625)"/>
<path d="M0 0 C3 1 3 1 4.1328125 2.828125 C9.25998896 15.34328013 8.78281102 26.67219891 3.7421875 39.1015625 C-0.58281737 48.43695553 -6.79986043 56.98393892 -16 62 C-18.84831915 62.83421148 -21.68011891 63.17662685 -24.625 63.5 C-36.8005515 65.21680995 -46.36194267 69.07774222 -56.44140625 76.23046875 C-62.11896275 80.15708416 -62.11896275 80.15708416 -66.0234375 79.4609375 C-77.20078355 75.83937316 -77.20078355 75.83937316 -82 72 C-80.48363279 68.29704803 -78.30546659 66.23754358 -75.3125 63.625 C-73.98025391 62.45517578 -73.98025391 62.45517578 -72.62109375 61.26171875 C-71.32365234 60.14216797 -71.32365234 60.14216797 -70 59 C-69.26910156 58.36707031 -68.53820312 57.73414063 -67.78515625 57.08203125 C-66.19630207 55.71412202 -64.59917837 54.35582514 -63 53 C-62.34 53.268125 -61.68 53.53625 -61 53.8125 C-59.515 54.4003125 -59.515 54.4003125 -58 55 C-56.906875 55.53625 -55.81375 56.0725 -54.6875 56.625 C-46.80582265 59.54137018 -36.26443955 59.23968385 -28.4375 56.375 C-19.39040584 52.01057267 -13.65083635 45.13780247 -10.1484375 35.70703125 C-7.92379719 27.32755276 -9.72835951 19.17790577 -12 11 C-8.04 7.37 -4.08 3.74 0 0 Z " fill="#5BCB90" transform="translate(246,114)"/>
<path d="M0 0 C1.31291016 0.22236328 1.31291016 0.22236328 2.65234375 0.44921875 C5.66942698 1.529892 6.41568279 2.59363708 8.0625 5.3125 C9.21349665 12.77840366 7.55246866 20.36233717 5.875 27.625 C5.5344458 29.1255896 5.5344458 29.1255896 5.18701172 30.65649414 C-0.44338017 54.74811225 -0.44338017 54.74811225 -8.9375 61.3125 C-14.96121284 64.80885074 -21.0043043 66.22397616 -27.9375 65.3125 C-28.5975 64.9825 -29.2575 64.6525 -29.9375 64.3125 C-29.32853846 61.08340133 -28.05484926 58.33229998 -26.61474609 55.39306641 C-20.02693809 41.94339203 -16.29793161 28.63565999 -13.89990234 13.87939453 C-12.81493776 7.75920365 -12.03905122 4.07408682 -6.9375 0.3125 C-4.28835281 -1.01207359 -2.89135152 -0.53071797 0 0 Z " fill="#5BCB90" transform="translate(448.9375,193.6875)"/>
<path d="M0 0 C12.1317458 0.11972118 22.58830178 4.01350767 31.40234375 12.34765625 C37.48545065 18.77060152 42.53668164 26.27713405 43.25 35.3125 C39.20896636 33.66687425 36.31698427 30.82017109 33.1875 27.875 C32.65833984 27.38451172 32.12917969 26.89402344 31.58398438 26.38867188 C29.09431749 24.07393767 26.62914357 21.74103755 24.25 19.3125 C20.79718834 20.46343722 19.86917837 21.6330993 17.5625 24.375 C16.93988281 25.10847656 16.31726563 25.84195313 15.67578125 26.59765625 C15.20527344 27.16355469 14.73476563 27.72945312 14.25 28.3125 C15.62728362 31.45971766 17.17369608 33.41137907 19.7265625 35.6953125 C20.396875 36.30503906 21.0671875 36.91476563 21.7578125 37.54296875 C22.45648438 38.16816406 23.15515625 38.79335937 23.875 39.4375 C25.2674817 40.68514328 26.65574886 41.93751188 28.0390625 43.1953125 C28.65475098 43.74590332 29.27043945 44.29649414 29.90478516 44.86376953 C31.25 46.3125 31.25 46.3125 31.25 48.3125 C19.59324508 47.46473601 10.33957647 42.03064718 2.21484375 33.734375 C-4.03726926 26.02799315 -6.89523618 17.88895633 -6.875 8.125 C-6.87757813 6.87332031 -6.88015625 5.62164062 -6.8828125 4.33203125 C-6.65834965 -0.77119758 -4.6382376 0.10541449 0 0 Z " fill="#5BCB90" transform="translate(277.75,123.6875)"/>
<path d="M0 0 C0.54958615 13.87705024 0.27293392 24.82448518 -9.09375 35.9375 C-15.33807377 42.69365358 -23.15795091 49.6885688 -32.83203125 50.12890625 C-33.54746094 50.08636719 -34.26289063 50.04382813 -35 50 C-30.37338295 43.26695568 -24.86878323 37.66001228 -19 32 C-20.39390539 28.84280428 -22.03634972 26.7187347 -24.5 24.3125 C-25.1084375 23.71050781 -25.716875 23.10851562 -26.34375 22.48828125 C-27.9452691 20.91687598 -27.9452691 20.91687598 -30 20 C-30.24105469 20.56976563 -30.48210937 21.13953125 -30.73046875 21.7265625 C-32.24728666 24.44283334 -34.06762907 26.22445137 -36.3125 28.375 C-39.0196377 31.01238858 -41.62060895 33.62489404 -44 36.5625 C-44.66 37.366875 -45.32 38.17125 -46 39 C-46.33 39 -46.66 39 -47 39 C-47.91795009 30.92203917 -44.67573096 23.690128 -39.98046875 17.21484375 C-29.37799812 4.90409413 -16.406262 -1.1836181 0 0 Z " fill="#5BCB90" transform="translate(313,14)"/>
<path d="M0 0 C6.17034028 1.93372487 12.04733952 4.2271614 17.92578125 6.9140625 C18.75345505 7.2880014 19.58112885 7.66194031 20.43388367 8.04721069 C23.0619853 9.23567192 25.68729377 10.43015884 28.3125 11.625 C30.02911041 12.40275544 31.74590617 13.18010191 33.46289062 13.95703125 C36.89103204 15.50877658 40.31816282 17.06272318 43.74462891 18.61816406 C52.15372453 22.43285671 60.57743228 26.2151717 69 30 C69 30.33 69 30.66 69 31 C48.87 31 28.74 31 8 31 C7.34 25.72 6.68 20.44 6 15 C4.4278265 10.82031923 2.89721247 6.98612934 1 3 C0.67 2.01 0.34 1.02 0 0 Z " fill="#5BCB90" transform="translate(178,229)"/>
<path d="M0 0 C2.94267223 1.59631447 4.95808023 3.75340329 7.2734375 6.16015625 C8.16546875 7.07925781 9.0575 7.99835937 9.9765625 8.9453125 C10.65203125 9.65558594 11.3275 10.36585937 12.0234375 11.09765625 C10.42769249 15.06824531 7.65674566 17.72705579 4.6484375 20.66015625 C4.16632813 21.14162109 3.68421875 21.62308594 3.1875 22.11914062 C0.60487607 24.67018355 -2.00697631 27.00768683 -4.9765625 29.09765625 C-8.86053939 27.54762878 -11.00635869 25.09289004 -13.7265625 21.97265625 C-14.52578125 21.06257813 -15.325 20.1525 -16.1484375 19.21484375 C-16.75171875 18.51617188 -17.355 17.8175 -17.9765625 17.09765625 C-14.41628286 12.78784405 -10.70674291 8.64673626 -6.8515625 4.59765625 C-6.02398437 3.72109375 -5.19640625 2.84453125 -4.34375 1.94140625 C-1.9765625 0.09765625 -1.9765625 0.09765625 0 0 Z " fill="#5BCB90" transform="translate(358.9765625,-0.09765625)"/>
<path d="M0 0 C1.00674459 3.26879616 2.00422489 6.5403471 3 9.8125 C3.28617187 10.74126953 3.57234375 11.67003906 3.8671875 12.62695312 C4.13789063 13.51962891 4.40859375 14.41230469 4.6875 15.33203125 C4.93886719 16.15421143 5.19023437 16.9763916 5.44921875 17.82348633 C6 20 6 20 6 23 C3.94237091 23.70194375 1.87863969 24.38601697 -0.1875 25.0625 C-1.91033203 25.63677734 -1.91033203 25.63677734 -3.66796875 26.22265625 C-6.97454508 26.99406151 -8.79082314 26.96093996 -12 26 C-12.84179395 23.27318889 -13.67363069 20.54398557 -14.5 17.8125 C-14.85771484 16.65911133 -14.85771484 16.65911133 -15.22265625 15.48242188 C-16.40213617 11.55643872 -17.3326262 8.14951179 -17 4 C-14.91891315 3.32635339 -12.8350329 2.66133202 -10.75 2 C-9.58984375 1.62875 -8.4296875 1.2575 -7.234375 0.875 C-4 0 -4 0 0 0 Z " fill="#5BCB90" transform="translate(392,37)"/>
<path d="M0 0 C1.08925781 -0.01417969 2.17851562 -0.02835938 3.30078125 -0.04296875 C7.07252398 0.21370117 10.09856909 1.03667678 13.6875 2.1875 C12.16113281 5.74902344 12.16113281 5.74902344 10.63476562 9.31054688 C10.01118164 10.76557617 10.01118164 10.76557617 9.375 12.25 C7.03125 17.71875 7.03125 17.71875 4.6875 23.1875 C4.21111084 24.29907471 4.21111084 24.29907471 3.72509766 25.43310547 C3.04589844 27.01790365 2.36669922 28.60270182 1.6875 30.1875 C1.0275 30.1875 0.3675 30.1875 -0.3125 30.1875 C-1.98732275 25.91982002 -3.65095499 21.64786507 -5.3125 17.375 C-5.78945312 16.16005859 -6.26640625 14.94511719 -6.7578125 13.69335938 C-7.20898438 12.52998047 -7.66015625 11.36660156 -8.125 10.16796875 C-8.54394531 9.09442139 -8.96289062 8.02087402 -9.39453125 6.91479492 C-10.3125 4.1875 -10.3125 4.1875 -10.3125 1.1875 C-6.84555953 0.13307772 -3.61390122 0.02123326 0 0 Z " fill="#5BCB90" transform="translate(230.3125,191.8125)"/>
<path d="M0 0 C0.22638801 2.12315243 0.43005414 4.24873005 0.625 6.375 C0.79902344 8.15003906 0.79902344 8.15003906 0.9765625 9.9609375 C1.21646285 14.77625693 0.09493748 19.3367289 -1 24 C-10.33333333 20 -19.66666667 16 -29 12 C-29 11.34 -29 10.68 -29 10 C-24.73232002 8.32517725 -20.46036507 6.66154501 -16.1875 5 C-14.97255859 4.52304688 -13.75761719 4.04609375 -12.50585938 3.5546875 C-11.34248047 3.10351562 -10.17910156 2.65234375 -8.98046875 2.1875 C-7.37014771 1.55908203 -7.37014771 1.55908203 -5.72729492 0.91796875 C-3 0 -3 0 0 0 Z " fill="#5BCB90" transform="translate(281,233)"/>
<path d="M0 0 C3.78528209 2.09027967 6.6618827 4.41787711 9.6875 7.5 C10.45449219 8.2734375 11.22148437 9.046875 12.01171875 9.84375 C16.0188203 14.18936897 16.0188203 14.18936897 15.95263672 17.04003906 C14.53784754 19.95083546 12.75670109 20.27092964 9.7578125 21.359375 C8.69175781 21.75253906 7.62570312 22.14570313 6.52734375 22.55078125 C5.40457031 22.94652344 4.28179687 23.34226563 3.125 23.75 C2.00996094 24.16121094 0.89492188 24.57242188 -0.25390625 24.99609375 C-8.52712313 28 -8.52712313 28 -12 28 C-9.9770602 21.35233644 -7.34927071 15.18055813 -4.3125 8.9375 C-3.89677734 8.07189453 -3.48105469 7.20628906 -3.05273438 6.31445312 C-2.03989913 4.20729015 -1.0222841 2.1025906 0 0 Z " fill="#5BCB90" transform="translate(258,200)"/>
<path d="M0 0 C3.58485893 3.58485893 4.85698595 8.71242325 6.6875 13.375 C7.11611328 14.42945313 7.54472656 15.48390625 7.98632812 16.5703125 C8.38658203 17.58609375 8.78683594 18.601875 9.19921875 19.6484375 C9.56877686 20.57833496 9.93833496 21.50823242 10.3190918 22.46630859 C11 25 11 25 10 29 C1.42 25.04 -7.16 21.08 -16 17 C-13.88935489 8.55741957 -7.13398157 4.32794882 0 0 Z " fill="#5BCB90" transform="translate(204,199)"/>
<path d="M0 0 C-0.15340373 6.93105935 -0.9192588 12.01616667 -6 17 C-11.24427588 20.87077506 -16.75966255 20.29980269 -23 20 C-23.33 19.34 -23.66 18.68 -24 18 C-21.39166332 15.86590635 -18.78292281 13.73233986 -16.171875 11.6015625 C-14.06684362 9.88032856 -11.97432757 8.14542007 -9.890625 6.3984375 C-8.91609375 5.58632812 -7.9415625 4.77421875 -6.9375 3.9375 C-6.03902344 3.18339844 -5.14054687 2.42929688 -4.21484375 1.65234375 C-2 0 -2 0 0 0 Z " fill="#5BCB91" transform="translate(222,137)"/>
</svg>
