<?xml version="1.0" encoding="UTF-8"?>
<svg version="1.1" xmlns="http://www.w3.org/2000/svg" width="512" height="512">
<path d="M0 0 C55.44 0 110.88 0 168 0 C166.85072802 25.28398366 166.85072802 25.28398366 166.02734375 37.0546875 C165.8962899 38.97234421 165.8962899 38.97234421 165.7625885 40.92874146 C165.53588581 44.2395482 165.30706344 47.55019817 165.0770874 50.86077881 C164.84053105 54.2742446 164.60693555 57.68791307 164.37304688 61.1015625 C163.91800681 67.73455898 163.46015807 74.36735671 163 81 C162.38003143 81.10709793 161.76006287 81.21419586 161.12130737 81.32453918 C158.26474501 81.82134782 155.40974269 82.32663611 152.5546875 82.83203125 C151.57975342 83.00029419 150.60481934 83.16855713 149.6003418 83.34191895 C130.43254906 86.75815948 112.47459081 94.79590618 98 108 C97.4937207 108.45858398 96.98744141 108.91716797 96.46582031 109.38964844 C88.09218703 117.06754958 81.62242545 125.13180705 76 135 C75.59910156 135.69222656 75.19820313 136.38445312 74.78515625 137.09765625 C73.21193297 140.90939623 73.45796842 144.96983576 74 149 C75.81378992 152.34752558 75.81378992 152.34752558 78 155 C79.43469472 159.09284077 78.93916614 163.17160447 78.7421875 167.44140625 C78.97559448 170.66312981 79.56673815 172.93509821 80.5390625 175.9765625 C82.55443567 182.9957648 82.05915004 189.59872877 81.5 196.8125 C81.43296875 198.09576172 81.3659375 199.37902344 81.296875 200.70117188 C80.79425042 207.8081356 80.36474512 212.13607761 75 217 C72.74414342 221.51171315 73.38687621 226.97060926 73 232 C53.86 232 34.72 232 15 232 C13.0867526 203.45563788 11.17517198 174.91116609 9.26726595 146.36644649 C9.04196452 142.99567994 8.81664282 139.62491475 8.59130859 136.25415039 C8.54644937 135.58309824 8.50159015 134.91204609 8.45537156 134.22065903 C7.72918447 123.35830319 7.00135563 112.49605795 6.27291888 101.63385277 C5.52538715 90.4863617 4.77965721 79.3387509 4.03549433 68.19103438 C3.61750599 61.93033966 3.19869825 55.66970218 2.77793884 49.40919304 C2.38195622 43.51695459 1.98815284 37.62457453 1.59602165 31.73207855 C1.45170799 29.56929974 1.30659764 27.40657392 1.16063118 25.24390602 C0.96142318 22.29062676 0.76508578 19.33717 0.56945801 16.38365173 C0.51109378 15.52857826 0.45272956 14.67350478 0.39259672 13.79251999 C0.34034579 12.99481864 0.28809485 12.1971173 0.23426056 11.37524319 C0.18869412 10.69440463 0.14312768 10.01356608 0.09618044 9.31209606 C-0.0328389 6.21058084 0 3.10419758 0 0 Z " fill="#666161" transform="translate(64,208)"/>
<path d="M0 0 C0.21552884 8.49189169 -0.4516957 16.75560457 -1.37695312 25.19213867 C-1.52523232 26.5828531 -1.67299894 27.97362226 -1.82029724 29.36444092 C-2.21799968 33.10597464 -2.62278682 36.84671045 -3.02893639 40.58733535 C-3.45352691 44.50929913 -3.87147834 48.43197044 -4.29016113 52.35456848 C-5.08237021 59.76726848 -5.8804717 67.17932145 -6.68073893 74.59115535 C-7.76295422 84.61753848 -8.83596962 94.64490591 -9.90952492 104.67221928 C-11.59887464 120.44895652 -13.30043045 136.22435267 -15 152 C-44.7 152 -74.4 152 -105 152 C-105.33 147.71 -105.66 143.42 -106 139 C-107.75935668 135.65154696 -109.36563239 133.63436761 -112 131 C-112.30297852 129.1875 -112.30297852 129.1875 -112.37890625 127 C-112.41274414 126.20013672 -112.44658203 125.40027344 -112.48144531 124.57617188 C-112.50819336 123.72603516 -112.53494141 122.87589844 -112.5625 122 C-112.76247231 116.78518807 -112.96996377 111.66669157 -113.75 106.5 C-114.2763336 101.93582357 -113.07007428 98.40093557 -111.6875 94.07421875 C-110.59262517 89.17838642 -110.98935491 84.35435074 -111.28515625 79.3828125 C-110.94321426 75.32634998 -109.74873854 73.91042905 -107 71 C-105.04554173 67.09108345 -105.27390626 63.24191604 -106 59 C-110.42067305 48.24598447 -117.87883436 40.10392935 -126 32 C-127.15048828 30.84564453 -127.15048828 30.84564453 -128.32421875 29.66796875 C-128.95972656 29.03503906 -129.59523438 28.40210938 -130.25 27.75 C-131.1575 26.8425 -132.065 25.935 -133 25 C-133 24.67 -133 24.34 -133 24 C-131.5432637 23.98786972 -131.5432637 23.98786972 -130.05709839 23.97549438 C-120.84904317 23.89759001 -111.64112771 23.80974411 -102.43325615 23.71247292 C-97.70081313 23.66279097 -92.96838945 23.61646147 -88.23583984 23.578125 C-83.65806555 23.54091342 -79.0804652 23.49446285 -74.50284195 23.44193649 C-72.76722427 23.42358105 -71.03156959 23.40840575 -69.29589462 23.39665604 C-43.61216492 23.2167692 -23.59082517 17.00806499 -2.76367188 1.31494141 C-1 0 -1 0 0 0 Z " fill="#666161" transform="translate(464,288)"/>
<path d="M0 0 C1.16960266 -0.00807175 2.33920532 -0.01614349 3.54425049 -0.02445984 C6.02216118 -0.03827316 8.50009067 -0.04900758 10.97802734 -0.05688477 C13.48166585 -0.0683427 15.98528114 -0.08869467 18.48876953 -0.1184082 C49.23378002 -0.48282066 75.21492376 5.0642929 97.91796875 27.0390625 C104.17283718 33.33641537 109.18538529 39.74756212 112.015625 48.23828125 C48.655625 48.56828125 -14.704375 48.89828125 -79.984375 49.23828125 C-77.34958722 36.06434233 -63.91335132 23.98739481 -53.33984375 16.40234375 C-36.91082768 5.8066803 -19.55887704 0.12950619 0 0 Z " fill="#666161" transform="translate(231.984375,303.76171875)"/>
<path d="M0 0 C58.08 0 116.16 0 176 0 C177.98 7.425 177.98 7.425 180 15 C181.7529202 19.29724216 181.7529202 19.29724216 183.6875 22.75 C186.96761905 28.90285714 186.96761905 28.90285714 188 32 C122 32 56 32 -12 32 C-9.92669768 26.8167442 -7.40648558 22.06037074 -4.75390625 17.15625 C-2.30454011 11.68393744 -2.30454011 11.68393744 0 0 Z " fill="#676262" transform="translate(60,160)"/>
<path d="M0 0 C63.36 0 126.72 0 192 0 C192 9.46141056 189.61707505 17.01530967 183 24 C176.50513242 29.21994913 170.32620932 32.24030247 161.87223816 32.26742554 C160.66535843 32.27595551 159.4584787 32.28448547 158.21502686 32.29327393 C156.90423157 32.29236755 155.59343628 32.29146118 154.24291992 32.29052734 C152.83793278 32.29651674 151.43294893 32.30332323 150.02796936 32.31088257 C146.22203892 32.32850867 142.41619848 32.33323653 138.61023116 32.33451414 C136.22913608 32.3359383 133.84806369 32.34021291 131.46697426 32.34550858 C123.15073831 32.3639981 114.83456637 32.3721806 106.51831055 32.37060547 C98.78158073 32.36940457 91.0451301 32.39049939 83.3084709 32.4220928 C76.65347399 32.44829506 69.99856805 32.4589711 63.34351999 32.45769465 C59.37437731 32.45718615 55.40548286 32.46280706 51.43639183 32.48405075 C47.70077824 32.50349989 43.96564794 32.50351262 40.23001671 32.48901749 C38.21717344 32.48594945 36.20432977 32.50255925 34.19155884 32.51989746 C26.88634927 32.46947266 21.35485992 31.70210094 15 28 C13.78570312 27.29617188 13.78570312 27.29617188 12.546875 26.578125 C6.11196498 21.82188716 1.80980019 15.8973099 0 8 C0 5.36 0 2.72 0 0 Z " fill="#666161" transform="translate(152,432)"/>
<path d="M0 0 C58.08 0 116.16 0 176 0 C176 5.28 176 10.56 176 16 C117.92 16 59.84 16 0 16 C0 10.72 0 5.44 0 0 Z " fill="#676262" transform="translate(160,400)"/>
<path d="M0 0 C7.92 0 15.84 0 24 0 C24 31.68 24 63.36 24 96 C16.08 96 8.16 96 0 96 C0 64.32 0 32.64 0 0 Z " fill="#676262" transform="translate(136,48)"/>
<path d="M0 0 C7.92 0 15.84 0 24 0 C24 29.04 24 58.08 24 88 C16.08 88 8.16 88 0 88 C0 58.96 0 29.92 0 0 Z " fill="#676262" transform="translate(352,208)"/>
<path d="M0 0 C7.92 0 15.84 0 24 0 C24.22610559 10.06622092 24.40947724 20.13075096 24.51812172 30.19893837 C24.57027191 34.8743092 24.64096998 39.54785038 24.75439453 44.22216797 C24.86321609 48.73514063 24.92287254 53.2463565 24.94877243 57.76054001 C24.96722262 59.48075403 25.00325684 61.20087381 25.05730057 62.92033768 C25.46439465 76.41158136 25.46439465 76.41158136 21.81350708 80.37167358 C19.24025308 81.9431244 16.84733351 83.02928747 14 84 C13.00226563 84.48210937 12.00453125 84.96421875 10.9765625 85.4609375 C10.20054687 85.76257813 9.42453125 86.06421875 8.625 86.375 C7.83351563 86.69210937 7.04203125 87.00921875 6.2265625 87.3359375 C4 88 4 88 0 88 C0 58.96 0 29.92 0 0 Z " fill="#666161" transform="translate(416,208)"/>
<path d="M0 0 C7.92 0 15.84 0 24 0 C24 26.07 24 52.14 24 79 C17.08348629 78.23149848 13.23170443 77.62981229 7.5 74.5 C6.88125 74.17902344 6.2625 73.85804688 5.625 73.52734375 C1.21702189 71.21702189 1.21702189 71.21702189 0 70 C-0.09429342 67.82194281 -0.11742538 65.6407872 -0.11352539 63.46069336 C-0.11367142 62.77779739 -0.11381744 62.09490143 -0.1139679 61.39131165 C-0.11326876 59.12412386 -0.1054764 56.85701726 -0.09765625 54.58984375 C-0.09579207 53.02185613 -0.09436817 51.45386793 -0.09336853 49.88587952 C-0.08954334 45.75123497 -0.07971306 41.61662534 -0.06866455 37.48199463 C-0.05845044 33.26599602 -0.05387091 29.04999178 -0.04882812 24.83398438 C-0.03809078 16.55597174 -0.02049399 8.27799423 0 0 Z " fill="#676262" transform="translate(288,216)"/>
<path d="M0 0 C7.92 0 15.84 0 24 0 C24 21.12 24 42.24 24 64 C16.08 64 8.16 64 0 64 C0 42.88 0 21.76 0 0 Z " fill="#676262" transform="translate(384,232)"/>
<path d="M0 0 C7.92 0 15.84 0 24 0 C24 18.48 24 36.96 24 56 C16.08 56 8.16 56 0 56 C0 37.52 0 19.04 0 0 Z " fill="#676262" transform="translate(320,240)"/>
<path d="M0 0 C5.64401276 3.28502988 9.57832791 8.54671011 13 14 C13 14.66 13 15.32 13 16 C1.12 16 -10.76 16 -23 16 C-21.15602643 11.39006609 -19.76664529 9.29240106 -16.5 5.75 C-15.7059375 4.87859375 -14.911875 4.0071875 -14.09375 3.109375 C-10.05772126 -0.95677336 -5.47758996 -0.97040759 0 0 Z " fill="#676262" transform="translate(253,368)"/>
<path d="M0 0 C11.88 0 23.76 0 36 0 C33.01733624 5.96532752 28.97958362 12.73840893 23 16 C18.53965751 16.95081824 14.75015755 17.03307911 10.75 14.671875 C6.39541233 11.01006264 3.01511529 6.80533999 0 2 C0 1.34 0 0.68 0 0 Z " fill="#666262" transform="translate(274,368)"/>
<path d="M0 0 C11.88 0 23.76 0 36 0 C33.01733624 5.96532752 28.97958362 12.73840893 23 16 C18.53965751 16.95081824 14.75015755 17.03307911 10.75 14.671875 C6.39541233 11.01006264 3.01511529 6.80533999 0 2 C0 1.34 0 0.68 0 0 Z " fill="#666161" transform="translate(186,368)"/>
<path d="M0 0 C6.64729521 -0.8309119 6.64729521 -0.8309119 10.13671875 1.3125 C14.51428405 5.04802239 17.94659254 9.13363186 21 14 C21 14.66 21 15.32 21 16 C11.595 16.495 11.595 16.495 2 17 C0.38687662 12.16062987 -0.24163445 9.90701244 -0.125 5.125 C-0.10695312 4.15820312 -0.08890625 3.19140625 -0.0703125 2.1953125 C-0.04710937 1.47085937 -0.02390625 0.74640625 0 0 Z " fill="#676262" transform="translate(157,368)"/>
<path d="M0 0 C0.05506505 1.52040718 0.09326375 3.04142704 0.125 4.5625 C0.14820313 5.40941406 0.17140625 6.25632812 0.1953125 7.12890625 C0 10 0 10 -2 17 C-8.27 16.67 -14.54 16.34 -21 16 C-16.23296143 6.46592285 -11.27797085 -0.76460819 0 0 Z " fill="#666161" transform="translate(339,368)"/>
<path d="M0 0 C2 1 2 1 2 1 Z " fill="#666363" transform="translate(156,384)"/>
</svg>
