<?xml version="1.0" encoding="UTF-8"?>
<svg version="1.1" xmlns="http://www.w3.org/2000/svg" width="512" height="512">
<path d="M0 0 C5.04027212 4.22230313 9.76911598 8.62987816 14.40405273 13.29052734 C15.107332 13.99366058 15.81061127 14.69679382 16.53520203 15.42123413 C18.83704698 17.72377042 21.13533902 20.02981813 23.43359375 22.3359375 C25.03762792 23.94183861 26.6418844 25.5475177 28.24635315 27.15298462 C32.4521607 31.36259554 36.65495543 35.57520181 40.8571167 39.78845215 C45.15226772 44.09386431 49.45027946 48.3964186 53.74804688 52.69921875 C62.16815701 61.13002772 70.58508507 69.56400584 79 78 C77.99467105 80.02092711 76.98311696 82.0313976 75.9140625 84.01953125 C68.15299306 100.8351817 74.91560276 131.5287855 80.80322266 148.28613281 C83.65866153 155.86335225 86.87230981 163.02999683 91 170 C90.33613281 170.14695313 89.67226562 170.29390625 88.98828125 170.4453125 C82.66673952 172.05107638 79.60952303 173.52749734 76 179 C67.80928717 195.38142566 75.23255616 226.32903343 80.65673828 243.02099609 C87.95335273 264.04452762 102.04121249 280.97440535 122 291 C130.37807397 294.77374452 138.81225216 297.40350096 147.8125 299.25 C148.5446875 299.40106201 149.276875 299.55212402 150.03125 299.70776367 C158.93524551 301.38293176 167.99142558 302.10823394 177 303 C177.00808685 303.59833145 177.01617371 304.1966629 177.02450562 304.81312561 C177.11078318 311.05914003 177.21029626 317.30484554 177.31738281 323.55053711 C177.35558779 325.87926024 177.39045526 328.20804067 177.421875 330.53686523 C177.46770962 333.8906701 177.52567425 337.24408335 177.5859375 340.59765625 C177.60326431 342.15118553 177.60326431 342.15118553 177.62094116 343.73609924 C177.78305479 353.54798061 177.78305479 353.54798061 182.5 361.875 C186.57026289 365.33472345 189.31892657 365.28233741 194.5234375 365.21484375 C197.77054159 364.93315491 199.55182123 364.15142982 202 362 C205.48534277 357.26989196 206.10117319 352.69228233 206.20532227 346.93432617 C206.22526749 345.95368698 206.24521271 344.97304779 206.26576233 343.96269226 C206.28247482 342.9166835 206.29918732 341.87067474 206.31640625 340.79296875 C206.3475779 339.17217155 206.3475779 339.17217155 206.37937927 337.51863098 C206.44464036 334.07498389 206.50365075 330.63126205 206.5625 327.1875 C206.60570751 324.84960172 206.64932251 322.51171093 206.69335938 320.17382812 C206.80029772 314.44929722 206.90210727 308.72469235 207 303 C208.15392494 302.88596329 208.15392494 302.88596329 209.3311615 302.7696228 C235.25880266 300.18876934 257.7814813 295.86101896 279 280 C282.05775179 281.36584717 284.15881191 282.91088365 286.51812744 285.27761841 C287.19675842 285.95350006 287.8753894 286.62938171 288.57458496 287.32574463 C289.30826294 288.06661316 290.04194092 288.80748169 290.79785156 289.57080078 C291.57872131 290.35137848 292.35959106 291.13195618 293.16412354 291.93618774 C295.74439273 294.51785045 298.31750522 297.10652558 300.890625 299.6953125 C302.67809165 301.48650919 304.46600032 303.27726488 306.2543335 305.06759644 C310.47948631 309.29960572 314.7001546 313.53603758 318.91868377 317.77464569 C323.72246886 322.60079715 328.53194442 327.42126063 333.34190416 332.24125695 C343.23427667 342.15452608 353.11948887 352.07490966 363 362 C349.70868474 375.3062037 334.3595636 385.79224562 318 395 C317.29713867 395.39928711 316.59427734 395.79857422 315.87011719 396.20996094 C289.66070732 410.9678748 260.72094255 420.50034316 231 425 C229.88189941 425.17732666 228.76379883 425.35465332 227.61181641 425.53735352 C216.85045702 427.08166151 206.2105899 427.33979671 195.34814453 427.31567383 C192.39968385 427.31252635 189.45224303 427.33602578 186.50390625 427.36132812 C173.11394097 427.40594438 160.20233267 426.20425057 147 424 C145.86304688 423.81187744 144.72609375 423.62375488 143.5546875 423.42993164 C140.95889154 422.96369865 138.3873329 422.44496002 135.8125 421.875 C134.42357544 421.56804199 134.42357544 421.56804199 133.0065918 421.25488281 C89.80712636 411.20999509 49.98060905 389.86658436 17.71875 359.5078125 C15.79556514 357.73384026 13.88046422 356.05799361 11.859375 354.40625 C9.5649219 352.47539876 7.66260534 350.66006007 5.75 348.375 C3.80874108 346.08617944 1.85627576 343.84865787 -0.2109375 341.671875 C-12.83695998 328.35121697 -22.89764839 312.88055353 -32 297 C-32.64364502 295.87754883 -32.64364502 295.87754883 -33.30029297 294.73242188 C-45.99673715 272.29130054 -54.37727501 247.97369762 -59.75 222.8125 C-59.94883789 221.88767822 -60.14767578 220.96285645 -60.35253906 220.01000977 C-63.61958772 203.9255391 -64.40830603 188.0596011 -64.375 171.6875 C-64.37445618 170.67798279 -64.37391235 169.66846558 -64.37335205 168.62835693 C-64.33258601 152.11876461 -63.42529309 136.20217999 -60 120 C-59.78037598 118.95811523 -59.56075195 117.91623047 -59.33447266 116.84277344 C-49.68892062 72.62204726 -29.00030626 34.43786368 0 0 Z " fill="#E7DD71" transform="translate(64,85)"/>
<path d="M0 0 C0.97485352 0.19867676 1.94970703 0.39735352 2.95410156 0.60205078 C50.99902273 10.65218706 95.19347595 32.24879574 130.49975586 66.59692383 C132.56359956 68.52709628 134.79256034 70.23782168 137 72 C138.09809154 73.15466769 139.1624861 74.34249631 140.1875 75.5625 C142.1512211 77.87251171 144.12644722 80.13313755 146.21484375 82.33203125 C181.54834533 119.61259775 202.52449109 170.50781937 209 221 C209.13038162 222.00386749 209.13038162 222.00386749 209.26339722 223.02801514 C209.94785735 228.68165419 210.18875037 234.26499557 210.23828125 239.95703125 C210.2480751 240.88975357 210.25786896 241.82247589 210.26795959 242.78346252 C210.4405989 263.50093104 210.30428596 283.6400442 206 304 C205.78037598 305.04188477 205.56075195 306.08376953 205.33447266 307.15722656 C195.67973123 351.42008217 174.92522087 389.52347412 146 424 C140.72120513 419.58936273 135.80371109 414.94167559 130.95336914 410.06689453 C130.18181488 409.2954863 129.41026062 408.52407806 128.61532593 407.72929382 C126.08622282 405.19949856 123.56067225 402.66618838 121.03515625 400.1328125 C119.2741802 398.36996979 117.51298205 396.60734891 115.75157166 394.84494019 C111.13147933 390.22104219 106.51439888 385.59414819 101.89794922 380.96661377 C97.18080732 376.23867011 92.46026249 371.51412441 87.74023438 366.7890625 C78.49069965 357.52882486 69.24424835 348.26551475 60 339 C60.20407282 338.42525468 60.40814564 337.85050936 60.61840248 337.25834751 C61.5498525 334.63027694 62.47734839 332.00082727 63.40478516 329.37133789 C63.7258876 328.46721413 64.04699005 327.56309036 64.37782288 326.63156891 C66.49073061 320.62948397 68.2941317 314.71851553 69.375 308.4375 C69.5287207 307.60508789 69.68244141 306.77267578 69.84082031 305.91503906 C72.24069553 292.54579958 75.7274773 272.11727765 69.25 259.625 C65.14346486 254.83404233 60.96932034 253.65153529 55 252 C55.51949219 251.01902344 56.03898437 250.03804687 56.57421875 249.02734375 C68.88472181 225.38171962 77.0071792 194.73194742 71 168 C68.74096731 163.56261436 66.52276869 161.0959172 62 159 C45.20022043 154.93824314 25.78197752 158.17497773 9 161 C9.02094727 160.30140869 9.04189453 159.60281738 9.06347656 158.88305664 C9.80972331 130.12658001 4.28100427 107.73609422 -14 85 C-14.4734082 84.40848145 -14.94681641 83.81696289 -15.43457031 83.20751953 C-27.16983627 67.53232639 -27.16983627 67.53232639 -43.3671875 58.6640625 C-44.19476563 58.65117188 -45.02234375 58.63828125 -45.875 58.625 C-47.10863281 58.58246094 -47.10863281 58.58246094 -48.3671875 58.5390625 C-62.01684582 60.92876529 -74.69902577 80.10436035 -82.234375 90.74267578 C-97.92864789 113.3095625 -101.81991136 133.65595614 -101 161 C-101.85722656 160.86722656 -102.71445313 160.73445312 -103.59765625 160.59765625 C-104.74105469 160.42105469 -105.88445312 160.24445313 -107.0625 160.0625 C-108.18785156 159.88847656 -109.31320313 159.71445313 -110.47265625 159.53515625 C-113.91953428 158.91734171 -113.91953428 158.91734171 -117.12001038 159.02442932 C-122.96514858 158.15648781 -126.67807683 153.10021801 -130.60717773 149.07397461 C-131.55272136 148.12673721 -132.4995908 147.18082168 -133.44767761 146.23612976 C-136.01037538 143.67515004 -138.55418106 141.09612492 -141.09495044 138.51341319 C-143.75605792 135.81474011 -146.43422275 133.13310391 -149.11061096 130.44960022 C-154.1728218 125.36875771 -159.21954669 120.27281832 -164.26086241 115.17125183 C-170.00234985 109.36264717 -175.76093027 103.57111669 -181.52099693 97.78094471 C-193.36643017 85.87283444 -205.19025517 73.943507 -217 62 C-185.05833542 30.02255555 -140.85004312 10.02610791 -97 1 C-95.99888184 0.78972168 -94.99776367 0.57944336 -93.96630859 0.36279297 C-64.30132843 -5.57772866 -29.66817363 -6.21390238 0 0 Z " fill="#E7DD71" transform="translate(302,3)"/>
<path d="M0 0 C-0.54855149 15.45401965 -2.05090486 29.90326415 -9 44 C-9.43054688 44.87398437 -9.86109375 45.74796875 -10.3046875 46.6484375 C-17.55265329 59.95684927 -29.64226305 66.87339524 -43.75 71.25 C-54.00901639 73.97967177 -64.39223672 75.14112324 -75 75 C-75.85004404 55.13415585 -72.3589855 35.08467753 -58.96875 19.66015625 C-43.66520195 3.46749361 -21.55894628 -0.71073449 0 0 Z " fill="#E7DD71" transform="translate(346,189)"/>
<path d="M0 0 C21.69944448 -0.7153663 41.96713405 3.64876392 58.25 18.5625 C72.73119794 33.77925085 75.25333066 54.9587304 75 75 C53.58231363 74.49900149 31.5677356 71.11668056 15.875 55.0625 C3.28555333 40.16121881 -0.32308946 18.98771929 0 0 Z " fill="#E7DD71" transform="translate(166,189)"/>
<path d="M0 0 C18.41329238 -0.86462416 38.12435082 2.51920852 53 14 C54.03125 14.7425 55.0625 15.485 56.125 16.25 C69.184052 28.74126713 74.59240013 47.68780669 75.24609375 65.3984375 C75.24935213 68.61120443 75.19111667 71.79348703 75 75 C54.46854188 74.51973197 32.35157261 71.47177161 16.953125 56.3671875 C3.93676793 40.59136273 -0.2864999 20.02894777 0 0 Z " fill="#E7DD71" transform="translate(166,284)"/>
<path d="M0 0 C11.79863813 5.10492952 19.99958811 22.09585593 25.02734375 33.3046875 C30.41067203 48.22234417 29.05094628 62.90667501 22.52734375 77.234375 C17.27438166 87.61611567 10.35804011 96.90965513 2 105 C-10.3192024 99.8115071 -17.78243874 83.18827285 -22.9921875 71.73046875 C-28.48439081 56.85042955 -26.99668104 42.12033089 -20.5625 27.80078125 C-15.41303405 17.53898492 -8.30161574 7.95166473 0 0 Z " fill="#E7DD71" transform="translate(255,95)"/>
<path d="M0 0 C-0.45637573 19.51006251 -3.01604024 41.71434069 -17.3125 56.5546875 C-33.82045061 70.69344149 -53.68133298 75.28647705 -75 75 C-76.13345613 55.98312487 -72.13077021 35.9155699 -60.35546875 20.60546875 C-44.7418349 3.33466646 -22.12513037 -0.303546 0 0 Z " fill="#E7DD71" transform="translate(346,284)"/>
</svg>
