<?xml version="1.0" encoding="UTF-8"?>
<svg version="1.1" xmlns="http://www.w3.org/2000/svg" width="512" height="512">
<path d="M0 0 C13.36689244 11.43744517 17.77673164 24.05265596 19.5 41.05859375 C20.12753174 41.22875 20.75506348 41.39890625 21.40161133 41.57421875 C55.51129105 50.91950672 85.90817177 65.53505339 112.5 89.05859375 C113.77230469 90.14720703 113.77230469 90.14720703 115.0703125 91.2578125 C142.58505953 115.18944938 161.88093507 146.8457904 173.5 181.18359375 C173.88631592 182.3219165 174.27263184 183.46023926 174.6706543 184.63305664 C175.02683838 185.72481201 175.38302246 186.81656738 175.75 187.94140625 C176.06453125 188.90449707 176.3790625 189.86758789 176.703125 190.85986328 C177.69668054 194.84808777 178.04611317 198.97361224 178.5 203.05859375 C42.54 203.05859375 -93.42 203.05859375 -233.5 203.05859375 C-232.61708481 195.11235707 -231.13734997 188.884564 -228.625 181.43359375 C-228.22643799 180.25152344 -227.82787598 179.06945312 -227.41723633 177.8515625 C-218.52235204 152.22275868 -205.26530977 129.50524803 -187.5 109.05859375 C-187.0270752 108.51122559 -186.55415039 107.96385742 -186.06689453 107.39990234 C-156.97836303 73.99507472 -117.50768815 51.26466851 -74.5 41.05859375 C-74.37044922 39.64320313 -74.37044922 39.64320313 -74.23828125 38.19921875 C-72.50422357 22.35406783 -67.20400864 10.35784484 -54.91796875 -0.1171875 C-39.01657212 -12.1138793 -15.8549586 -12.31236629 0 0 Z " fill="#61A67C" transform="translate(283.5,188.94140625)"/>
<path d="M0 0 C168.96 0 337.92 0 512 0 C512 10.23 512 20.46 512 31 C500.12 31 488.24 31 476 31 C475.34 32.98 474.68 34.96 474 37 C465.09 54.82 456.18 72.64 447 91 C320.94 91 194.88 91 65 91 C36 33 36 33 36 31 C24.12 31 12.24 31 0 31 C0 20.77 0 10.54 0 0 Z " fill="#60A57D" transform="translate(0,421)"/>
<path d="M0 0 C10.56 0 21.12 0 32 0 C30.66956642 17.29563657 26.70305302 28.99766141 16.875 43.03515625 C11.9594777 50.80782589 11.78103138 60.07339903 13 69 C15.10494065 75.50209426 18.91587285 80.88264871 22.625 86.5625 C29.4161205 97.04151376 32 108.56895368 32 121 C21.44 121 10.88 121 0 121 C-0.66 117.04 -1.32 113.08 -2 109 C-3.58784868 105.27306639 -3.58784868 105.27306639 -5.6875 102.125 C-6.40543823 100.94980152 -7.1201968 99.77265563 -7.83203125 98.59375 C-8.19248535 98.00464844 -8.55293945 97.41554688 -8.92431641 96.80859375 C-10.70564183 93.8135736 -12.30224703 90.73341072 -13.875 87.625 C-14.70644531 86.00464844 -14.70644531 86.00464844 -15.5546875 84.3515625 C-21.92508342 69.57913088 -21.20242307 51.78369411 -16.0625 36.8125 C-13.4524553 30.31883457 -9.79700444 24.53972369 -5.83422852 18.79418945 C-1.44629733 12.12140035 -1.47186891 8.83121346 0 0 Z " fill="#60A67C" transform="translate(250,0)"/>
<path d="M0 0 C10.23 0 20.46 0 31 0 C31 16.6665626 26.19041354 28.05127905 17.25 41.75 C11.67286655 50.49120254 10.79530775 59.13021696 12.359375 69.34765625 C13.94171722 75.06760956 17.33138042 79.74418184 20.58398438 84.62768555 C28.21089998 96.21941141 31 107.22825282 31 121 C20.77 121 10.54 121 0 121 C-0.99 116.71 -1.98 112.42 -3 108 C-4.88778444 104.45011561 -6.72941204 101.25415603 -8.9375 97.9375 C-13.46383731 90.79075814 -17.09945744 84.3165586 -19 76 C-19.2784375 74.91138672 -19.2784375 74.91138672 -19.5625 73.80078125 C-22.74245145 53.44341349 -18.0961644 35.54883177 -6.4765625 18.8046875 C-2.0317199 12.36640034 -2.03817168 8.83207728 0 0 Z " fill="#60A67C" transform="translate(346,60)"/>
<path d="M0 0 C10.23 0 20.46 0 31 0 C32.485 6.435 32.485 6.435 34 13 C35.88778444 16.54988439 37.72941204 19.74584397 39.9375 23.0625 C44.46383731 30.20924186 48.09945744 36.6834414 50 45 C50.2784375 46.08861328 50.2784375 46.08861328 50.5625 47.19921875 C53.74245145 67.55658651 49.0961644 85.45116823 37.4765625 102.1953125 C33.0317199 108.63359966 33.03817168 112.16792272 31 121 C20.77 121 10.54 121 0 121 C0 103.49677387 5.61940652 90.9531148 15.203125 76.73046875 C20.11082992 69.27289106 19.90270038 60.34065448 18.67578125 51.72265625 C16.99689774 45.51912215 13.13960696 40.29533823 9.70361328 34.94750977 C2.47926887 23.62368942 0 13.42936589 0 0 Z " fill="#60A67C" transform="translate(135,60)"/>
</svg>
