<?xml version="1.0" encoding="UTF-8"?>
<svg version="1.1" xmlns="http://www.w3.org/2000/svg" width="512" height="512">
<path d="M0 0 C1.10868439 -0.02305206 2.21736877 -0.04610413 3.35964966 -0.06985474 C4.57163528 -0.08982513 5.78362091 -0.10979553 7.03233337 -0.13037109 C8.31247314 -0.15461151 9.59261292 -0.17885193 10.9115448 -0.2038269 C22.7151685 -0.42025607 34.52039216 -0.54163203 46.32553959 -0.63812256 C54.2549697 -0.70438758 62.18195119 -0.79895715 70.10997009 -0.96533203 C77.03675564 -1.11068441 83.96184231 -1.20262092 90.89013284 -1.23080635 C94.55272758 -1.24742681 98.21078671 -1.289499 101.87198067 -1.39532471 C124.04257917 -2.00983216 124.04257917 -2.00983216 129.81893539 1.67092896 C133.39845966 5.05969965 135.67401344 8.88983548 137.67376518 13.36044312 C138.98797619 16.1711277 140.7606539 18.62860282 142.54380798 21.15869141 C143.17287048 22.11259766 143.80193298 23.06650391 144.45005798 24.04931641 C157.18173036 43.33684993 168.08148898 58.60288592 191.54380798 65.22119141 C208.670893 68.64660841 225.04926502 64.60355116 239.54380798 55.22119141 C246.72409256 50.34211887 251.3115195 43.38962253 256.11949158 36.31640625 C257.64269513 34.07572526 259.1802221 31.84532663 260.71958923 29.61572266 C261.26421814 28.82302979 261.80884705 28.03033691 262.36997986 27.21362305 C263.4864471 25.59282397 264.60886422 23.97610742 265.73716736 22.36352539 C268.37675104 18.55735378 270.83524063 14.79251318 272.96177673 10.67431641 C278.06767489 1.1088502 278.06767489 1.1088502 282.5174408 -0.48632812 C293.51177888 -2.4445261 304.78237595 1.04836276 314.09458923 6.79541016 C323.39738463 13.50280382 330.06689649 22.97140201 332.54380798 34.22119141 C333.90733624 49.810551 331.73283263 61.9293255 321.54380798 74.22119141 C314.94780276 81.48329568 304.84013822 86.85172708 295.00019068 87.34999257 C294.09118983 87.35178114 293.18218899 87.35356971 292.24564266 87.35541248 C291.19110234 87.35987033 290.13656202 87.36432817 289.05006593 87.3689211 C287.89774919 87.36873674 286.74543245 87.36855238 285.55819702 87.36836243 C283.7146398 87.37387746 283.7146398 87.37387746 281.833839 87.37950391 C278.42501435 87.38861445 275.01623778 87.39323685 271.60740554 87.39589322 C267.9296487 87.39980334 264.2519057 87.40938118 260.57415771 87.41810608 C251.69364826 87.43785052 242.8131377 87.44793415 233.93261179 87.45683387 C229.74764643 87.46122009 225.56268234 87.46658603 221.37771797 87.47182274 C207.46086992 87.48883302 193.54402264 87.50332637 179.62716579 87.51057148 C176.01726722 87.51248128 172.40736865 87.51440163 168.79747009 87.51635742 C167.90027966 87.51684116 167.00308924 87.5173249 166.07871122 87.5178233 C151.55034494 87.52612061 137.02206108 87.55145336 122.49373078 87.5839381 C107.5683091 87.61703788 92.64292927 87.63502288 77.71747071 87.63821572 C69.34123215 87.64037812 60.96511378 87.6490871 52.58891106 87.6746769 C45.4542279 87.69642382 38.31969412 87.70441475 31.18498158 87.69471011 C27.54798981 87.69017691 23.91130602 87.69199388 20.27435684 87.71147156 C16.32221308 87.73245345 12.37048939 87.7220809 8.41830444 87.7089386 C7.28160275 87.71990784 6.14490106 87.73087709 4.97375387 87.74217874 C-8.06718501 87.63786902 -18.56245172 83.40697293 -28.19837952 74.63525391 C-37.93835751 64.28968142 -39.94673005 52.52818995 -39.72962952 39.00244141 C-39.28139746 27.62356026 -33.50331248 17.70370086 -25.26869202 9.97119141 C-17.96080983 4.14149448 -9.3480738 0.18020601 0 0 Z " fill="#7996CD" transform="translate(109.45619201660156,360.77880859375)"/>
<path d="M0 0 C8.54847994 4.69587679 15.81880664 12.08141991 18.9375 21.4375 C19.5975 20.550625 20.2575 19.66375 20.9375 18.75 C25.42369571 13.37419042 31.23771364 10.26839688 37.9375 8.4375 C49.36402514 7.40959083 59.07155521 8.24597797 68.25 15.6875 C75.92597805 22.94478834 78.95988613 30.72845714 79.3125 41.25 C79.24330244 47.71997152 77.89160134 52.71392864 74.9375 58.4375 C76.030625 58.355 77.12375 58.2725 78.25 58.1875 C87.07743197 58.21874755 95.71483987 62.26930516 101.9375 68.4375 C109.71395963 78.08446662 110.88355491 87.42619529 109.9375 99.4375 C108.34040241 106.19886525 104.14989111 111.92337261 98.9375 116.4375 C87.22921289 123.60838101 73.34508953 124.42937778 59.9453125 121.7890625 C52.61481273 119.73230357 46.77710855 116.27277871 40.9375 111.4375 C40.31359375 110.94894531 39.6896875 110.46039063 39.046875 109.95703125 C32.81960862 104.50116048 29.55334137 96.73492531 25.9375 89.4375 C25.37804687 90.07816406 24.81859375 90.71882813 24.2421875 91.37890625 C15.34720675 100.97461699 4.28758624 107.7059494 -9.046875 108.6484375 C-22.64434756 109.06338385 -35.21379178 105.15294044 -45.4921875 96.0625 C-47.50977032 93.9746531 -49.27731201 91.72501361 -51.0625 89.4375 C-51.53558594 90.41589844 -52.00867188 91.39429687 -52.49609375 92.40234375 C-59.15824414 105.77101337 -67.36063417 115.36580949 -81.625 120.75 C-93.29701772 124.09461327 -109.64416524 124.99816191 -120.83984375 119.828125 C-129.00225889 114.72123609 -134.11998638 109.10916981 -136.80859375 99.875 C-138.86096313 90.90066432 -137.77537251 82.33535337 -133.234375 74.2734375 C-128.01656555 66.09886936 -121.29931016 61.71077308 -111.9609375 58.77734375 C-109.87154183 58.40331613 -107.9336365 58.33964772 -105.8125 58.375 C-103.95625 58.4059375 -103.95625 58.4059375 -102.0625 58.4375 C-102.35125 57.87804688 -102.64 57.31859375 -102.9375 56.7421875 C-107.15883401 47.62527864 -107.57678344 38.23302847 -104.5625 28.625 C-100.83179116 19.76782761 -94.93609644 14.23435365 -86.26171875 10.3125 C-78.59658467 7.26278413 -67.81137347 6.78622192 -60.0625 10.0625 C-54.68227038 12.96431291 -49.47535062 16.31822407 -46.0625 21.4375 C-45.794375 20.8084375 -45.52625 20.179375 -45.25 19.53125 C-40.8747152 9.97470687 -34.95331694 3.31926186 -25.0625 -0.5625 C-17.89455734 -2.95181422 -7.06312827 -2.90469598 0 0 Z " fill="#7996CD" transform="translate(402.0625,1.5625)"/>
<path d="M0 0 C2.38671875 0.75 2.38671875 0.75 4.88671875 1.7890625 C21.52733442 8.58398057 41.60781532 7.56787236 58.01171875 0.75 C60.3984375 0 60.3984375 0 62.69921875 -0.0625 C65.41627585 1.50881013 67.50838057 3.41833541 69.82421875 5.53515625 C87.8483163 20.59605298 110.45746084 20.54699168 132.69921875 19.9375 C133.46197039 37.69998617 129.69365572 53.08720785 121.69921875 68.9375 C121.17585937 69.98421875 120.6525 71.0309375 120.11328125 72.109375 C106.98184248 96.32246697 83.81018776 113.03917818 57.8359375 121.1953125 C32.01791455 128.46851327 4.36074318 124.87170057 -19.30078125 112.9375 C-20.87085938 112.15246094 -20.87085938 112.15246094 -22.47265625 111.3515625 C-45.71216231 98.74812667 -63.33484397 76.02475787 -70.94238281 50.81103516 C-71.56750405 48.54980025 -72.13469433 46.28274102 -72.67578125 44 C-72.84368164 43.32163086 -73.01158203 42.64326172 -73.18457031 41.94433594 C-74.75167899 34.67741945 -74.44333905 27.33040139 -74.30078125 19.9375 C-73.47578125 19.95844727 -72.65078125 19.97939453 -71.80078125 20.00097656 C-48.33008336 20.51832733 -25.29078519 20.03676142 -6.92578125 3.25 C-3.00209902 -0.08155108 -3.00209902 -0.08155108 0 0 Z M41.69921875 38.9375 C39.82548329 40.8212823 38.32231996 42.81845119 36.69921875 44.9375 C33.16990661 47.29037476 31.24971029 47.52821415 27.10546875 47.4609375 C23.31982205 46.63743643 21.24956916 44.34247585 18.53125 41.69921875 C15.6251782 38.90468062 12.87424766 37.0383582 8.76171875 36.84765625 C3.85231473 37.21028268 0.48244658 38.68216443 -3.30078125 41.9375 C-5.86696093 45.7012302 -6.98497403 49.19445152 -6.765625 53.80078125 C-4.90962311 62.33215127 2.71669315 68.43493983 9.69921875 72.9375 C18.91660436 77.99495269 29.73781483 78.45604154 39.88671875 76.2421875 C49.90093745 72.93193187 58.51583289 66.09108982 63.87109375 56.93359375 C65.49844887 53.01105381 65.3529308 48.98552194 64.08203125 45.00390625 C61.92216629 40.5599363 59.11356496 38.62700927 54.69921875 36.56640625 C49.91833015 35.06304089 45.81341863 36.4319985 41.69921875 38.9375 Z " fill="#7996CD" transform="translate(359.30078125,132.0625)"/>
<path d="M0 0 C2.05885197 0.00238959 4.11770615 0.00328866 6.17655945 0.0027771 C10.45695965 0.00588175 14.73701932 0.02228112 19.01733398 0.04931641 C24.51083228 0.08357385 30.00396306 0.09093581 35.49755573 0.08942604 C39.73277814 0.08996834 43.96791982 0.10090832 48.20311546 0.11542892 C50.23057636 0.12179772 52.25804638 0.12573601 54.28551674 0.12721634 C57.1023708 0.13153264 59.91882668 0.148989 62.7355957 0.17041016 C63.57445816 0.16950378 64.41332062 0.16859741 65.27760315 0.16766357 C71.03273483 0.23195358 71.03273483 0.23195358 73.26171875 2.4609375 C73.47451327 5.42984661 73.56566608 8.30284832 73.5625 11.2734375 C73.56678513 12.15692871 73.57107025 13.04041992 73.57548523 13.95068359 C73.58123813 15.82697697 73.58172175 17.70329265 73.57739258 19.57958984 C73.5742617 22.42195002 73.5975771 25.26323961 73.62304688 28.10546875 C73.62532298 29.93229036 73.62602192 31.75911475 73.625 33.5859375 C73.63420975 34.42487549 73.64341949 35.26381348 73.65290833 36.12817383 C73.56319614 47.84689156 69.25203425 57.86164801 61.37890625 66.53515625 C51.69267018 75.57433606 40.38015092 78.7609234 27.42578125 78.69921875 C25.53775321 78.71463642 23.64973224 78.7309399 21.76171875 78.74804688 C18.82373286 78.76447253 15.88627013 78.77343642 12.94824219 78.76635742 C-3.44899498 78.3570347 -3.44899498 78.3570347 -17.40820312 86.01367188 C-21.31098861 90.26031512 -21.59785868 95.54194748 -22.29296875 101.05859375 C-24.2471636 115.98932812 -29.82846679 127.90966775 -41.73828125 137.4609375 C-51.72835011 143.67898294 -60.95365665 145.80832413 -72.55078125 145.7109375 C-73.96133789 145.72253906 -73.96133789 145.72253906 -75.40039062 145.734375 C-76.75293945 145.73050781 -76.75293945 145.73050781 -78.1328125 145.7265625 C-78.94596924 145.72430664 -79.75912598 145.72205078 -80.59692383 145.71972656 C-82.73828125 145.4609375 -82.73828125 145.4609375 -85.73828125 143.4609375 C-86.04637086 140.96659638 -86.15821794 138.7179623 -86.14233398 136.2199707 C-86.14919724 135.47324097 -86.15606049 134.72651123 -86.16313171 133.95715332 C-86.18150479 131.47515069 -86.17754138 128.99377521 -86.171875 126.51171875 C-86.17643777 124.77931005 -86.18174363 123.04690316 -86.1877594 121.3144989 C-86.19671547 117.67012221 -86.19424615 114.02596421 -86.18432617 110.3815918 C-86.17294026 105.7508514 -86.19287341 101.1208854 -86.22224331 96.49024677 C-86.24077423 92.90298277 -86.24027781 89.31589761 -86.23460579 85.72859764 C-86.23445405 84.0244661 -86.24037446 82.32032126 -86.25289726 80.61623573 C-86.34037612 66.73722047 -84.70303474 53.85567739 -78.17578125 41.3359375 C-77.83772461 40.67907959 -77.49966797 40.02222168 -77.15136719 39.34545898 C-67.24034673 20.94784948 -50.21101726 8.41884766 -30.34033203 2.3894043 C-20.33999907 -0.37673848 -10.2975417 -0.0795955 0 0 Z " fill="#7996CD" transform="translate(85.73828125,-0.4609375)"/>
<path d="M0 0 C11.55 0 23.1 0 35 0 C36.2684375 4.7953125 36.2684375 4.7953125 37.5625 9.6875 C43.41070956 30.54440315 54.4954543 45.82191326 73.20703125 56.8984375 C88.77710462 65.33296867 104.5454099 66.65875679 122 67 C117.42457687 81.47417509 110.93272697 93.4153037 101 105 C100.52175781 105.61101562 100.04351562 106.22203125 99.55078125 106.8515625 C95.11385241 112.41997176 89.60785875 116.6624297 84 121 C83.25234375 121.598125 82.5046875 122.19625 81.734375 122.8125 C59.54460144 139.5712101 30.29941852 145.75753847 3.02270508 142.22827148 C-21.96624682 138.54646582 -42.84516643 127.56250621 -61 110 C-61.73863281 109.28714844 -62.47726563 108.57429688 -63.23828125 107.83984375 C-72.26485301 98.49261224 -86 80.66316733 -86 67 C-85.44763672 66.9906543 -84.89527344 66.98130859 -84.32617188 66.97167969 C-58.94619065 66.4354829 -38.399905 60.99281516 -19.796875 42.8515625 C-8.32139083 30.71908496 -3.22268187 16.11340935 0 0 Z M28.65625 74.46484375 C28.2334375 74.99207031 27.810625 75.51929688 27.375 76.0625 C25.11701169 78.85527501 24.21206264 79.75776583 21 81 C16.88210498 81.43386325 13.31067633 81.02396588 10 78.4375 C8.8288182 77.22593262 7.6934643 75.97819605 6.60546875 74.69140625 C3.69039695 71.62029654 1.38724127 71.0380893 -2.8125 70.625 C-7.51815676 70.75668816 -10.20328375 72.24551958 -14 75 C-17.02653463 78.73272604 -17.83531697 82.22419199 -18 87 C-15.36424248 96.06041647 -8.76500684 102.24582195 -0.671875 106.74609375 C10.75833714 112.11027225 21.09656619 112.24447304 32.95703125 108.25390625 C41.29331598 104.81880047 49.26037718 97.61796071 53.234375 89.46875 C54.80625265 84.40024655 53.62975496 80.23618567 51.3125 75.6875 C47.80432035 71.61042635 44.83018814 70.19609159 39.5 69.625 C35.06469631 70.10021111 31.74783658 71.09465489 28.65625 74.46484375 Z " fill="#7996CD" transform="translate(91,107)"/>
<path d="M0 0 C1.78918601 -0.00271792 3.57837089 -0.0062833 5.36755371 -0.01062012 C10.17747298 -0.01965125 14.98730538 -0.01623861 19.79722595 -0.00986195 C24.86123873 -0.00475343 29.9252447 -0.00950675 34.98925781 -0.01263428 C43.4889457 -0.01625991 51.98859868 -0.01151183 60.48828125 -0.00195312 C70.27674278 0.00892869 80.06512096 0.00540212 89.85358047 -0.00560594 C98.29910107 -0.01471897 106.74459676 -0.01594454 115.1901207 -0.0107286 C120.21615716 -0.00763089 125.24215461 -0.0071384 130.26818848 -0.01380157 C134.99615833 -0.01963321 139.72402205 -0.01547321 144.45198059 -0.00401306 C146.17393316 -0.00139728 147.89589485 -0.00207787 149.61784363 -0.00653839 C175.01245902 -0.06619119 195.80743764 3.59477428 215.03125 21.63769531 C219.72380067 26.52698336 227.546875 34.97761211 227.546875 42.25878906 C125.906875 42.25878906 24.266875 42.25878906 -80.453125 42.25878906 C-75.531594 27.49419607 -63.99735592 15.68920361 -50.453125 8.25878906 C-34.47805572 0.31668507 -17.47401892 -0.04526455 0 0 Z " fill="#7996CD" transform="translate(182.453125,289.7412109375)"/>
<path d="M0 0 C99.66 0 199.32 0 302 0 C296.8697974 12.82550651 285.26312015 22.98733444 273 29 C263.72902574 32.75302021 255.67884891 35.14954402 245.67237854 35.14717102 C244.83677255 35.15084771 244.00116656 35.1545244 243.14023918 35.1583125 C240.34161478 35.16932096 237.54302755 35.17318841 234.74438477 35.17700195 C232.73683047 35.18326891 230.72927734 35.18991591 228.72172546 35.19691467 C222.12829391 35.21793555 215.53486218 35.22831744 208.94140625 35.23828125 C206.66802394 35.24232999 204.39464175 35.24644695 202.12125969 35.25063133 C191.43612344 35.26968121 180.75099408 35.28391086 170.06584412 35.2922433 C157.75179263 35.30200556 145.43792139 35.32829962 133.12393337 35.36874419 C123.59417942 35.39896427 114.06447694 35.41371789 104.53467602 35.41702431 C98.84895414 35.41936868 93.16342485 35.42824885 87.47775459 35.45348549 C82.12198907 35.47687338 76.76654147 35.48095648 71.41073799 35.47072411 C69.45412128 35.47023118 67.49748835 35.47647903 65.54092026 35.49028015 C44.3269797 35.63144128 26.95331277 30.82097985 11 16 C0 4.77509294 0 4.77509294 0 0 Z " fill="#7996CC" transform="translate(105,477)"/>
<path d="M0 0 C12.48544862 5.97165544 21.21536763 21.21242318 25.91854858 33.79093933 C29.84419231 45.43975564 30.45154579 56.52114864 30.3984375 68.66796875 C30.40046391 70.32229236 30.40338003 71.97661508 30.40713501 73.63093567 C30.41151816 77.06565009 30.40524927 80.50012786 30.39111328 83.93481445 C30.373874 88.33760331 30.38397977 92.73984932 30.40183067 97.14261913 C30.41265126 100.54407378 30.40923273 103.9453986 30.4014473 107.34685707 C30.39944817 108.9715818 30.40189448 110.59631836 30.40888596 112.22102928 C30.41648849 114.47994944 30.40492106 116.73797305 30.38818359 118.99682617 C30.38579681 120.28030441 30.38341003 121.56378265 30.38095093 122.88615417 C30 126 30 126 28.6065979 127.91343689 C26.47737005 129.35346145 25.06100945 129.38752411 22.5 129.3984375 C21.17681763 129.40762207 21.17681763 129.40762207 19.8269043 129.41699219 C18.42758667 129.39620605 18.42758667 129.39620605 17 129.375 C16.04971924 129.36629883 15.09943848 129.35759766 14.12036133 129.34863281 C7.37426692 129.20766792 1.29709932 128.56796604 -5 126 C-5.68578125 125.74476563 -6.3715625 125.48953125 -7.078125 125.2265625 C-18.18980156 120.45816587 -26.65818547 110.31873116 -31.09375 99.27734375 C-33.09213771 92.84734627 -34.63900044 85.63223432 -33 79 C-30.43070392 75.9909145 -27.29886911 74.13758497 -24 72 C-10.31674971 60.37174334 -2.23311869 42.97896667 -0.66748047 25.23046875 C-0.48804581 21.38166857 -0.38069989 17.53981943 -0.3125 13.6875 C-0.27921029 12.34957858 -0.24471063 11.0116867 -0.20898438 9.67382812 C-0.1274982 6.44930362 -0.05803043 3.22501715 0 0 Z " fill="#7996CD" transform="translate(188,16)"/>
<path d="M0 0 C27.72 0 55.44 0 84 0 C75.49895397 13.35878661 75.49895397 13.35878661 71 19.8125 C70.51789063 20.52341797 70.03578125 21.23433594 69.5390625 21.96679688 C63.5766419 30.50820098 57.22088806 35.48365412 47 38 C38.68432525 39.25182201 31.1073094 37.05465743 23.94921875 32.7734375 C16.36434361 26.90026296 11.30005383 17.86271722 6 10 C5.30648438 8.98679687 4.61296875 7.97359375 3.8984375 6.9296875 C0 1.18364929 0 1.18364929 0 0 Z " fill="#7996CD" transform="translate(272,361)"/>
</svg>
