<?xml version="1.0" encoding="UTF-8"?>
<svg version="1.1" xmlns="http://www.w3.org/2000/svg" width="512" height="512">
<path d="M0 0 C3.30205221 2.56077518 4.70657295 4.00535851 5.31225586 8.12263489 C5.41557748 17.37466356 3.4111971 26.13579601 1.5 35.13671875 C1.14032509 36.8695793 0.7816171 38.6026408 0.42382812 40.33589172 C-0.51350345 44.86368885 -1.46381577 49.3886628 -2.41699219 53.91314697 C-3.39011983 58.54395905 -4.3507601 63.17735895 -5.3125 67.81054688 C-7.196221 76.87625241 -9.09368556 85.93902046 -11 95 C-9.221698 94.97643433 -9.221698 94.97643433 -7.4074707 94.95239258 C-2.999988 94.89800435 1.40746515 94.86361754 5.81518555 94.83520508 C7.72116081 94.82013872 9.62710152 94.79968176 11.53295898 94.77368164 C14.27596576 94.73720358 17.01851328 94.72025208 19.76171875 94.70703125 C21.03543587 94.68380547 21.03543587 94.68380547 22.33488464 94.66011047 C27.05380233 94.65877464 30.20502102 94.88559691 34 98 C38.05919477 102.31198585 37.32534131 106.44213558 37.19938731 112.08582163 C36.8724605 118.50373188 36.20550821 124.86516558 35.4569397 131.24530029 C35.28858048 132.73098395 35.12091186 134.216746 34.95386541 135.70257783 C34.4973171 139.74563405 34.03105417 143.78751697 33.56305552 147.82926154 C33.05831629 152.20351137 32.56274961 156.57880188 32.06599426 160.95396423 C31.09330623 169.5080488 30.11223038 178.06115108 29.12823774 186.61394182 C27.98169136 196.58229908 26.84339953 206.55159378 25.70539038 216.52092865 C23.67436682 234.31076283 21.63569492 252.09971217 19.59277344 269.88818359 C17.61196177 287.13588721 15.63685239 304.38423141 13.66796875 321.63330078 C13.48596473 323.22779966 13.48596473 323.22779966 13.30028386 324.85451064 C13.17915421 325.91570283 13.05802457 326.97689502 12.93322432 328.07024455 C10.68890463 347.73177157 8.43900367 367.39265656 6.18664981 387.05326472 C5.39128642 393.99711924 4.59761326 400.94116576 3.80449295 407.88527679 C2.83778727 416.34829034 1.86789352 424.81093177 0.89404131 433.27312604 C0.39753095 437.58804342 -0.09766468 441.90310035 -0.58919716 446.21858788 C-1.03961785 450.17271598 -1.49397777 454.12637126 -1.95142241 458.07969275 C-2.1157733 459.50592365 -2.27872215 460.932317 -2.44008581 462.35888895 C-4.84323564 483.58296366 -4.84323564 483.58296366 -8.5 488.0625 C-12.8222388 491.41223507 -16.25678017 491.14832489 -21.55218506 491.14717102 C-22.89597052 491.15268605 -22.89597052 491.15268605 -24.26690316 491.1583125 C-27.28699062 491.1693789 -30.30704371 491.17319817 -33.32714844 491.17700195 C-35.48516958 491.18326436 -37.64318963 491.18991096 -39.8012085 491.19691467 C-45.67733483 491.21434485 -51.55345301 491.22488187 -57.42959881 491.2331202 C-61.09845561 491.23826594 -64.76730985 491.24434185 -68.43616486 491.25063133 C-79.90831665 491.26968878 -91.38046198 491.2839189 -102.85262656 491.2922433 C-116.10802073 491.30201964 -129.36324808 491.32834734 -142.61858344 491.36874419 C-152.85557695 491.39887485 -163.09252256 491.41370927 -173.32955956 491.41702431 C-179.44766395 491.41937823 -185.56559023 491.42838315 -191.68364716 491.45348549 C-197.43905957 491.47671783 -203.19417601 491.48101883 -208.94962311 491.47072411 C-211.06278974 491.47022746 -213.1759707 491.47658557 -215.28909302 491.49028015 C-218.17304567 491.50792537 -221.05592768 491.50092904 -223.93988037 491.48774719 C-225.19563138 491.50420106 -225.19563138 491.50420106 -226.47675109 491.52098733 C-231.75833169 491.46266406 -234.86421422 490.58748167 -239 487 C-240.93671269 483.87159819 -241.4149697 481.05122485 -241.82838249 477.42060757 C-241.96226683 476.2777405 -242.09615116 475.13487344 -242.23409259 473.95737404 C-242.37339447 472.70110476 -242.51269634 471.44483548 -242.65621948 470.15049744 C-242.81118731 468.80248087 -242.96682409 467.45454106 -243.12307274 466.10667235 C-243.55094233 462.39871751 -243.96929393 458.68974085 -244.38612866 454.98053157 C-244.83738663 450.979947 -245.29742784 446.98037165 -245.75640869 442.98066711 C-246.55146827 436.04161154 -247.34093615 429.10193798 -248.12664413 422.16181755 C-249.26697445 412.08943632 -250.41575271 402.01803264 -251.56656291 391.94684405 C-253.43916429 375.55695374 -255.30496251 359.16629638 -257.16650391 342.77514648 C-258.96508721 326.93848344 -260.76675515 311.10217661 -262.57275391 295.26635742 C-262.68347268 294.2955149 -262.79419145 293.32467237 -262.90826534 292.32441037 C-263.46430092 287.44896462 -264.02040016 282.57352614 -264.57653213 277.69809139 C-265.66563349 268.15013096 -266.75431601 258.60212278 -267.84280396 249.05409241 C-267.94844611 248.12741849 -268.05408826 247.20074457 -268.1629317 246.24598963 C-270.73414046 223.69057808 -273.29991437 201.13454786 -275.86309479 178.57822262 C-276.02901803 177.11838118 -276.19501181 175.65854775 -276.36107792 174.19872255 C-276.7622142 170.6720542 -277.16234554 167.14527857 -277.56014037 163.61823165 C-278.30058189 157.06498195 -279.05380398 150.51378715 -279.84406271 143.96633367 C-280.22404139 140.81301542 -280.59806436 137.65900167 -280.97176732 134.50493432 C-281.14971757 133.01743208 -281.33053932 131.53026974 -281.51462482 130.0435143 C-284.56779652 105.37009331 -284.56779652 105.37009331 -281.99582779 99.84145838 C-279.92432422 97.22271045 -278.16290145 96.05430048 -275 95 C-273.62462713 94.91093398 -272.24532372 94.8762362 -270.8670702 94.87695217 C-270.02159872 94.87496112 -269.17612724 94.87297007 -268.30503541 94.87091869 C-266.91156539 94.87528795 -266.91156539 94.87528795 -265.48994446 94.87974548 C-264.50324506 94.87889106 -263.51654567 94.87803663 -262.4999463 94.87715632 C-259.17873831 94.87550327 -255.85758032 94.88102007 -252.53637695 94.88647461 C-250.16158042 94.88675654 -247.78678379 94.88659862 -245.4119873 94.8860321 C-239.62312242 94.88577428 -233.83427404 94.89011898 -228.04541294 94.89646976 C-221.31044373 94.90361191 -214.57547689 94.90511437 -207.84050443 94.90625793 C-195.82945715 94.90844735 -183.81841665 94.91510445 -171.80737305 94.92456055 C-160.1387536 94.93373751 -148.470136 94.94081696 -136.80151367 94.94506836 C-136.08243591 94.94533108 -135.36335814 94.94559381 -134.62249015 94.94586449 C-131.01514089 94.94716951 -127.40779162 94.94843323 -123.80044234 94.94967639 C-93.8669568 94.96004557 -63.93347919 94.97773515 -34 95 C-33.93594241 94.32596233 -33.87188482 93.65192465 -33.80588609 92.9574616 C-33.71939685 92.06654341 -33.63290762 91.17562521 -33.54379749 90.2577095 C-33.4591149 89.37742183 -33.37443231 88.49713416 -33.28718358 87.5901711 C-32.88334991 83.94790751 -32.21422902 80.38791658 -31.48120117 76.79980469 C-31.33142319 76.04720367 -31.1816452 75.29460266 -31.02732849 74.51919556 C-30.53793984 72.06896801 -30.04109423 69.62034029 -29.54296875 67.171875 C-29.19520723 65.45177185 -28.8474959 63.73165856 -28.49983215 62.01153564 C-27.77309889 58.42358102 -27.04194692 54.83655705 -26.30834961 51.25 C-25.37126086 46.66398617 -24.45121227 42.07472845 -23.53513622 37.484478 C-22.82432628 33.9378067 -22.10155241 30.39365041 -21.37548256 26.85007477 C-21.03104889 25.15895052 -20.69099079 23.46692872 -20.35548973 21.7740097 C-19.88523595 19.40744055 -19.39818758 17.04491371 -18.90698242 14.68261719 C-18.77332275 13.99054169 -18.63966309 13.29846619 -18.50195312 12.5854187 C-17.39203766 7.38238517 -15.50640417 2.74703815 -11.02734375 -0.375 C-7.22214073 -1.54808764 -3.78265242 -1.11729591 0 0 Z M-260 117 C-257.0998451 144.89075534 -257.0998451 144.89075534 -254.04418945 172.76538086 C-253.88225921 174.19613438 -253.72261336 175.62714747 -253.56469727 177.05834961 C-253.32468922 179.23340785 -253.07912226 181.40776778 -252.83203125 183.58203125 C-252.69514893 184.80124268 -252.5582666 186.0204541 -252.41723633 187.27661133 C-252.28900501 189.90828459 -252.28900501 189.90828459 -251 191 C-248.45803811 191.09775474 -245.94327039 191.12995277 -243.40086365 191.12025452 C-242.19289229 191.12153615 -242.19289229 191.12153615 -240.96051747 191.12284368 C-238.24115297 191.12450095 -235.52184912 191.11897311 -232.80249023 191.11352539 C-230.86148073 191.11324355 -228.92047111 191.1134012 -226.97946167 191.1139679 C-221.69249016 191.11425598 -216.40554112 191.10835756 -211.11857486 191.10139394 C-205.59988947 191.09516214 -200.08120362 191.09455674 -194.56251526 191.09336853 C-184.10420842 191.0902547 -173.64591198 191.08204061 -163.18760973 191.07201904 C-151.28454959 191.06085951 -139.38148897 191.05534786 -127.47842491 191.05032361 C-102.98561083 191.03985804 -78.492806 191.0222576 -54 191 C-53.05257324 186.58949472 -52.10604766 182.17879647 -51.15966797 177.76806641 C-50.89490158 176.53556656 -50.63013519 175.30306671 -50.35734558 174.03321838 C-48.08365738 163.43292412 -45.87143978 152.82084165 -43.70214844 142.19873047 C-43.10593542 139.28172548 -42.50613183 136.36547123 -41.90625 133.44921875 C-41.5232265 131.57816818 -41.14040524 129.7070762 -40.7578125 127.8359375 C-40.57977081 126.97165131 -40.40172913 126.10736511 -40.21829224 125.21688843 C-39.32954716 121.14182159 -39.32954716 121.14182159 -39 117 C-111.93 117 -184.86 117 -260 117 Z M-16 117 C-18.34721855 126.29296484 -18.34721855 126.29296484 -20.44213867 135.62304688 C-20.6821611 136.77043335 -20.92218353 137.91781982 -21.16947937 139.09997559 C-21.41648087 140.29417114 -21.66348236 141.4883667 -21.91796875 142.71875 C-22.18007645 143.97965454 -22.44218414 145.24055908 -22.7122345 146.53967285 C-23.26093448 149.18137552 -23.80773849 151.82346191 -24.35327148 154.46582031 C-25.05159779 157.84696304 -25.75585626 161.22684055 -26.46161938 164.60643768 C-27.13820392 167.85145784 -27.80900942 171.09766547 -28.48046875 174.34375 C-28.73354294 175.5541394 -28.98661713 176.76452881 -29.24736023 178.01159668 C-29.47792618 179.13376587 -29.70849213 180.25593506 -29.94604492 181.41210938 C-30.25224007 182.89003967 -30.25224007 182.89003967 -30.56462097 184.39782715 C-31.11001321 187.21780285 -31.11001321 187.21780285 -31 191 C-25.89136104 191.0246501 -20.78275641 191.04283607 -15.67407227 191.05493164 C-13.93480832 191.05997204 -12.19554864 191.0668043 -10.45629883 191.07543945 C-7.96174063 191.08751792 -5.46723827 191.09323108 -2.97265625 191.09765625 C-1.7992141 191.10539818 -1.7992141 191.10539818 -0.60206604 191.11329651 C1.26567114 191.11349226 3.13329204 191.06199694 5 191 C6.86798563 189.13201437 6.5626515 186.02086888 6.84790039 183.50830078 C6.92607498 182.83022369 7.00424957 182.15214661 7.08479309 181.45352173 C7.34333097 179.20124807 7.59556989 176.94831666 7.84765625 174.6953125 C8.02525639 173.13447343 8.20319341 171.57367266 8.38145447 170.01290894 C8.75478045 166.73627895 9.12521083 163.4593391 9.4934082 160.18212891 C9.96565619 155.97933512 10.4431611 151.77716079 10.92260075 147.57518196 C11.29034979 144.34976362 11.65624517 141.12413733 12.02148247 137.89843369 C12.19696199 136.34902826 12.37279923 134.79966331 12.54899788 133.25033951 C12.79490547 131.0839145 13.03854658 128.91724697 13.28149414 126.75048828 C13.42059708 125.51662384 13.55970001 124.2827594 13.70301819 123.01150513 C14.04906984 120.00676588 14.04906984 120.00676588 14 117 C4.1 117 -5.8 117 -16 117 Z M-50.6875 229.25 C-51.68475098 229.63913574 -51.68475098 229.63913574 -52.70214844 230.03613281 C-75.83626513 236.95565813 -75.83626513 236.95565813 -93 251 C-93.5589408 256.41933883 -91.95863124 260.31409472 -89.859375 265.1796875 C-89.53592102 265.95128204 -89.21246704 266.72287659 -88.87921143 267.51785278 C-87.84605444 269.97455672 -86.79797298 272.42458549 -85.75 274.875 C-85.06027946 276.5139367 -84.37146829 278.15325641 -83.68359375 279.79296875 C-83.0138503 281.38055851 -82.34330292 282.96780941 -81.671875 284.5546875 C-81.36441345 285.28203094 -81.0569519 286.00937439 -80.74017334 286.75875854 C-79.21096063 290.33077152 -77.63163309 293.87875795 -75.96972656 297.39111328 C-75.66858948 298.03202911 -75.36745239 298.67294495 -75.05718994 299.33328247 C-73.92610968 301.3579604 -73.92610968 301.3579604 -70.8125 303.1875 C-62.19426073 305.02417394 -51.17762372 298.35961647 -43.12426758 295.06689453 C-40.81133129 294.12452383 -38.49273525 293.1970941 -36.17382812 292.26953125 C-34.6845222 291.66237401 -33.19557695 291.05433117 -31.70703125 290.4453125 C-31.02252396 290.17429718 -30.33801666 289.90328186 -29.63276672 289.62405396 C-24.70269172 287.57822055 -19.48575259 284.97150518 -17 280 C-16.35488069 274.231646 -18.36157153 269.82806821 -20.54296875 264.62109375 C-20.90844315 263.73140396 -21.27391754 262.84171417 -21.65046692 261.92506409 C-22.42453351 260.04949619 -23.2040071 258.17615185 -23.98852539 256.30493164 C-25.1821391 253.45032097 -26.35079564 250.58636814 -27.51757812 247.72070312 C-28.27455356 245.89521555 -29.03296987 244.07032466 -29.79296875 242.24609375 C-30.13901657 241.39389755 -30.48506439 240.54170135 -30.84159851 239.66368103 C-32.88562042 234.84721013 -34.8838194 231.41765937 -39 228 C-43.41988855 226.24069689 -46.38165651 227.5555924 -50.6875 229.25 Z M-211.88378906 248.69848633 C-213.88588191 250.6983699 -215.89587424 252.69008769 -217.90625 254.68164062 C-219.18538407 255.95784416 -220.46404706 257.23452008 -221.7421875 258.51171875 C-222.64056839 259.39932137 -222.64056839 259.39932137 -223.55709839 260.30485535 C-224.1117276 260.86256119 -224.66635681 261.42026703 -225.23779297 261.99487305 C-225.9677095 262.72265205 -225.9677095 262.72265205 -226.71237183 263.46513367 C-228.87637815 266.04465197 -229.89041797 268.46426564 -230.5625 271.75 C-229.94518091 275.31673251 -229.27805142 276.13015081 -226.91601562 278.73266602 C-226.27905762 279.43666534 -225.64209961 280.14066467 -224.98583984 280.86599731 C-219.95689672 286.27014819 -214.80151814 291.54364394 -209.61181641 296.79321289 C-208.19765979 298.22911318 -206.78981137 299.67125212 -205.38818359 301.11938477 C-203.34606882 303.2283644 -201.28497412 305.31701181 -199.21875 307.40234375 C-198.59875122 308.05017319 -197.97875244 308.69800262 -197.33996582 309.36546326 C-194.38791072 312.30381089 -192.44882894 313.85411834 -188.42382812 315.16235352 C-180.902209 314.80568803 -176.02428931 308.30551583 -171.01171875 303.2421875 C-170.26791458 302.49792511 -169.52411041 301.75366272 -168.75776672 300.98684692 C-167.19477593 299.420847 -165.63420419 297.85242936 -164.07592773 296.28173828 C-161.6833388 293.8708069 -159.28275789 291.46805955 -156.88085938 289.06640625 C-155.36150488 287.54213928 -153.84260836 286.01741564 -152.32421875 284.4921875 C-151.60449387 283.77134979 -150.88476898 283.05051208 -150.14323425 282.30783081 C-149.48197037 281.64018707 -148.82070648 280.97254333 -148.1394043 280.28466797 C-147.55571579 279.69716766 -146.97202728 279.10966736 -146.37065125 278.50436401 C-144.42558436 276.36954771 -144.01713987 275.15083085 -143.6875 272.25 C-144.38162799 265.03106893 -150.6328824 260.08591831 -155.5390625 255.23046875 C-156.62216202 254.14805656 -156.62216202 254.14805656 -157.72714233 253.04377747 C-159.2460636 251.52786467 -160.76740192 250.01437028 -162.29101562 248.50317383 C-164.62952123 246.18301424 -166.95983624 243.85486206 -169.2890625 241.52539062 C-170.76775653 240.05160897 -172.24690724 238.57828534 -173.7265625 237.10546875 C-174.42552643 236.40761765 -175.12449036 235.70976654 -175.84463501 234.99076843 C-176.492258 234.3495253 -177.13988098 233.70828217 -177.80712891 233.04760742 C-178.37686432 232.48168381 -178.94659973 231.91576019 -179.53359985 231.33268738 C-182.33742568 228.78452664 -185.07795306 228.46111828 -188.83007812 228.55541992 C-197.18940316 230.26810341 -205.95372129 242.76768354 -211.88378906 248.69848633 Z M-135 337 C-138.29567595 340.69409215 -139.92143371 345.12351716 -141.79296875 349.640625 C-142.14386063 350.48163757 -142.4947525 351.32265015 -142.85627747 352.18914795 C-143.59475236 353.96642768 -144.33000867 355.74504773 -145.06225586 357.52490234 C-146.1802446 360.232429 -147.3191084 362.93053492 -148.45898438 365.62890625 C-149.17578456 367.36143966 -149.8913209 369.09449661 -150.60546875 370.828125 C-151.11632271 372.02698334 -151.11632271 372.02698334 -151.63749695 373.25006104 C-153.72492094 378.40594044 -154.78102467 382.43360917 -154 388 C-150.44155874 393.06136577 -145.33929047 394.94494584 -139.7890625 397.20703125 C-138.45952042 397.76241829 -138.45952042 397.76241829 -137.1031189 398.32902527 C-135.23469673 399.10561501 -133.36366602 399.87595499 -131.49023438 400.64038086 C-128.63388731 401.80886435 -125.78951253 403.00347167 -122.9453125 404.20117188 C-121.12305472 404.95472033 -119.30015796 405.7067258 -117.4765625 406.45703125 C-116.63155182 406.81320023 -115.78654114 407.1693692 -114.91592407 407.53633118 C-110.15092326 409.45738679 -106.21748612 410.76383364 -101 410 C-95.57948394 407.10780564 -94.00118572 402.28472486 -91.828125 396.8515625 C-91.46023865 395.96141449 -91.09235229 395.07126648 -90.71331787 394.15414429 C-89.94031483 392.27577283 -89.17419465 390.39455594 -88.41455078 388.51074219 C-87.25437805 385.63584875 -86.07251593 382.77065597 -84.88671875 379.90625 C-84.13672723 378.0760504 -83.3879871 376.2453374 -82.640625 374.4140625 C-82.28961731 373.56075348 -81.93860962 372.70744446 -81.57696533 371.82827759 C-78.36592314 364.09636416 -78.36592314 364.09636416 -78.8125 355.9375 C-84.34200463 348.51216522 -96.59257159 345.55434829 -105.04174805 342.12353516 C-107.19749524 341.24593094 -109.34773031 340.35565777 -111.49804688 339.46484375 C-112.88770366 338.89765977 -114.27766725 338.33122679 -115.66796875 337.765625 C-116.30043015 337.50211243 -116.93289154 337.23859985 -117.58451843 336.96710205 C-123.90174745 334.43072808 -129.34489276 332.44449694 -135 337 Z " fill="#8CCBCF" transform="translate(411,11)"/>
<path d="M0 0 C0.61101562 0.47824219 1.22203125 0.95648438 1.8515625 1.44921875 C15.97576133 12.70343198 28.44128646 32.20643229 32 50 C20.12 50 8.24 50 -4 50 C-5.98 46.37 -7.96 42.74 -10 39 C-11.051875 39.886875 -12.10375 40.77375 -13.1875 41.6875 C-14.07501953 42.43580078 -14.07501953 42.43580078 -14.98046875 43.19921875 C-17.12940286 45.02726305 -17.12940286 45.02726305 -19.15820312 47.58203125 C-22.8207908 50.69837732 -24.73384178 50.5829912 -29.48828125 50.48828125 C-30.19147995 50.48120651 -30.89467865 50.47413177 -31.6191864 50.46684265 C-33.85140227 50.43899212 -36.08105077 50.3762832 -38.3125 50.3125 C-39.83134381 50.28740451 -41.3502272 50.26459352 -42.86914062 50.24414062 C-46.58025248 50.18920007 -50.28987541 50.10299739 -54 50 C-52.39626852 45.99482604 -49.57886014 43.3228902 -46.5546875 40.359375 C-46.02481232 39.83232971 -45.49493713 39.30528442 -44.94900513 38.76226807 C-43.26232175 37.08674325 -41.56880436 35.41832278 -39.875 33.75 C-38.72740612 32.61244149 -37.58026539 31.47442564 -36.43359375 30.3359375 C-33.62761863 27.55196535 -30.81549536 24.7743424 -28 22 C-31.54595754 19.09279239 -34.82557949 16.92023343 -39 15 C-40.5159375 14.2884375 -40.5159375 14.2884375 -42.0625 13.5625 C-47.58600338 11.37063358 -53.32027827 9.74760669 -59 8 C-59 21.86 -59 35.72 -59 50 C-67.415 50.495 -67.415 50.495 -76 51 C-77.65 51.33 -79.3 51.66 -81 52 C-81 37.48 -81 22.96 -81 8 C-93.44071299 11.67366067 -93.44071299 11.67366067 -104.875 16.6875 C-106.00679688 17.26886719 -107.13859375 17.85023437 -108.3046875 18.44921875 C-111.04212931 19.86862254 -111.04212931 19.86862254 -113 22 C-98.645 36.355 -98.645 36.355 -84 51 C-85.94782979 54.89565958 -86.49487089 55.59947207 -89.875 57.8125 C-93.98189582 60.73212957 -95.83311299 63.48565205 -98 68 C-102.27238166 66.35333941 -105.09544742 63.13947497 -108.2265625 59.93359375 C-108.81545258 59.33950211 -109.40434265 58.74541046 -110.01107788 58.13331604 C-111.88720808 56.23940726 -113.75650105 54.33893569 -115.625 52.4375 C-117.50150464 50.53338558 -119.37944576 48.63074561 -121.26034546 46.73097229 C-122.42947724 45.54957451 -123.59592558 44.36551399 -124.75942993 43.17857361 C-127.5974205 40.22063127 -127.5974205 40.22063127 -131 38 C-131.27070313 38.71414062 -131.54140625 39.42828125 -131.8203125 40.1640625 C-133.00819601 43.01970299 -134.40471534 45.65535428 -135.875 48.375 C-139.78925216 56.16047365 -139.78925216 56.16047365 -143 70 C-128.81 70 -114.62 70 -100 70 C-100.33 75.28 -100.66 80.56 -101 86 C-101 87.98 -101 89.96 -101 92 C-114.86 92 -128.72 92 -143 92 C-140.43110763 103.4451905 -140.43110763 103.4451905 -135.875 113.6875 C-135.33552734 114.71907227 -135.33552734 114.71907227 -134.78515625 115.77148438 C-133.86856736 117.52055569 -132.93557287 119.26100918 -132 121 C-131.67 121.66 -131.34 122.32 -131 123 C-126.90464258 121.38504982 -124.21295109 118.43377921 -121.2109375 115.3359375 C-120.66643951 114.78386627 -120.12194153 114.23179504 -119.5609436 113.66299438 C-117.82739406 111.90506938 -116.10046412 110.1408596 -114.375 108.375 C-112.09682239 106.04381216 -109.81224126 103.71918774 -107.5234375 101.3984375 C-106.99946381 100.85786713 -106.47549011 100.31729675 -105.93563843 99.76034546 C-104.66130626 98.46874242 -103.33492629 97.22887455 -102 96 C-101.34 96 -100.68 96 -100 96 C-99.46615381 100.06090041 -98.95021001 104.12388133 -98.4375 108.1875 C-98.28603516 109.33798828 -98.13457031 110.48847656 -97.97851562 111.67382812 C-97.83994141 112.78564453 -97.70136719 113.89746094 -97.55859375 115.04296875 C-97.42767334 116.06414795 -97.29675293 117.08532715 -97.16186523 118.13745117 C-96.94680134 121.94080584 -97.03021062 124.73736097 -99.39868164 127.82104492 C-99.97996826 128.36865479 -100.56125488 128.91626465 -101.16015625 129.48046875 C-102.1027832 130.39022461 -102.1027832 130.39022461 -103.06445312 131.31835938 C-103.72380859 131.93517578 -104.38316406 132.55199219 -105.0625 133.1875 C-106.37013862 134.42651619 -107.67375526 135.66979565 -108.97265625 136.91796875 C-109.84289429 137.73430786 -109.84289429 137.73430786 -110.73071289 138.56713867 C-112.22102945 139.93047953 -112.22102945 139.93047953 -112 142 C-110.86820312 142.56589844 -109.73640625 143.13179687 -108.5703125 143.71484375 C-103.71354167 146.14322917 -98.85677083 148.57161458 -94 151 C-93.40576172 153.89575195 -93.40576172 153.89575195 -92.9296875 157.73828125 C-92.84373322 158.415457 -92.75777893 159.09263275 -92.66921997 159.79032898 C-92.48858322 161.22646859 -92.3123475 162.66316746 -92.14013672 164.1003418 C-91.87721377 166.29402952 -91.60199309 168.48588267 -91.32421875 170.67773438 C-90 181.30100809 -90 181.30100809 -90 186 C-112.13679683 185.19502557 -134.54452428 170.66180252 -149.37109375 154.90625 C-167.51572506 133.67224502 -177.44101608 109.82342049 -177.3125 81.75 C-177.30686035 80.46456299 -177.3012207 79.17912598 -177.29541016 77.85473633 C-176.92116544 48.63215227 -164.44662002 22.81920425 -143.80932617 2.31933594 C-104.20539993 -35.241605 -40.77909365 -34.96402434 0 0 Z " fill="#8CCBCF" transform="translate(209,36)"/>
</svg>
