<?xml version="1.0" encoding="UTF-8"?>
<svg version="1.1" xmlns="http://www.w3.org/2000/svg" width="512" height="512">
<path d="M0 0 C4.31370268 0.45890454 6.68503751 3.22918628 9.5625 6.1875 C10.08626221 6.72068848 10.61002441 7.25387695 11.1496582 7.80322266 C20.80672569 17.82473518 28.9004234 29.05289854 36 41 C36.3412793 41.57266602 36.68255859 42.14533203 37.03417969 42.73535156 C52.76575957 69.57688929 59.45248063 99.92729975 59.375 130.8125 C59.37412384 131.66894104 59.37324768 132.52538208 59.37234497 133.40777588 C59.216033 179.91302205 44.12785992 229.86553877 11.20703125 263.89453125 C-22.72197728 297.59222953 -70.36785708 305.27531347 -115.39086914 313.57995605 C-121.27188379 314.66600192 -127.13882191 315.81153465 -133 317 C-127.96138503 294.24106857 -104.99313202 271.26786324 -89.5390625 254.72265625 C-87.19070881 252.20449853 -84.90364809 249.64358683 -82.625 247.0625 C-78.47077972 242.42262447 -74.08031102 238.05340397 -69.65673828 233.67382812 C-66.25574421 230.29378474 -63.01201195 226.85010033 -59.9140625 223.1875 C-58.36104069 221.41261793 -56.77846285 219.70272849 -55.1484375 218 C-46.71225853 209.16662778 -39.17297925 199.88439847 -32 190 C-31.56091309 189.40171387 -31.12182617 188.80342773 -30.66943359 188.18701172 C-10.61852516 160.59452087 12.12898133 115.26341881 8.6171875 80.0390625 C8.12134706 77.62180188 8.12134706 77.62180188 5 76 C2.45237039 75.72076198 2.45237039 75.72076198 0 77 C-1.45112371 79.54960875 -2.51123265 81.84980326 -3.5625 84.5625 C-4.25134819 86.21570211 -4.94565939 87.86663526 -5.64453125 89.515625 C-6.01916504 90.40314453 -6.39379883 91.29066406 -6.77978516 92.20507812 C-20.53244891 123.70577733 -38.52795234 154.34573119 -61.8828125 179.6953125 C-63.98942095 181.98848406 -66.02503281 184.33291729 -68.0625 186.6875 C-71.03129536 190.02739478 -74.12677088 192.97352706 -77.53515625 195.85546875 C-80.93888838 198.81687753 -84.21227844 201.91094932 -87.5 205 C-91.91243603 209.13850513 -96.34624061 213.2259843 -100.92578125 217.1796875 C-112.58215737 227.40920025 -124.07321111 238.06445029 -134 250 C-134.45068848 250.53689453 -134.90137695 251.07378906 -135.36572266 251.62695312 C-146.64485982 265.09995632 -156.86158508 279.14220255 -165.9675293 294.17578125 C-166.95470971 295.79847581 -167.97387195 297.4016496 -169 299 C-169.33 299 -169.66 299 -170 299 C-170.64283356 248.5787725 -170.64283356 248.5787725 -167 229 C-166.85546387 228.21431641 -166.71092773 227.42863281 -166.56201172 226.61914062 C-157.96369366 181.94216573 -130.16614288 149.47567469 -96.46972656 120.69287109 C-94.68779847 119.17065928 -92.90624821 117.64800735 -91.125 116.125 C-90.51833496 115.60647461 -89.91166992 115.08794922 -89.28662109 114.55371094 C-84.86996491 110.76936143 -80.52600749 106.91260258 -76.21875 103.00390625 C-74.20691607 101.18688018 -72.17339566 99.40055608 -70.125 97.625 C-57.14827698 86.2932137 -44.56501759 74.66815519 -34 61 C-33.58282715 60.46987305 -33.1656543 59.93974609 -32.73583984 59.39355469 C-18.98091017 41.8316845 -7.07221945 21.21665836 0 0 Z " fill="#64AE7E" transform="translate(449,4)"/>
<path d="M0 0 C2.66146163 -0.00961858 5.32211997 -0.04067775 7.98339844 -0.07226562 C46.0406128 -0.30744633 82.05044104 10.6760023 109.82714844 37.24023438 C121.5398063 48.82397934 131.81081594 62.8690742 139.82714844 77.24023438 C140.15521484 77.82530762 140.48328125 78.41038086 140.82128906 79.01318359 C159.15412652 112.18229917 162.61837286 149.19380271 157.82714844 186.24023438 C153.67728379 182.68726807 151.66561976 178.44326906 149.20214844 173.67773438 C135.54898237 148.11997813 117.87988485 124.28662429 99.35791016 102.07958984 C97.91098741 100.34097485 96.47974507 98.59047375 95.04980469 96.83789062 C88.96575346 89.47129046 82.41590194 82.59767515 75.70214844 75.80273438 C74.46742798 74.54154785 74.46742798 74.54154785 73.20776367 73.25488281 C64.09510503 64.14880778 64.09510503 64.14880778 52.82714844 58.24023438 C50.17022934 59.11938126 50.17022934 59.11938126 47.82714844 60.24023438 C46.87017755 62.99152569 46.48756213 64.40005803 46.82714844 67.24023438 C49.03793287 70.9202979 52.01684748 74.00796631 54.82714844 77.24023438 C72.29482308 98.51022241 87.40850694 122.25231155 100.82714844 146.24023438 C101.4073877 147.27196777 101.98762695 148.30370117 102.58544922 149.36669922 C113.09187013 168.16780974 122.26686989 187.48350928 130.82714844 207.24023438 C131.21797607 208.14201416 131.60880371 209.04379395 132.01147461 209.97290039 C132.82714844 212.24023438 132.82714844 212.24023438 132.82714844 215.24023438 C124.55481223 215.45581815 116.68203026 214.92121333 108.51464844 213.61523438 C107.3930835 213.43702148 106.27151855 213.25880859 105.1159668 213.07519531 C75.50786144 208.14849995 48.23404282 198.70540338 25.82714844 178.24023438 C25.1271875 177.61117187 24.42722656 176.98210937 23.70605469 176.33398438 C2.81517116 156.60629035 -2.34407436 127.69247162 -7.38769531 100.77148438 C-14.09952688 65.30004707 -29.22342829 33.17717542 -59.48925781 11.58789062 C-60.04484375 11.14316406 -60.60042969 10.6984375 -61.17285156 10.24023438 C-61.17285156 9.58023438 -61.17285156 8.92023438 -61.17285156 8.24023438 C-52.7705157 5.98511154 -44.38403489 3.97890471 -35.79785156 2.55273438 C-35.0864502 2.43373779 -34.37504883 2.31474121 -33.64208984 2.19213867 C-31.48866237 1.84779882 -29.33342851 1.53629011 -27.17285156 1.24023438 C-26.49174316 1.14307129 -25.81063477 1.0459082 -25.10888672 0.94580078 C-16.77810751 -0.06890379 -8.37966295 0.01821006 0 0 Z " fill="#64AE7E" transform="translate(65.1728515625,100.759765625)"/>
<path d="M0 0 C0.33 0 0.66 0 1 0 C-1.25561398 24.96381765 -11.07561292 50.15980663 -22.95947266 72.07519531 C-24.0817646 74.15125108 -25.17103657 76.243119 -26.26171875 78.3359375 C-37.12009311 98.84570713 -51.61379108 116.18129686 -67.375 133.0625 C-68.04120361 133.77736572 -68.70740723 134.49223145 -69.39379883 135.22875977 C-72.23741246 138.23966582 -75.06472668 141.14216636 -78.2734375 143.765625 C-80.56478005 145.64334411 -82.37752294 147.41588967 -84.25 149.6875 C-86.98158473 152.90042125 -89.8558389 155.86811689 -92.875 158.8125 C-97.09889201 162.9917285 -100.89972649 167.35958496 -104.59301758 172.01098633 C-106.91962564 174.90019036 -109.31371026 177.71841639 -111.72265625 180.5390625 C-116.91963875 186.72004861 -121.49941068 193.25474337 -125.9375 200 C-126.32429932 200.58471069 -126.71109863 201.16942139 -127.10961914 201.77185059 C-169.66452459 266.2332281 -180.34208123 340.30291944 -182 416 C-190.58 416 -199.16 416 -208 416 C-208.03738281 414.1334375 -208.07476562 412.266875 -208.11328125 410.34375 C-210.27106787 319.3541089 -235.42110721 231.47903999 -332 76 C-331.505 75.01 -331.505 75.01 -331 74 C-321.64962988 82.05781896 -312.40257156 90.11259831 -304.26953125 99.41796875 C-302.22762984 101.74102698 -300.13384435 104.00462887 -298.01757812 106.25976562 C-292.0537741 112.64178872 -286.62827123 119.35562728 -281.31884766 126.28710938 C-280.07335457 127.90472868 -278.80872399 129.50756074 -277.54296875 131.109375 C-240.53361317 178.22306191 -213.20350389 233.87842272 -197.69140625 291.68359375 C-197.21747829 293.94096365 -197.21747829 293.94096365 -196 295 C-195.8047876 294.2471875 -195.6095752 293.494375 -195.40844727 292.71875 C-183.25574945 246.26436672 -164.15821871 203.16828175 -132 167 C-131.37681885 166.28996826 -130.7536377 165.57993652 -130.11157227 164.84838867 C-124.3227639 158.31835045 -118.25930443 152.10491915 -112.0793457 145.94897461 C-110.43258596 144.30760204 -108.79127905 142.66091181 -107.15039062 141.01367188 C-101.60561178 135.4653427 -95.9837453 130.0776277 -90 125 C-87.51460655 122.78169361 -85.04198362 120.54998062 -82.5703125 118.31640625 C-80.88379387 116.796489 -79.19125741 115.28321724 -77.4921875 113.77734375 C-67.8020269 105.16555525 -59.00191007 96.20845896 -51 86 C-50.28287842 85.10547119 -50.28287842 85.10547119 -49.55126953 84.19287109 C-29.03572405 58.58890064 -14.42543326 29.30736756 0 0 Z " fill="#64AE7E" transform="translate(451,92)"/>
<path d="M0 0 C0.66 0.33 1.32 0.66 2 1 C2.68261719 3.58178711 2.68261719 3.58178711 3.296875 7.02734375 C3.52995361 8.28587158 3.76303223 9.54439941 4.00317383 10.84106445 C4.12447662 11.50997711 4.24577942 12.17888977 4.37075806 12.86807251 C7.99182253 32.62730669 12.65570034 53.31339222 25.65625 69.28515625 C28.95989653 73.80959097 29.26117163 78.81470849 29.9375 84.25 C31.55507814 95.30723592 34.1406551 105.52430373 38 116 C38.39227783 117.07556152 38.39227783 117.07556152 38.79248047 118.17285156 C55.24988 162.49596432 89.39836104 198.28825082 132.22070312 218.0234375 C144.95088288 223.70979823 157.93403468 227.27667194 171.49462891 230.40136719 C174.69738678 231.16663344 177.8450438 232.05835338 181 233 C182.74178643 243.98749553 184.41152509 254.87985348 185 266 C133.65469395 265.03618026 84.46462336 235.70897053 49.56640625 199.8125 C44.24787769 194.20958085 39.50490482 188.26981341 35 182 C34.2874707 181.01338379 34.2874707 181.01338379 33.56054688 180.00683594 C1.51631297 135.10691135 -12.64500213 79.77810224 -5 25 C-3.59598239 16.61308684 -1.86704597 8.29501852 0 0 Z " fill="#64AE7E" transform="translate(50,201)"/>
<path d="M0 0 C1.27999374 -0.01475876 1.27999374 -0.01475876 2.58584595 -0.02981567 C21.37057666 -0.20168372 39.53799061 -0.14602109 57.91015625 4.23828125 C58.93802246 4.4796582 59.96588867 4.72103516 61.02490234 4.96972656 C84.54934635 10.66025843 126.5825341 22.74684802 140.91015625 44.23828125 C135.77737742 49.63578792 130.36331609 54.43961492 124.5234375 59.0625 C121.81886334 61.31429044 119.36188595 63.71587105 116.91015625 66.23828125 C113.2723438 64.90484822 110.24996135 63.26649962 107.03515625 61.11328125 C87.56776518 48.60962448 66.63369887 40.58202324 43.91015625 36.23828125 C42.95665283 36.05281738 42.00314941 35.86735352 41.02075195 35.67626953 C31.70408834 34.04299407 22.5270949 33.83944248 13.09765625 33.86328125 C11.88035324 33.86409698 11.88035324 33.86409698 10.63845825 33.8649292 C-23.91882707 33.9709891 -62.08412648 43.1464624 -89.734375 65.1015625 C-93.08984375 67.23828125 -93.08984375 67.23828125 -96.1328125 67.22265625 C-99.33630878 66.15623477 -102.33966098 64.91142007 -105.40234375 63.48828125 C-113.42037501 59.93805137 -121.64410808 57.54909997 -130.08984375 55.23828125 C-128.54075292 50.99554839 -125.37397412 48.7606234 -121.90234375 46.11328125 C-121.28085449 45.63391113 -120.65936523 45.15454102 -120.01904297 44.66064453 C-113.26301174 39.51278911 -106.29198749 34.73846363 -99.08984375 30.23828125 C-98.4851123 29.85961914 -97.88038086 29.48095703 -97.25732422 29.09082031 C-68.89717159 11.61860232 -33.45354817 0.31788153 0 0 Z " fill="#64AE7E" transform="translate(244.08984375,43.76171875)"/>
<path d="M0 0 C0.66 0 1.32 0 2 0 C1.19532027 44.98891239 -18.82134668 90.29996977 -48 124 C-48.70511719 124.81597656 -49.41023437 125.63195312 -50.13671875 126.47265625 C-60.21113905 137.88550941 -70.78299156 147.93770631 -83 157 C-83.85207031 157.63550781 -84.70414062 158.27101563 -85.58203125 158.92578125 C-112.51519957 178.35518128 -142.57452077 189.76886789 -175 196 C-176.56427734 196.31324219 -176.56427734 196.31324219 -178.16015625 196.6328125 C-181.80819004 197.10449775 -185.32243957 197.06340621 -189 197 C-188.54936731 185.87648788 -187.84715096 174.99323823 -186 164 C-185.28199219 163.84144531 -184.56398438 163.68289063 -183.82421875 163.51953125 C-180.2100304 162.70487609 -176.60444562 161.85643516 -173 161 C-171.93168945 160.75056641 -171.93168945 160.75056641 -170.84179688 160.49609375 C-125.08102241 149.68646199 -84.65795242 122.56388655 -59.34765625 82.59130859 C-49.37272984 66.3686939 -40.58549747 48.95708952 -36.8984375 30.12890625 C-34.7717695 25.08962773 -28.85893998 22.58830189 -24.375 19.8125 C-16.42266358 14.79090993 -9.0163696 9.19074928 -2.4375 2.4375 C-1.633125 1.633125 -0.82875 0.82875 0 0 Z " fill="#64AE7E" transform="translate(466,270)"/>
</svg>
