<?xml version="1.0" standalone="no"?>
<!DOCTYPE svg PUBLIC "-//W3C//DTD SVG 20010904//EN"
 "http://www.w3.org/TR/2001/REC-SVG-20010904/DTD/svg10.dtd">
<svg version="1.0" xmlns="http://www.w3.org/2000/svg"
 width="512.000000pt" height="512.000000pt" viewBox="0 0 512.000000 512.000000"
 preserveAspectRatio="xMidYMid meet">

<g transform="translate(0.000000,512.000000) scale(0.100000,-0.100000)"
fill="#000000" stroke="none">
<path d="M2015 4676 c-50 -52 -75 -118 -75 -197 0 -73 21 -130 70 -194 71 -92
75 -142 20 -225 -37 -56 -37 -74 -1 -111 41 -40 67 -37 116 15 50 52 75 118
75 197 0 73 -21 130 -70 194 -71 92 -75 142 -20 225 16 25 30 50 30 57 0 41
-44 83 -87 83 -9 0 -35 -20 -58 -44z"/>
<path d="M2495 4676 c-50 -52 -75 -118 -75 -197 0 -73 21 -130 70 -194 71 -92
75 -142 20 -225 -37 -56 -37 -74 -1 -111 41 -40 67 -37 116 15 50 52 75 118
75 197 0 73 -21 130 -70 194 -71 92 -75 142 -20 225 16 25 30 50 30 57 0 41
-44 83 -87 83 -9 0 -35 -20 -58 -44z"/>
<path d="M2975 4676 c-50 -52 -75 -118 -75 -197 0 -73 21 -130 70 -194 71 -92
75 -142 20 -225 -37 -56 -37 -74 -1 -111 41 -40 67 -37 116 15 50 52 75 118
75 197 0 73 -21 130 -70 194 -71 92 -75 142 -20 225 16 25 30 50 30 57 0 41
-44 83 -87 83 -9 0 -35 -20 -58 -44z"/>
<path d="M1535 3825 c-57 -20 -118 -89 -145 -163 l-23 -62 -54 0 c-47 0 -59
-4 -84 -29 -37 -37 -37 -65 0 -102 25 -25 37 -29 84 -29 l54 0 23 -61 c23 -64
75 -131 120 -154 115 -59 248 8 300 153 l23 62 83 0 84 0 0 -91 c0 -87 1 -92
29 -120 l29 -29 142 0 142 0 29 29 c28 28 29 33 29 120 l0 91 84 0 83 0 23
-62 c52 -145 185 -212 300 -153 45 23 97 90 120 154 l23 61 83 0 84 0 0 -91
c0 -87 1 -92 29 -120 l29 -29 142 0 142 0 29 29 c28 28 29 33 29 120 l0 91 80
0 80 0 0 -51 c0 -43 5 -55 29 -80 l29 -29 342 0 342 0 29 29 29 29 0 182 0
182 -29 29 -29 29 -342 0 -342 0 -29 -29 c-24 -25 -29 -37 -29 -80 l0 -51 -80
0 -80 0 0 91 c0 87 -1 92 -29 120 l-29 29 -142 0 -142 0 -29 -29 c-28 -28 -29
-33 -29 -120 l0 -91 -84 0 -83 0 -23 61 c-23 64 -75 131 -120 154 -115 59
-248 -8 -300 -152 l-23 -63 -83 0 -84 0 0 91 c0 87 -1 92 -29 120 l-29 29
-142 0 -142 0 -29 -29 c-28 -28 -29 -33 -29 -120 l0 -91 -84 0 -83 0 -23 63
c-37 103 -129 178 -215 177 -11 -1 -38 -7 -60 -15z"/>
<path d="M1228 3090 l-30 -31 7 -92 c16 -207 61 -372 152 -548 159 -308 444
-555 767 -663 149 -50 268 -69 431 -69 235 -1 410 40 613 143 274 139 487 359
618 633 l45 97 175 0 176 0 29 29 29 29 0 142 0 142 -29 29 -29 29 -136 0
-135 0 6 49 c5 46 3 52 -25 80 l-30 31 -1302 0 -1302 0 -30 -30z"/>
<path d="M1600 1954 c0 -5 -72 -340 -160 -743 -88 -404 -158 -743 -154 -753 3
-9 17 -27 31 -38 24 -18 40 -20 205 -20 l180 0 26 27 c24 24 33 56 72 240 l45
213 715 0 715 0 45 -213 c39 -184 48 -216 72 -239 l26 -28 179 0 c189 0 208 4
234 51 8 16 -24 178 -151 762 -89 408 -163 743 -164 744 -1 2 -20 -12 -42 -31
-68 -58 -174 -126 -276 -177 -54 -27 -98 -54 -98 -59 0 -8 41 -199 65 -307 l5
-23 -610 0 -610 0 5 23 c24 106 65 299 65 307 0 5 -51 35 -112 67 -91 46 -203
120 -295 195 -7 6 -13 7 -13 2z"/>
</g>
</svg>
