<?xml version="1.0" encoding="UTF-8"?>
<svg version="1.1" xmlns="http://www.w3.org/2000/svg" width="128" height="128">
<path d="M0 0 C0.59167969 0.53753906 1.18335938 1.07507813 1.79296875 1.62890625 C11.57057823 10.89557177 19.40094819 22.33147792 26 34 C26.53238281 34.93972656 27.06476563 35.87945312 27.61328125 36.84765625 C30.74461501 42.73003259 33.11053354 48.76659916 35.25 55.0625 C35.49637207 55.78203857 35.74274414 56.50157715 35.99658203 57.24291992 C39.46155821 67.87132129 40.36318628 78.1662555 40.375 89.3125 C40.39949219 90.54806641 40.42398438 91.78363281 40.44921875 93.05664062 C40.4816938 103.08601964 40.4816938 103.08601964 38.2890625 106.73046875 C34.28884837 110.69655136 30.59106236 111.22712175 25.03051287 111.26779827 C24.25092618 111.26340179 23.47133949 111.25900531 22.66812897 111.25447559 C21.82811275 111.25768207 20.98809654 111.26088855 20.12262529 111.26419219 C17.29510097 111.27252344 14.46778675 111.26655698 11.64025879 111.26069641 C9.59772937 111.26371566 7.55520108 111.267604 5.51267481 111.27228898 C-0.11017379 111.28260677 -5.73295889 111.28037756 -11.35581279 111.27610838 C-17.41587058 111.27364803 -23.47591282 111.28264666 -29.53596497 111.29014587 C-41.41161657 111.30291375 -53.28724616 111.30468986 -65.16290152 111.30234561 C-74.81186584 111.30051399 -84.4608235 111.30226981 -94.10978699 111.30657005 C-95.49532512 111.30717245 -96.88086325 111.30777365 -98.26640138 111.30837366 C-100.35418266 111.30928089 -102.44196394 111.31018956 -104.52974521 111.31110601 C-123.94368146 111.31953704 -143.35761521 111.32387014 -162.77155304 111.31969929 C-163.86964252 111.31946472 -163.86964252 111.31946472 -164.98991564 111.31922542 C-168.70041359 111.31841962 -172.41091153 111.31757385 -176.12140948 111.31671212 C-176.85834692 111.31654103 -177.59528437 111.31636994 -178.35455326 111.31619367 C-179.84481956 111.31584702 -181.33508586 111.31549849 -182.82535215 111.31514808 C-206.02046464 111.30978936 -229.21553913 111.31772496 -252.41064453 111.33618164 C-278.46096677 111.3568859 -304.51126546 111.36762746 -330.56159639 111.36360615 C-333.33780193 111.3632108 -336.11400747 111.36284925 -338.89021301 111.36250877 C-339.91559782 111.36237268 -339.91559782 111.36237268 -340.96169747 111.36223383 C-351.29187294 111.36106669 -361.62202468 111.3677249 -371.95219421 111.37832069 C-383.6961778 111.39035425 -395.44011817 111.3916738 -407.18410575 111.37953053 C-413.17958521 111.37362056 -419.17496218 111.37260068 -425.17043495 111.38453293 C-430.65398296 111.39531984 -436.13734201 111.39237474 -441.6208809 111.37827124 C-443.60936704 111.37560438 -445.59786764 111.37805256 -447.58633965 111.38600711 C-450.28050061 111.39604037 -452.97399542 111.38775383 -455.66812897 111.37473011 C-456.837509 111.38569413 -456.837509 111.38569413 -458.03051287 111.39687964 C-462.53512999 111.35146182 -465.41597776 110.77895699 -469 108 C-471.82631139 104.33735087 -472.39037282 101.59630662 -472.43359375 97.01953125 C-472.44495361 95.86396729 -472.45631348 94.70840332 -472.46801758 93.51782227 C-472.45794678 92.29506592 -472.44787598 91.07230957 -472.4375 89.8125 C-472.43065186 88.55687256 -472.42380371 87.30124512 -472.41674805 86.00756836 C-472.15971829 71.00646478 -469.10407824 57.71702975 -463 44 C-462.28070313 42.3603125 -462.28070313 42.3603125 -461.546875 40.6875 C-439.18796594 -7.06939315 -389.72831928 -36.58173275 -342 -54 C-245.83097114 -88.14294719 -127.67527474 -83.13977543 0 0 Z M-223 -30 C-225.55064061 -27.03796574 -226.01950418 -25.62092133 -225.89624023 -21.69677734 C-224.83375981 -17.31429886 -222.89683091 -15.10371516 -219.72265625 -12.1015625 C-219.19610947 -11.58113373 -218.66956268 -11.06070496 -218.12705994 -10.52450562 C-216.45248054 -8.87672531 -214.75793313 -7.25128586 -213.0625 -5.625 C-211.92641671 -4.51045613 -210.79163623 -3.39458262 -209.65820312 -2.27734375 C-203.65484332 4.32082765 -203.65484332 4.32082765 -195.6875 7.3125 C-191.42463889 6.95124058 -189.98007946 5.98007946 -187 3 C-185.36976186 -0.26047629 -185.5326465 -2.37801035 -186 -6 C-187.27470903 -7.88959868 -187.27470903 -7.88959868 -189 -9.6875 C-189.95422852 -10.73188232 -189.95422852 -10.73188232 -190.92773438 -11.79736328 C-191.61158203 -12.5242334 -192.29542969 -13.25110352 -193 -14 C-193.67869141 -14.72815918 -194.35738281 -15.45631836 -195.05664062 -16.20654297 C-197.17978599 -18.45460828 -199.33493564 -20.66733151 -201.5 -22.875 C-202.22058594 -23.63296875 -202.94117188 -24.3909375 -203.68359375 -25.171875 C-209.59744258 -31.18197091 -215.00490103 -35.63291064 -223 -30 Z M-294.23950195 -0.18603516 C-295.68196754 1.24451325 -297.14204462 2.65531384 -298.60351562 4.06640625 C-299.52197266 4.97777344 -300.44042969 5.88914062 -301.38671875 6.828125 C-302.22420654 7.6521582 -303.06169434 8.47619141 -303.92456055 9.32519531 C-306.38259569 12.49308533 -307.25119366 15.07776203 -308 19 C-306.8181492 22.61507304 -305.62397917 24.46268461 -302.75 26.9375 C-299.01432282 28.38082982 -296.88258034 27.94128599 -293 27 C-290.76156433 25.28479454 -289.01110911 23.74161902 -287.1015625 21.72265625 C-286.58113373 21.19610947 -286.06070496 20.66956268 -285.52450562 20.12705994 C-283.87672531 18.45248054 -282.25128586 16.75793313 -280.625 15.0625 C-279.51045613 13.92641671 -278.39458262 12.79163623 -277.27734375 11.65820312 C-270.67917235 5.65484332 -270.67917235 5.65484332 -267.6875 -2.3125 C-268.04875942 -6.57536111 -269.01992054 -8.01992054 -272 -11 C-281.19169333 -15.59584667 -288.40848863 -5.99419735 -294.23950195 -0.18603516 Z M-80 11 C-82.08760259 14.13140389 -82.60645812 16.09744114 -82.50292969 19.84228516 C-81.88062046 22.51217301 -80.86741687 23.70085924 -79.015625 25.7109375 C-78.38084229 26.4030835 -77.74605957 27.09522949 -77.09204102 27.80834961 C-73.50431194 31.56690299 -69.87120167 35.27296764 -66.1875 38.9375 C-65.42501953 39.70384766 -64.66253906 40.47019531 -63.87695312 41.25976562 C-63.14798828 41.98744141 -62.41902344 42.71511719 -61.66796875 43.46484375 C-60.68219849 44.44892212 -60.68219849 44.44892212 -59.67651367 45.45288086 C-57.25474608 47.68773469 -56.09750763 47.98874912 -52.75 48.375 C-47.73605534 47.87360553 -46.4102297 46.65381753 -43 43 C-41.75598722 40.61391389 -41.75598722 40.61391389 -42 38 C-44.81434067 31.31949436 -49.67950819 26.79764984 -54.72338867 21.77563477 C-56.31181616 20.18818342 -57.87767569 18.58055278 -59.44335938 16.97070312 C-60.45703035 15.95182701 -61.47196301 14.93420426 -62.48828125 13.91796875 C-63.40134033 12.99781982 -64.31439941 12.0776709 -65.25512695 11.12963867 C-70.55341917 7.01890284 -74.50031535 7.50020067 -80 11 Z M-388 33 C-389.53649547 36.1397951 -390.29468798 37.92468681 -389.36010742 41.33496094 C-387.66731111 44.65188151 -385.39800269 47.08830473 -382.80078125 49.703125 C-382.03087105 50.488013 -382.03087105 50.488013 -381.2454071 51.28875732 C-380.16081407 52.38848565 -379.07216492 53.48422672 -377.97973633 54.57617188 C-376.31914552 56.24332821 -374.68403325 57.93298447 -373.04882812 59.625 C-371.98845586 60.6941749 -370.92665216 61.76193243 -369.86328125 62.828125 C-369.38071365 63.33224915 -368.89814606 63.83637329 -368.4009552 64.35577393 C-364.80096153 67.88559534 -362.00648593 68.85078419 -357 69 C-353.42612398 67.41161066 -352.18910428 66.28365642 -350 63 C-349.16800298 58.68874273 -349.03566921 56.43038269 -351.51953125 52.74609375 C-353.43522609 50.5887157 -355.40996736 48.52531403 -357.47119141 46.50683594 C-359.19942933 44.80343695 -360.88661001 43.06395074 -362.57421875 41.3203125 C-363.81902314 40.04561461 -365.06511348 38.7721712 -366.3125 37.5 C-366.91078613 36.88817871 -367.50907227 36.27635742 -368.12548828 35.64599609 C-368.9856958 34.78482178 -368.9856958 34.78482178 -369.86328125 33.90625 C-370.37157471 33.39384766 -370.87986816 32.88144531 -371.40356445 32.35351562 C-374.12345014 30.04749846 -376.40344734 29.07615566 -379.9375 28.625 C-383.83975996 29.10282775 -385.30895088 30.15944815 -388 33 Z M-153.3125 43.0625 C-154.3653418 44.10374023 -154.3653418 44.10374023 -155.43945312 45.16601562 C-161.70470328 51.35469471 -161.70470328 51.35469471 -164.5 59.5 C-164.26598267 63.11599399 -164.26598267 63.11599399 -161.875 65.875 C-158.61171917 68.28699018 -157.05412923 69.08108258 -153 69 C-146.20319681 65.87691195 -141.45448068 60.90187686 -136.25 55.625 C-135.40050781 54.78710938 -134.55101562 53.94921875 -133.67578125 53.0859375 C-126.50623437 46.18910948 -126.50623437 46.18910948 -123.9375 36.9375 C-125.4123324 32.86002219 -127.38085719 31.32171426 -131 29 C-139.78975854 26.89810122 -147.72173108 37.40837959 -153.3125 43.0625 Z " fill="#7FB4CA" transform="translate(472,115)"/>
<path d="M0 0 C0.79100883 -0.00350607 1.58201767 -0.00701215 2.39699647 -0.01062447 C5.05182943 -0.01994027 7.70644311 -0.01501469 10.36128521 -0.01015663 C12.2822081 -0.01389279 14.20312946 -0.01849418 16.12404841 -0.02388728 C21.40626758 -0.0361368 26.68842351 -0.03585451 31.97065365 -0.03349853 C37.66608003 -0.03309085 43.36148599 -0.04412473 49.05690289 -0.05361366 C60.21653185 -0.07023517 71.37613969 -0.07572372 82.53577999 -0.07683842 C91.60545308 -0.07778831 100.67511919 -0.08189568 109.74479008 -0.08823967 C131.26726137 -0.102988 152.78972579 -0.11528907 174.31220245 -0.11424255 C175.34463718 -0.11419582 175.34463718 -0.11419582 176.39792918 -0.11414814 C179.88646452 -0.11398192 183.37499986 -0.11378384 186.8635352 -0.11357872 C187.55637027 -0.11353883 188.24920534 -0.11349894 188.96303541 -0.11345784 C190.36411671 -0.11337697 191.76519801 -0.11329337 193.16627931 -0.11320706 C214.96525062 -0.11198153 236.76415971 -0.12699519 258.56311321 -0.15435219 C283.05442649 -0.18507535 307.54569175 -0.20225921 332.03702658 -0.20042574 C345.00460618 -0.19976132 357.97211561 -0.2052766 370.93967915 -0.22678185 C381.97976647 -0.24497306 393.01975182 -0.24935786 404.05984763 -0.235763 C409.69334197 -0.22922309 415.32664055 -0.22915322 420.96011639 -0.2464695 C426.11759671 -0.26215972 431.2747254 -0.25937789 436.43219694 -0.24190123 C438.29757743 -0.23882243 440.1629839 -0.24249676 442.02833376 -0.25362138 C454.66476646 -0.32398937 463.73281708 0.55639126 473.28650188 9.46430016 C480.4406703 16.91047544 481.41264281 24.48824569 481.37488079 34.29047203 C481.05337581 48.86143192 474.31049568 60.95029183 463.92712688 70.92523766 C448.90785004 82.92859546 431.66086709 83.41026224 413.33563519 83.39098167 C411.64581367 83.39285201 409.95599258 83.3951536 408.26617217 83.397847 C403.64114403 83.40394385 399.01613403 83.4038339 394.39110279 83.40265262 C389.39573293 83.40244808 384.40036881 83.40797245 379.40500164 83.41271019 C369.62522112 83.42100558 359.84544663 83.42376452 350.06566289 83.42432257 C342.11407513 83.42479823 334.16248935 83.4268555 326.21090221 83.43002319 C303.65251533 83.43882655 281.09413319 83.44344304 258.53574458 83.44269272 C256.71274054 83.44263279 256.71274054 83.44263279 254.85290813 83.44257164 C253.02767109 83.44251032 253.02767109 83.44251032 251.16556057 83.44244776 C231.44627381 83.44204133 211.72700615 83.45161099 192.00772491 83.46571001 C171.74621702 83.48008208 151.48471844 83.48697974 131.22320533 83.48611623 C119.85348024 83.48578456 108.48377517 83.48851857 97.11405468 83.49929428 C87.43383791 83.50841019 77.75365025 83.51056554 68.07343104 83.50378486 C63.13805737 83.50052524 58.2027395 83.50044281 53.26737118 83.50913811 C48.74210269 83.51702864 44.21693402 83.51554572 39.69166788 83.50685398 C38.06184917 83.5053246 36.43202291 83.50711373 34.8022131 83.51271405 C17.0212458 83.56972575 -0.05252325 82.50078148 -13.99084187 70.25726891 C-14.99050983 69.43162437 -14.99050983 69.43162437 -16.01037312 68.58930016 C-24.00098598 61.42372189 -30.09348555 49.90112926 -31.20812702 39.16425133 C-31.83000381 27.57251927 -31.16979457 19.14015701 -23.61584187 9.94476891 C-16.78150561 2.61497971 -9.92572957 -0.05594628 0 0 Z " fill="#80B4C9" transform="translate(30.99084186553955,388.74273109436035)"/>
<path d="M0 0 C1.03180594 -0.04622828 1.03180594 -0.04622828 2.08445644 -0.09339046 C59.20265698 -2.58300469 102.9944802 14.35450932 152.875 41 C154.095565 41.65116744 154.095565 41.65116744 155.34078789 42.31548977 C173.68055554 52.11313717 191.85726815 62.19063893 209.77415085 72.74341393 C210.82567966 73.36041979 211.87720848 73.97742565 212.96060181 74.61312866 C213.86769709 75.14961218 214.77479237 75.6860957 215.70937538 76.23883629 C220.01825085 78.58975691 223.63715771 79.9413266 228.5625 80.0625 C229.44550781 80.10246094 230.32851563 80.14242187 231.23828125 80.18359375 C238.76813622 78.78700586 243.84063879 73.34886501 248.48901367 67.6315918 C249.67982715 66.21527343 250.87246552 64.80048794 252.06666565 63.38702393 C252.69114656 62.64348915 253.31562748 61.89995438 253.95903206 61.13388824 C303.76579133 2.40960531 303.76579133 2.40960531 331.80859375 -0.109375 C338.03162782 -0.54941042 344.15847758 -0.39711648 350.375 0.0625 C351.11629025 0.11598476 351.85758049 0.16946953 352.62133408 0.22457504 C372.40768582 1.76885929 396.19637932 4.09509385 410.4609375 19.26953125 C419.08557348 30.62467425 420.29453952 41.89426538 419.25 55.625 C417.33152516 65.63342897 411.10102639 73.91964146 403.2734375 80.27734375 C395.20057821 85.65405505 387.31527978 87.78078869 377.72858143 87.75642776 C376.97617026 87.7584804 376.22375908 87.76053303 375.44854757 87.76264787 C372.91903586 87.76831708 370.3895786 87.76686071 367.86006165 87.76544189 C366.0314613 87.76802557 364.20286151 87.77103874 362.37426251 87.7744453 C357.3425638 87.7825182 352.31087935 87.78430503 347.27917492 87.78504276 C341.85502243 87.78689281 336.43087734 87.79443989 331.00672913 87.80117798 C319.14309677 87.81476379 307.27946779 87.82078638 295.41582894 87.82518864 C288.00928122 87.82795058 280.60273481 87.83218784 273.19618797 87.83669281 C252.6928697 87.84888569 232.18955248 87.85918504 211.68623066 87.8625679 C210.37380249 87.86278747 209.06137432 87.86300703 207.7091756 87.86323325 C206.39359378 87.86345153 205.07801197 87.86366981 203.72256404 87.8638947 C201.05666053 87.86433817 198.39075702 87.86478437 195.72485352 87.86523438 C195.06386538 87.86534377 194.40287725 87.86545316 193.72185917 87.86556586 C172.95689216 87.86908341 152.19195661 87.88367118 131.42700195 87.90625 C108.0973872 87.9315996 84.76779453 87.94669888 61.43816537 87.94793582 C49.08591275 87.94885283 36.73370443 87.9546117 24.381464 87.97275543 C13.86364654 87.98815012 3.34588707 87.99328058 -7.17193951 87.98501733 C-12.53818792 87.98110864 -17.90431953 87.98205121 -23.27055359 87.99607468 C-28.18505216 88.00880018 -33.099346 88.00762785 -38.01384423 87.99548396 C-39.78977137 87.99352464 -41.56571296 87.99661626 -43.34161981 88.00532833 C-57.65481601 88.0710874 -69.96763828 86.65370896 -80.98046875 76.5859375 C-90.98862908 65.95813497 -93.34806101 55.56956001 -93.08203125 41.47265625 C-92.60656789 31.36270069 -88.13915582 23.98630661 -81.2109375 16.81640625 C-60.72187568 -1.42861546 -25.79821956 1.11691482 0 0 Z " fill="#80B4CA" transform="translate(92.75,281.375)"/>
<path d="M0 0 C0.77040851 -0.00235223 1.54081702 -0.00470446 2.33457124 -0.00712797 C4.94332834 -0.0138407 7.5520359 -0.01335907 10.16080093 -0.01294994 C12.03916063 -0.01624715 13.91751962 -0.01997242 15.7958777 -0.02409142 C20.97889404 -0.03413576 26.1618988 -0.03783212 31.3449235 -0.04048073 C36.92651903 -0.04437657 42.50810532 -0.05395537 48.08969498 -0.0626936 C61.57955079 -0.08247811 75.06940738 -0.09252659 88.55927408 -0.10142139 C94.90627045 -0.10580091 101.25326598 -0.11116857 107.60026169 -0.11641026 C128.68936743 -0.13342429 149.77847282 -0.14794455 170.86758423 -0.155159 C172.23187829 -0.15563376 173.59617234 -0.15610965 174.9604664 -0.15658666 C175.63704509 -0.15682303 176.31362377 -0.15705941 177.01070484 -0.15730295 C180.43868691 -0.15850417 183.86666897 -0.15971961 187.29465103 -0.16094494 C187.97494897 -0.16118509 188.65524691 -0.16142524 189.35615994 -0.16167267 C211.417706 -0.16956724 233.47919833 -0.19300176 255.54072092 -0.22550088 C278.85612453 -0.25978451 302.17149224 -0.27950762 325.48692536 -0.28280324 C338.20016857 -0.28497158 350.91333282 -0.29376762 363.62655258 -0.31926441 C374.45125675 -0.34092311 385.27586277 -0.34904568 396.10058615 -0.33929763 C401.62634718 -0.33473894 407.15190551 -0.33673006 412.67763901 -0.35605907 C417.73334481 -0.37359168 422.78869856 -0.37277397 427.84440759 -0.35716178 C429.6762098 -0.35477059 431.50803577 -0.3591869 433.33980152 -0.37099043 C435.82527309 -0.38601795 438.30948241 -0.37650114 440.79492188 -0.36076355 C441.51016962 -0.37098576 442.22541736 -0.38120796 442.96233928 -0.39173993 C447.95969774 -0.32243014 450.78743338 1.02123011 454.64914322 4.13422108 C457.180341 7.74816918 456.83588705 10.78616924 456.26633072 15.00922108 C455.32582336 18.24742364 453.48486844 19.47428436 450.64914322 21.13422108 C447.32640105 22.79559216 443.67778926 21.78235015 440.07101822 21.41913319 C382.25646422 14.30256075 382.25646422 14.30256075 330.34403992 34.15071392 C315.51347658 47.08057717 302.919867 62.62038203 291.65242386 78.69853687 C288.80885557 82.1558829 286.88154346 82.98971439 282.48849869 83.50482655 C277.47190696 83.02058476 273.72801318 81.38519432 269.21945572 79.20453358 C268.23220505 78.7353249 267.24495438 78.26611622 266.22778702 77.78268909 C259.58486325 74.47858065 253.41084587 70.76495447 247.24972916 66.64886951 C173.19471051 17.21576351 104.7709392 17.15533442 18.39575732 21.37165785 C15.29548477 21.52256653 12.19467407 21.6603108 9.09380174 21.79825902 C6.9871341 21.89938597 4.88282095 22.02426382 2.77754402 22.15066814 C-7.49298026 22.61744623 -7.49298026 22.61744623 -11.15670395 20.27174854 C-13.95515079 17.54552232 -15.2342889 15.83192764 -15.50320053 11.91547108 C-14.91948042 5.71742481 -14.91948042 5.71742481 -11.91335678 2.63422108 C-7.72400088 0.18191518 -4.77849026 -0.00978383 0 0 Z " fill="#80B3CA" transform="translate(35.35085678100586,244.86577892303467)"/>
</svg>
