<?xml version="1.0" encoding="UTF-8"?>
<svg version="1.1" xmlns="http://www.w3.org/2000/svg" width="512" height="512">
<path d="M0 0 C58.08 0 116.16 0 176 0 C176 68.64 176 137.28 176 208 C175.34 208 174.68 208 174 208 C173.78085937 207.31035156 173.56171875 206.62070312 173.3359375 205.91015625 C168.55750747 191.74968678 160.24405689 183.51226953 148.82421875 174.3203125 C146.14206334 172.11671594 143.56373579 169.83956175 141 167.5 C136.58414173 163.47273726 132.00733447 159.68646422 127.34765625 155.9453125 C123.46570118 152.7286509 123.46570118 152.7286509 122 151 C122.16995811 147.85577492 123.05610385 145.89676892 124.5625 143.125 C126.25794354 139.43925316 126.45448859 137.01464919 126 133 C123.06561867 129.33832238 118.99811002 128.38139606 114.6875 126.9609375 C113.85367294 126.67841125 113.01984589 126.39588501 112.16075134 126.10479736 C109.44327893 125.18637014 106.72177744 124.28058071 104 123.375 C102.13849991 122.74863652 100.2772538 122.12151775 98.41625977 121.49365234 C93.80217171 119.93936178 89.18471182 118.39540683 84.56573486 116.85571289 C81.4766452 115.82545295 78.38895288 114.79105529 75.30136108 113.75631714 C68.53881986 111.49037691 61.77193695 109.23771497 55 107 C54.94392578 105.53626953 54.94392578 105.53626953 54.88671875 104.04296875 C54.82097656 102.77066406 54.75523437 101.49835938 54.6875 100.1875 C54.62949219 98.92292969 54.57148438 97.65835938 54.51171875 96.35546875 C54.27169827 93.07667074 54.27169827 93.07667074 52.64453125 91.11328125 C49.59011925 89.04556766 46.82691397 88.860337 43.25317383 88.79467773 C42.27900513 88.77449585 41.30483643 88.75431396 40.30114746 88.73352051 C39.28008911 88.71704468 38.25903076 88.70056885 37.20703125 88.68359375 C35.79617249 88.65561707 35.79617249 88.65561707 34.35681152 88.6270752 C30.84213688 88.55875905 27.32730711 88.49862211 23.8125 88.4375 C15.954375 88.293125 8.09625 88.14875 0 88 C0 58.96 0 29.92 0 0 Z " fill="#88C3E7" transform="translate(248,200)"/>
<path d="M0 0 C0 7.92 0 15.84 0 24 C5.28 24 10.56 24 16 24 C16 16.08 16 8.16 16 0 C23.45261749 0.67751068 29.18505541 1.28727272 36 3.6875 C36.77400146 3.9544165 37.54800293 4.22133301 38.34545898 4.49633789 C48.4335222 8.08514768 56.78782293 13.14638062 65 20 C60.88380164 24.91935902 56.59589638 29.52647956 52 34 C52.91122727 35.10865985 53.82926659 36.21172219 54.75 37.3125 C55.26046875 37.92738281 55.7709375 38.54226562 56.296875 39.17578125 C58.23593441 41.35955816 58.23593441 41.35955816 62 44 C66.29 39.71 70.58 35.42 75 31 C87.41462452 43.41462452 96 62.19664754 96 80 C88.08 80 80.16 80 72 80 C72 85.28 72 90.56 72 96 C79.92 96 87.84 96 96 96 C95.32248932 103.45261749 94.71272728 109.18505541 92.3125 116 C92.0455835 116.77400146 91.77866699 117.54800293 91.50366211 118.34545898 C87.91485232 128.4335222 82.85361938 136.78782293 76 145 C71.08064098 140.88380164 66.47352044 136.59589638 62 132 C60.89134015 132.91122727 59.78827781 133.82926659 58.6875 134.75 C58.07261719 135.26046875 57.45773438 135.7709375 56.82421875 136.296875 C54.64044184 138.23593441 54.64044184 138.23593441 52 142 C56.29 146.29 60.58 150.58 65 155 C52.85242273 167.14757727 37.58053612 172.74927057 21 176 C19.35 176 17.7 176 16 176 C16 168.08 16 160.16 16 152 C10.72 152 5.44 152 0 152 C0 159.92 0 167.84 0 176 C-6.54094873 175.34590513 -12.14898816 174.72728514 -18.3125 172.875 C-19.03888672 172.65763184 -19.76527344 172.44026367 -20.51367188 172.21630859 C-31.24020372 168.83778068 -40.43774428 163.2790236 -49 156 C-44.88380164 151.08064098 -40.59589638 146.47352044 -36 142 C-36.91122727 140.89134015 -37.82926659 139.78827781 -38.75 138.6875 C-39.26046875 138.07261719 -39.7709375 137.45773438 -40.296875 136.82421875 C-42.23593441 134.64044184 -42.23593441 134.64044184 -46 132 C-50.29 136.29 -54.58 140.58 -59 145 C-71.14757727 132.85242273 -76.74927057 117.58053612 -80 101 C-80 99.35 -80 97.7 -80 96 C-72.08 96 -64.16 96 -56 96 C-56 90.72 -56 85.44 -56 80 C-63.92 80 -71.84 80 -80 80 C-79.32248932 72.54738251 -78.71272728 66.81494459 -76.3125 60 C-76.0455835 59.22599854 -75.77866699 58.45199707 -75.50366211 57.65454102 C-71.91485232 47.5664778 -66.85361938 39.21217707 -60 31 C-55.08064098 35.11619836 -50.47352044 39.40410362 -46 44 C-44.89134015 43.08877273 -43.78827781 42.17073341 -42.6875 41.25 C-42.07261719 40.73953125 -41.45773438 40.2290625 -40.82421875 39.703125 C-38.64044184 37.76406559 -38.64044184 37.76406559 -36 34 C-40.29 29.71 -44.58 25.42 -49 21 C-36.58537548 8.58537548 -17.80335246 0 0 0 Z M0 40 C0.11633789 41.2468457 0.23267578 42.49369141 0.35253906 43.77832031 C3.47569904 81.28758745 3.47569904 81.28758745 -5.48629761 93.16833496 C-12.32541784 101.16174437 -20.48578319 107.86598812 -29 114 C-28.11032656 115.08839774 -27.21288426 116.17044608 -26.3125 117.25 C-25.81363281 117.85328125 -25.31476563 118.4565625 -24.80078125 119.078125 C-22.7086495 121.3109424 -20.42150931 123.13539658 -18 125 C-13.46875267 120.5448931 -8.94936831 116.07800663 -4.43798828 111.6027832 C-2.90227739 110.08214737 -1.36388318 108.56421643 0.17724609 107.04907227 C2.39353093 104.86922538 4.59994533 102.6797944 6.8046875 100.48828125 C7.49432587 99.81412674 8.18396423 99.13997223 8.89450073 98.44538879 C9.53501373 97.80510239 10.17552673 97.16481598 10.83544922 96.50512695 C11.39948456 95.94775345 11.9635199 95.39037994 12.54464722 94.81611633 C15.47424778 91.16030484 16.25135778 87.63229954 16.22705078 83.02612305 C16.22682419 81.58519539 16.22682419 81.58519539 16.22659302 80.11515808 C16.21627045 79.0910231 16.20594788 78.06688812 16.1953125 77.01171875 C16.1924826 75.95338333 16.18965271 74.89504791 16.18673706 73.80464172 C16.1755629 70.43214502 16.15046307 67.05991613 16.125 63.6875 C16.11496664 61.3977903 16.10584141 59.10807643 16.09765625 56.81835938 C16.07563255 51.21213676 16.04112141 45.60611375 16 40 C10.72 40 5.44 40 0 40 Z " fill="#88C4E7" transform="translate(104,24)"/>
<path d="M0 0 C136.62 0 273.24 0 414 0 C411.95015366 4.09969268 409.43178106 7.160414 406.4375 10.5625 C405.35451237 11.80906559 404.27249189 13.05647204 403.19140625 14.3046875 C402.65402832 14.9244043 402.11665039 15.54412109 401.56298828 16.18261719 C394.95495989 23.84138089 394.95495989 23.84138089 389 32 C386.42798036 32.38525283 386.42798036 32.38525283 383.09432125 32.39986992 C381.82793345 32.41262675 380.56154566 32.42538358 379.25678247 32.43852699 C377.83825657 32.43756803 376.41973085 32.43630949 375.00120544 32.43478394 C373.50445804 32.44396135 372.00771805 32.4544248 370.51098782 32.46607029 C366.38269068 32.49424207 362.25453289 32.50341099 358.12615192 32.50944638 C353.67943173 32.51908779 349.23280829 32.54579105 344.78614807 32.57000732 C334.03863759 32.62459299 323.29112913 32.65018688 312.54351172 32.67285842 C307.48448278 32.6841954 302.42546319 32.69872078 297.36644173 32.71295547 C280.55195283 32.75918258 263.73747204 32.79846835 246.9229269 32.81632805 C242.55726047 32.82103809 238.19159406 32.82575773 233.82592773 32.83056641 C232.19828976 32.83234977 232.19828976 32.83234977 230.53777022 32.83416916 C212.96124238 32.85471528 195.38524093 32.92283197 177.80893563 33.01108728 C159.77042727 33.10092784 141.73218549 33.14942626 123.69345146 33.15698445 C113.56256613 33.16223338 103.43242447 33.18551032 93.30175591 33.25472641 C84.67314349 33.31352397 76.04546829 33.3347735 67.416682 33.30705474 C63.01392336 33.29405059 58.61308559 33.29881187 54.21058273 33.35163498 C50.17701658 33.39960644 46.1467846 33.39648993 42.11319471 33.35324968 C40.65680743 33.34653377 39.20018868 33.35830641 37.74414735 33.39075135 C26.88539668 33.617576 26.88539668 33.617576 22.19300854 29.5917418 C19.90929129 26.8240118 17.93843743 24.01576395 16 21 C14.98528802 19.74640384 13.95432638 18.50527362 12.890625 17.29296875 C12.44589844 16.76896484 12.00117187 16.24496094 11.54296875 15.70507812 C11.11628906 15.20427734 10.68960938 14.70347656 10.25 14.1875 C8.49810071 12.12659223 6.74851964 10.06378303 5 8 C4.52498047 7.45553223 4.04996094 6.91106445 3.56054688 6.35009766 C0 2.21740946 0 2.21740946 0 0 Z " fill="#88C4E7" transform="translate(49,456)"/>
<path d="M0 0 C42.24 0 84.48 0 128 0 C126.370625 16.78875 124.74125 33.5775 123.0625 50.875 C122.54953369 56.18190918 122.03656738 61.48881836 121.50805664 66.95654297 C120.87780762 73.42211914 120.87780762 73.42211914 120.58201599 76.44607544 C120.37559562 78.56417869 120.17075549 80.68243629 119.96714783 82.80081177 C119.6589538 86.00413561 119.34579413 89.20693827 119.03149414 92.40966797 C118.94140862 93.35804472 118.85132311 94.30642147 118.75850773 95.28353691 C118.67316493 96.14273798 118.58782213 97.00193905 118.49989319 97.88717651 C118.39066072 99.01268575 118.39066072 99.01268575 118.27922153 100.16093254 C118 102 118 102 117 104 C82.02 104 47.04 104 11 104 C9.90550546 101.81101093 9.73568238 100.31449944 9.50010681 97.88717651 C9.37209261 96.59837491 9.37209261 96.59837491 9.24149227 95.28353691 C9.15140676 94.33516016 9.06132124 93.38678341 8.96850586 92.40966797 C8.81964227 90.89274196 8.81964227 90.89274196 8.66777134 89.34517097 C8.34641429 86.06119315 8.03053604 82.77671422 7.71484375 79.4921875 C7.51765356 77.46879624 7.32010573 75.4454398 7.12219238 73.42211914 C6.38962029 65.90683467 5.66398517 58.39087532 4.9375 50.875 C3.308125 34.08625 1.67875 17.2975 0 0 Z " fill="#87C4E7" transform="translate(160,304)"/>
<path d="M0 0 C153.12 0 306.24 0 464 0 C464 5.28 464 10.56 464 16 C310.88 16 157.76 16 0 16 C0 10.72 0 5.44 0 0 Z " fill="#88C4E7" transform="translate(24,424)"/>
<path d="M0 0 C58.08 0 116.16 0 176 0 C176 10.56 176 21.12 176 32 C117.92 32 59.84 32 0 32 C0 21.44 0 10.88 0 0 Z " fill="#88C4E7" transform="translate(248,152)"/>
<path d="M0 0 C6.73456874 1.3786462 13.14316656 3.24292426 19.65234375 5.44140625 C20.6336879 5.76914536 21.61503204 6.09688446 22.62611389 6.43455505 C24.68317297 7.1224683 26.73951566 7.81252717 28.79516602 8.50463867 C31.95107145 9.56706881 35.10910898 10.62295304 38.26757812 11.67773438 C40.27095936 12.34858208 42.27421902 13.01979302 44.27734375 13.69140625 C45.22310776 14.00807755 46.16887177 14.32474884 47.14329529 14.65101624 C48.01502884 14.9447966 48.88676239 15.23857697 49.78491211 15.54125977 C50.55274521 15.79948013 51.32057831 16.0577005 52.11167908 16.32374573 C54 17 54 17 56 18 C55.37743151 21.86290382 54.21576625 25.02396375 52.55078125 28.55859375 C52.03878174 29.65292725 51.52678223 30.74726074 50.99926758 31.87475586 C50.44263428 33.05046143 49.88600098 34.22616699 49.3125 35.4375 C48.73471556 36.66844099 48.15749563 37.8996471 47.58081055 39.13110352 C46.3613194 41.73323995 45.13887538 44.33395806 43.9140625 46.93359375 C41.00919009 53.10104477 38.12391022 59.27765006 35.23934937 65.45462036 C34.32631953 67.40793483 33.41103587 69.36018003 32.49536133 71.31225586 C31.9361499 72.50729736 31.37693848 73.70233887 30.80078125 74.93359375 C30.30747314 75.98603271 29.81416504 77.03847168 29.3059082 78.12280273 C28.1289901 80.715807 27.05757089 83.35607278 26 86 C14.45 86 2.9 86 -9 86 C-7.97741028 75.37729768 -6.95226287 64.75485075 -5.92260075 54.13283157 C-5.44459898 49.20068672 -4.96772246 44.26843845 -4.4934082 39.3359375 C-4.03569531 34.57651079 -3.57503882 29.81737737 -3.1123333 25.05843353 C-2.93625287 23.24205425 -2.76123634 21.42557151 -2.58729744 19.6089859 C-2.34364091 17.06619092 -2.09621674 14.52378887 -1.84790039 11.98144531 C-1.77668976 11.22906586 -1.70547913 10.4766864 -1.6321106 9.70150757 C-1.3052984 6.39256105 -0.95104723 3.1938565 0 0 Z " fill="#88C4E7" transform="translate(301,322)"/>
<path d="M0 0 C1.58502159 10.35110116 2.73674903 20.69615496 3.7265625 31.1171875 C3.88036625 32.71146294 4.03445488 34.30571093 4.18881226 35.89993286 C4.58945378 40.0456103 4.98628942 44.19164303 5.38226318 48.33776855 C5.86076422 53.33934969 6.34411554 58.34046427 6.82662964 63.34165955 C7.55475086 70.8940936 8.27680743 78.44708511 9 86 C-2.22 86 -13.44 86 -25 86 C-34.26130181 67.65899054 -43.2327724 49.17021293 -51.8125 30.5 C-52.45227783 29.12110596 -52.45227783 29.12110596 -53.10498047 27.71435547 C-53.48928223 26.87018066 -53.87358398 26.02600586 -54.26953125 25.15625 C-54.60573486 24.42212891 -54.94193848 23.68800781 -55.28833008 22.93164062 C-56 21 -56 21 -56 18 C-50.38089488 16.07884654 -44.76158323 14.15829873 -39.14208984 12.23828125 C-37.23545919 11.58674986 -35.3288824 10.93506081 -33.42236328 10.28320312 C-28.05711601 8.44883437 -22.69059071 6.61829609 -17.32250977 4.79223633 C-15.24661102 4.08412202 -13.17278737 3.37032657 -11.09960938 2.65429688 C-10.03033203 2.28884766 -8.96105469 1.92339844 -7.859375 1.546875 C-6.97217773 1.24104492 -6.08498047 0.93521484 -5.17089844 0.62011719 C-3 0 -3 0 0 0 Z " fill="#88C3E7" transform="translate(147,322)"/>
<path d="M0 0 C13.6746044 -0.43758734 24.01888016 -0.16913228 34.93359375 9.02734375 C43.68414801 17.38089744 48.03306915 26.18144352 48.46596527 38.31045532 C48.55832827 43.24931561 48.55310257 48.18550621 48.53125 53.125 C48.53394918 55.28011245 48.53783513 57.43522371 48.54284668 59.59033203 C48.54872165 64.09224113 48.54024334 68.5938313 48.52148438 73.09570312 C48.49869637 78.84194328 48.51183019 84.5874359 48.53577423 90.33364868 C48.55028632 94.77943468 48.54560143 99.2250459 48.53526306 103.6708374 C48.53261072 105.78855479 48.53581247 107.90628849 48.54518127 110.02398682 C48.59769504 125.22744019 48.02898951 137.44686049 37 149 C28.38386916 157.22522887 19.5803656 160.36327117 7.8125 160.25 C5.234375 160.1675 2.65625 160.085 0 160 C0 154.72 0 149.44 0 144 C1.15757812 143.82984375 2.31515625 143.6596875 3.5078125 143.484375 C5.04699798 143.24035779 6.58605394 142.99552264 8.125 142.75 C8.88554687 142.64042969 9.64609375 142.53085937 10.4296875 142.41796875 C18.4396685 141.1059891 23.26450488 137.44553503 28 131 C30.9903688 125.01926239 31.14944691 118.69341513 31.14526367 112.11791992 C31.14862228 111.35121475 31.1519809 110.58450958 31.15544128 109.79457092 C31.16489896 107.27318681 31.16689183 104.75186948 31.16796875 102.23046875 C31.1711851 100.4669848 31.17454946 98.7035011 31.17805481 96.9400177 C31.18403324 93.24735903 31.18589605 89.55472372 31.18530273 85.86206055 C31.18520123 81.14811935 31.19884754 76.43432916 31.21607494 71.7204237 C31.22723569 68.07855044 31.22922069 64.43671321 31.22869301 60.7948246 C31.22986721 59.0578287 31.2342573 57.32083169 31.24202538 55.58385277 C31.75149101 39.31606672 31.75149101 39.31606672 25 25 C19.47846059 19.52409315 14.29513445 17.87039142 6.6875 16.875 C4.480625 16.58625 2.27375 16.2975 0 16 C0 10.72 0 5.44 0 0 Z " fill="#88C4E7" transform="translate(440,200)"/>
<path d="M0 0 C3.68069887 1.53643852 5.98775204 3.78150945 8.75 6.625 C9.54921875 7.44226563 10.3484375 8.25953125 11.171875 9.1015625 C11.77515625 9.72804688 12.3784375 10.35453125 13 11 C11.4744094 14.65141356 9.27519091 16.90118112 6.4375 19.625 C2.00633225 23.83345794 2.00633225 23.83345794 0.5 29.625 C0.55205302 34.43990443 2.80690497 36.5818982 6.046875 39.9140625 C13.63289319 48.01592993 15.48838852 55.24370746 15.265625 66.05078125 C14.50832548 77.31004326 5.63365796 84.43573893 -2 92 C-5.68069887 90.46356148 -7.98775204 88.21849055 -10.75 85.375 C-11.54921875 84.55773437 -12.3484375 83.74046875 -13.171875 82.8984375 C-13.77515625 82.27195312 -14.3784375 81.64546875 -15 81 C-13.4744094 77.34858644 -11.27519091 75.09881888 -8.4375 72.375 C-4.00633225 68.16654206 -4.00633225 68.16654206 -2.5 62.375 C-2.55205302 57.56009557 -4.80690497 55.4181018 -8.046875 52.0859375 C-15.5521266 44.07032879 -17.58469868 36.79868375 -17.3203125 26.07421875 C-16.66473695 14.44175009 -8.01856928 7.44307388 0 0 Z " fill="#88C3E7" transform="translate(377,10)"/>
<path d="M0 0 C3.68069887 1.53643852 5.98775204 3.78150945 8.75 6.625 C9.54921875 7.44226563 10.3484375 8.25953125 11.171875 9.1015625 C11.77515625 9.72804688 12.3784375 10.35453125 13 11 C11.4744094 14.65141356 9.27519091 16.90118112 6.4375 19.625 C2.00633225 23.83345794 2.00633225 23.83345794 0.5 29.625 C0.55205302 34.43990443 2.80690497 36.5818982 6.046875 39.9140625 C13.63289319 48.01592993 15.48838852 55.24370746 15.265625 66.05078125 C14.50832548 77.31004326 5.63365796 84.43573893 -2 92 C-5.68069887 90.46356148 -7.98775204 88.21849055 -10.75 85.375 C-11.54921875 84.55773437 -12.3484375 83.74046875 -13.171875 82.8984375 C-13.77515625 82.27195312 -14.3784375 81.64546875 -15 81 C-13.4744094 77.34858644 -11.27519091 75.09881888 -8.4375 72.375 C-4.00633225 68.16654206 -4.00633225 68.16654206 -2.5 62.375 C-2.55205302 57.56009557 -4.80690497 55.4181018 -8.046875 52.0859375 C-15.5521266 44.07032879 -17.58469868 36.79868375 -17.3203125 26.07421875 C-16.66473695 14.44175009 -8.01856928 7.44307388 0 0 Z " fill="#88C3E7" transform="translate(337,10)"/>
<path d="M0 0 C3.68069887 1.53643852 5.98775204 3.78150945 8.75 6.625 C9.54921875 7.44226563 10.3484375 8.25953125 11.171875 9.1015625 C11.77515625 9.72804688 12.3784375 10.35453125 13 11 C11.4744094 14.65141356 9.27519091 16.90118112 6.4375 19.625 C2.00633225 23.83345794 2.00633225 23.83345794 0.5 29.625 C0.55205302 34.43990443 2.80690497 36.5818982 6.046875 39.9140625 C13.63289319 48.01592993 15.48838852 55.24370746 15.265625 66.05078125 C14.50832548 77.31004326 5.63365796 84.43573893 -2 92 C-5.68069887 90.46356148 -7.98775204 88.21849055 -10.75 85.375 C-11.54921875 84.55773437 -12.3484375 83.74046875 -13.171875 82.8984375 C-13.77515625 82.27195312 -14.3784375 81.64546875 -15 81 C-13.4744094 77.34858644 -11.27519091 75.09881888 -8.4375 72.375 C-4.00633225 68.16654206 -4.00633225 68.16654206 -2.5 62.375 C-2.55205302 57.56009557 -4.80690497 55.4181018 -8.046875 52.0859375 C-15.5521266 44.07032879 -17.58469868 36.79868375 -17.3203125 26.07421875 C-16.66473695 14.44175009 -8.01856928 7.44307388 0 0 Z " fill="#88C3E7" transform="translate(297,10)"/>
<path d="M0 0 C2.23038201 4.67418488 4.45381285 9.35159168 6.67114258 14.03198242 C7.42482061 15.6204294 8.18031959 17.20801381 8.93774414 18.79467773 C10.0324289 21.08868092 11.12030811 23.38581019 12.20703125 25.68359375 C12.54152786 26.38085068 12.87602448 27.0781076 13.22065735 27.79649353 C15.59263874 32.83548482 17.21035112 37.63105337 19 43 C-2.12 43 -23.24 43 -45 43 C-41.61329972 33.96879924 -41.61329972 33.96879924 -37.5 30.0625 C-36.613125 29.21945312 -35.72625 28.37640625 -34.8125 27.5078125 C-31.20785833 24.29367367 -27.49991092 21.23602041 -23.7265625 18.22265625 C-21.02498103 16.0203642 -18.44631817 13.72739789 -15.875 11.375 C-3.36050088 0 -3.36050088 0 0 0 Z " fill="#88C4E7" transform="translate(86,365)"/>
<path d="M0 0 C4.29445018 1.40839495 6.87046479 3.45854776 10.125 6.5625 C13.78416539 9.9819607 17.46078529 13.24477274 21.375 16.375 C40.41611245 31.83222491 40.41611245 31.83222491 45 41 C45 41.66 45 42.32 45 43 C23.88 43 2.76 43 -19 43 C-17.48238358 38.44715075 -15.88126251 34.40932513 -13.84765625 30.09765625 C-13.39645668 29.13647133 -13.39645668 29.13647133 -12.93614197 28.15586853 C-11.98139418 26.12325403 -11.02220246 24.09277918 -10.0625 22.0625 C-9.10712685 20.03544529 -8.15273406 18.00793741 -7.1995697 15.97984314 C-6.33294559 14.13679004 -5.46355033 12.2950407 -4.59399414 10.45336914 C-2.99658657 6.99260484 -1.48496187 3.51008807 0 0 Z " fill="#88C3E7" transform="translate(362,365)"/>
</svg>
