<?xml version="1.0" encoding="UTF-8"?>
<svg version="1.1" xmlns="http://www.w3.org/2000/svg" width="512" height="512">
<path d="M0 0 C9.63004851 8.74236248 18.04770849 18.11038531 25.74804688 28.58691406 C26.52921875 29.64652344 27.31039063 30.70613281 28.11523438 31.79785156 C33.99321303 40.0351573 39.04665574 48.63390387 43.74804688 57.58691406 C44.09222656 58.24111328 44.43640625 58.8953125 44.79101562 59.56933594 C60.17589463 89.30754076 66.74804688 122.29428817 66.74804688 155.58691406 C-70.53195312 155.58691406 -207.81195313 155.58691406 -349.25195312 155.58691406 C-349.25195312 111.61610247 -337.02413213 68.55436298 -311.25195312 32.58691406 C-310.8373584 32.00554687 -310.42276367 31.42417969 -309.99560547 30.82519531 C-304.13923498 22.71030382 -297.59600659 15.29765498 -290.68066406 8.07861328 C-289.36530094 6.7052591 -288.06194463 5.32043167 -286.75976562 3.93457031 C-260.6484528 -23.16126742 -225.44179267 -40.5277355 -189.25195312 -49.41308594 C-187.45371094 -49.8578125 -187.45371094 -49.8578125 -185.61914062 -50.31152344 C-119.34139188 -65.55993488 -50.11578398 -44.71656968 0 0 Z M-196.50195312 -26.47558594 C-197.19796631 -26.24395752 -197.89397949 -26.0123291 -198.61108398 -25.77368164 C-244.9892713 -9.98591413 -285.28486993 22.11559718 -307.57910156 66.21191406 C-315.74188779 80.73498916 -315.74188779 80.73498916 -318.25195312 96.58691406 C-316.77202157 99.15030095 -316.77202157 99.15030095 -314.25195312 100.58691406 C-311.25195312 101.25358073 -311.25195312 101.25358073 -308.25195312 100.58691406 C-305.11690397 97.94338794 -303.50980582 95.47065043 -301.99023438 91.69238281 C-301.59835937 90.74419678 -301.20648438 89.79601074 -300.80273438 88.8190918 C-300.39410156 87.81434814 -299.98546875 86.80960449 -299.56445312 85.77441406 C-295.50749257 76.14888505 -291.05916123 67.26175676 -285.25195312 58.58691406 C-284.86571777 58.00151855 -284.47948242 57.41612305 -284.08154297 56.81298828 C-278.31369849 48.14587527 -271.81362831 40.42922959 -264.57275391 32.95898438 C-263.4658681 31.80913257 -262.38491498 30.63439328 -261.31054688 29.45410156 C-242.77575399 9.63389799 -216.77761562 -3.57415259 -191.10131836 -11.37329102 C-187.37802176 -12.53465952 -184.78534386 -13.42472081 -182.25195312 -16.41308594 C-181.07228636 -19.61503857 -181.0488596 -20.92791808 -182.37695312 -24.10058594 C-186.57498592 -29.27815971 -190.71295433 -28.49301821 -196.50195312 -26.47558594 Z " fill="#829684" transform="translate(397.251953125,194.4130859375)"/>
<path d="M0 0 C147.84 0 295.68 0 448 0 C446.80828776 10.72541012 443.38239002 20.69457657 435 28 C425.13277628 35.2602153 415.83007877 39.11770451 403.48557091 39.13142776 C401.53501732 39.13718948 401.53501732 39.13718948 399.54505861 39.1430676 C398.10892696 39.14228744 396.67279536 39.14140867 395.23666382 39.14044189 C393.7056113 39.1430269 392.17455946 39.14604044 390.64350855 39.1494453 C386.43884316 39.15750268 382.23419485 39.15930416 378.02952266 39.16004276 C373.49356425 39.16189552 368.95761467 39.16944399 364.42166138 39.17617798 C354.50417308 39.18975296 344.58668883 39.19578475 334.66919279 39.20018864 C328.47489175 39.20295252 322.28059226 39.20719015 316.08629227 39.21169281 C298.93107133 39.22388449 281.77585163 39.23418394 264.62062645 39.2375679 C262.97404358 39.23789725 262.97404358 39.23789725 261.2941964 39.23823325 C260.19386986 39.23845153 259.09354333 39.23866981 257.95987356 39.2388947 C255.73024774 39.23933816 253.50062191 39.23978473 251.27099609 39.24023438 C250.16502813 39.2404558 249.05906017 39.24067723 247.91957803 39.24090537 C230.00283613 39.24485257 212.08613491 39.26230468 194.16940872 39.2855939 C175.76803728 39.30931972 157.36668624 39.32177032 138.96529925 39.32293582 C128.63626109 39.3238519 118.30727595 39.32958729 107.97825241 39.34775543 C99.18207379 39.36317302 90.38596458 39.36826709 81.58977501 39.36001733 C77.10425416 39.35611669 72.61887301 39.35701177 68.13336945 39.37107468 C64.02125974 39.38384868 59.90939421 39.38258554 55.79728468 39.37048396 C54.31542756 39.36853301 52.83355294 39.3715774 51.35172038 39.38032833 C37.88960663 39.45474884 27.19010153 37.72945902 16 30 C14.6696875 29.13375 14.6696875 29.13375 13.3125 28.25 C6.70261554 21.81876106 2.21420089 13.95307315 0 5 C0 3.35 0 1.7 0 0 Z " fill="#829684" transform="translate(32,365)"/>
<path d="M0 0 C1.2249971 -0.00960754 2.4499942 -0.01921509 3.71211243 -0.02911377 C5.05571304 -0.03396211 6.3993158 -0.03824085 7.74291992 -0.04199219 C9.11813865 -0.04774453 10.49335736 -0.05350226 11.86857605 -0.05926514 C14.75451023 -0.06977596 17.64041655 -0.07561777 20.52636719 -0.07910156 C24.21856257 -0.08458005 27.91038801 -0.10859342 31.60246754 -0.13707352 C34.44468752 -0.15573005 37.28681904 -0.16090713 40.12909508 -0.16243744 C41.48982448 -0.16545879 42.85055251 -0.17346992 44.21122169 -0.18662262 C46.11860443 -0.20374063 48.02613984 -0.19994974 49.93359375 -0.1953125 C51.01788162 -0.19895813 52.10216949 -0.20260376 53.21931458 -0.20635986 C56.57498004 0.2128655 58.45460959 1.16535435 61.16088867 3.16113281 C62.725601 6.29055746 62.85790825 9.77195505 62.16088867 13.16113281 C60.02037649 15.87477729 58.86882812 17.04419077 55.41186523 17.61523438 C54.38544922 17.59428711 53.3590332 17.57333984 52.30151367 17.55175781 C51.18647461 17.53886719 50.07143555 17.52597656 48.92260742 17.51269531 C47.18430664 17.46242188 47.18430664 17.46242188 45.41088867 17.41113281 C44.23655273 17.39308594 43.0622168 17.37503906 41.85229492 17.35644531 C38.9548111 17.30933175 36.05774672 17.23758948 33.16088867 17.16113281 C33.16088867 22.44113281 33.16088867 27.72113281 33.16088867 33.16113281 C27.88088867 33.16113281 22.60088867 33.16113281 17.16088867 33.16113281 C17.16088867 27.88113281 17.16088867 22.60113281 17.16088867 17.16113281 C15.40260742 17.20753906 13.64432617 17.25394531 11.83276367 17.30175781 C9.52548897 17.33927447 7.21819593 17.37567474 4.91088867 17.41113281 C3.75202148 17.44464844 2.5931543 17.47816406 1.39916992 17.51269531 C0.28413086 17.52558594 -0.8309082 17.53847656 -1.97973633 17.55175781 C-3.00615234 17.57270508 -4.03256836 17.59365234 -5.09008789 17.61523438 C-8.54637478 17.04430244 -9.69175064 15.86703371 -11.83911133 13.16113281 C-12.56682365 10.42150994 -12.41882709 7.92899142 -11.83911133 5.16113281 C-8.30267239 0.56376219 -5.60152843 0.03535189 0 0 Z " fill="#829684" transform="translate(230.839111328125,91.8388671875)"/>
</svg>
