<?xml version="1.0" encoding="UTF-8"?>
<svg version="1.1" xmlns="http://www.w3.org/2000/svg" width="512" height="512">
<path d="M0 0 C11.60478207 2.2477731 21.35602945 13.78000891 27.89453125 22.828125 C41.46025823 43.26480461 44.09815909 68.19882734 39.47607422 91.9909668 C35.65350587 109.38973703 27.73469669 125.29792227 14 137 C10.9008575 138.54957125 7.62280529 138.15539495 4.22055054 138.16062927 C3.40777574 138.16571709 2.59500095 138.17080491 1.75759661 138.17604691 C-0.98142472 138.19181425 -3.7204196 138.20030777 -6.45947266 138.20874023 C-8.41720753 138.21827535 -10.37494071 138.22816635 -12.33267212 138.23838806 C-18.77644847 138.26981633 -25.22023789 138.29004642 -31.6640625 138.30859375 C-32.75980953 138.31189107 -33.85555655 138.31518839 -34.98450804 138.31858563 C-45.31634387 138.34937118 -55.64818257 138.376083 -65.98005104 138.39300442 C-79.20157998 138.41491087 -92.42270277 138.45687429 -105.64406931 138.52644199 C-114.93672453 138.57367892 -124.22927016 138.59793771 -133.52204168 138.6052013 C-139.07359227 138.61015855 -144.62468548 138.6252465 -150.1761055 138.6649456 C-155.4014201 138.70181889 -160.62601624 138.71021913 -165.85143661 138.69693947 C-167.76705042 138.69699341 -169.6826961 138.70728591 -171.59819031 138.7286911 C-189.12030512 138.9139927 -189.12030512 138.9139927 -194.5783596 133.59317112 C-195.04750093 133.06742465 -195.51664227 132.54167818 -196 132 C-197.18279947 130.952999 -198.36982888 129.91074191 -199.5625 128.875 C-209.62031781 118.49422474 -212.41156172 106.92341449 -212.36572266 92.99316406 C-212.15158647 81.72056381 -209.03177583 72.84532386 -202 64 C-201.52175781 63.38511719 -201.04351562 62.77023438 -200.55078125 62.13671875 C-190.97746314 51.26123647 -174.99877472 47.19110912 -161.09106445 46.17822266 C-159.65380005 46.09000244 -159.65380005 46.09000244 -158.1875 46 C-157.11910889 45.92442871 -156.05071777 45.84885742 -154.94995117 45.77099609 C-148.25940939 45.30869903 -141.56524069 44.91375974 -134.87023926 44.5227356 C-64.50769769 43.38987786 -64.50769769 43.38987786 -5 12 C-2.50484136 8.24398992 -1.01641524 4.38510573 0 0 Z " fill="#D6C0C0" transform="translate(344,170)"/>
<path d="M0 0 C66 0 132 0 200 0 C196.62540193 10.12379421 196.62540193 10.12379421 194.4609375 15.0703125 C193.97206055 16.19300537 193.48318359 17.31569824 192.97949219 18.47241211 C192.18526855 20.28044312 192.18526855 20.28044312 191.375 22.125 C190.80334423 23.43416611 190.23206639 24.74349729 189.66113281 26.05297852 C188.42878554 28.87784422 187.19420888 31.70172105 185.95800781 34.52490234 C183.95344871 39.10403795 181.95653223 43.68648315 179.9609375 48.26953125 C177.10495121 54.82773444 174.24686828 61.38501763 171.38671875 67.94140625 C168.51195255 74.53152148 165.63958613 81.12267538 162.76953125 87.71484375 C156.95468811 101.06890504 151.13619417 114.42127219 145.28125 127.7578125 C144.88906784 128.65121338 144.49688568 129.54461426 144.09281921 130.46508789 C142.15300754 134.88259914 140.21085756 139.29906295 138.26489258 143.71386719 C135.08237145 150.93898929 131.91135128 158.16556598 128.85546875 165.4453125 C128.40421631 166.51330078 127.95296387 167.58128906 127.48803711 168.68164062 C126.70297133 170.54808769 125.92780858 172.41875655 125.16625977 174.29492188 C122.38681693 180.88460307 118.69660851 187.36465454 111.875 190.375 C111.23304688 190.67148437 110.59109375 190.96796875 109.9296875 191.2734375 C102.88625782 193.9254171 96.14267327 193.65860771 89.16015625 191.01171875 C75.614214 184.66741668 70.70299525 164.99993772 65.125 152.0625 C64.38257435 150.3487794 63.63972638 148.63524171 62.89648438 146.921875 C61.35807754 143.37456092 59.82146025 139.82647995 58.28613281 136.27783203 C55.0562288 128.81627129 51.80408621 121.36442267 48.5524292 113.912323 C46.78392973 109.8586613 45.01705128 105.80429314 43.25 101.75 C42.54167434 100.12499666 41.83334101 98.49999666 41.125 96.875 C36.875 87.125 36.875 87.125 35.81268311 84.68791199 C35.10374731 83.06153526 34.39480361 81.43516197 33.68585205 79.80879211 C31.92417187 75.76738416 30.16262525 71.7259181 28.40136719 67.68432617 C25.10501287 60.12050532 21.80733088 52.55727143 18.50512695 44.9960022 C16.95823643 41.4537721 15.41207511 37.91122392 13.8659668 34.36865234 C13.13407066 32.6922243 12.40182369 31.01594936 11.66918945 29.33984375 C8.42163319 21.90995451 5.17911634 14.4778689 2.015625 7.01171875 C1.62149414 6.08190186 1.22736328 5.15208496 0.82128906 4.1940918 C0 2 0 2 0 0 Z " fill="#D6C0C0" transform="translate(156,314)"/>
<path d="M0 0 C17.01348194 7.56542127 26.77317143 21.06212053 34 38 C38.06282021 49.02039983 39.99649955 59.95720936 40.8125 71.625 C40.87783936 72.41277832 40.94317871 73.20055664 41.01049805 74.01220703 C41.41625954 81.09418627 40.07553409 86.95338269 36.0546875 92.85546875 C5.44751266 125.60185473 -51.51419362 124.51244921 -93.25 126.5234375 C-94.09568039 126.56473785 -94.94136078 126.60603821 -95.81266785 126.64859009 C-99.86199063 126.84376104 -103.91105261 127.0243989 -107.9621582 127.17822266 C-116.78160752 127.54955406 -125.10221944 128.58063253 -133.73120117 130.4765625 C-136.68701451 130.94988118 -138.27693124 131.13417332 -141 130 C-148.51877707 121.67118893 -149.07899105 109.66379221 -149 99 C-147.978264 92.14240255 -145.0167593 86.57006804 -141 81 C-140.319375 80.030625 -139.63875 79.06125 -138.9375 78.0625 C-120.80413799 57.54462861 -91.19102451 51.85988955 -65.42236328 48.68212891 C-48.99233286 46.64745986 -30.01913681 43.05466566 -17.796875 30.7890625 C-16 29 -16 29 -14 29 C-13.72929687 28.41605469 -13.45859375 27.83210938 -13.1796875 27.23046875 C-12.00859886 25.0162581 -10.69764257 23.25589509 -9.125 21.3125 C-4.18496587 14.81816244 -1.72568907 7.90940824 0 0 Z " fill="#D6C0C0" transform="translate(298,80)"/>
<path d="M0 0 C11.22344586 0.8016747 18.33371222 5.85698508 26 14 C37.71262979 28.90234378 40.52650308 50.60563792 39 69 C37.33714424 76.59622746 33.64654937 82.84332209 29 89 C28.08541016 90.22783203 28.08541016 90.22783203 27.15234375 91.48046875 C13.0343981 108.00692056 -8.81982813 112.29510359 -29.25 114.9375 C-45.41453109 117.03400817 -60.16998558 120.37501538 -75.09375 126.9609375 C-78 128 -78 128 -81 127 C-85.80723956 117.20062705 -86.2424757 104.28543453 -83 94 C-77.08943036 79.95467422 -63.32425024 74.98933047 -50.3125 69.125 C-41.61192213 65.19831846 -33.03607307 61.22505661 -24.828125 56.33203125 C-24.23449661 55.97984528 -23.64086823 55.6276593 -23.0292511 55.26480103 C-11.9355149 48.47132433 -3.72111848 39.79537095 1.375 27.75 C2.932171 18.406974 2.36073102 9.14783269 0 0 Z " fill="#D6C0C0" transform="translate(252,10)"/>
</svg>
