<?xml version="1.0" encoding="UTF-8"?>
<svg version="1.1" xmlns="http://www.w3.org/2000/svg" width="512" height="512">
<path d="M0 0 C1.6245813 0.33777466 1.6245813 0.33777466 3.28198242 0.68237305 C35.18997012 7.51963156 65.8098321 20.22883295 92 39.875 C92.60102539 40.32198242 93.20205078 40.76896484 93.82128906 41.22949219 C102.72860152 47.89917251 110.97885684 55.17048091 119 62.875 C119.8971875 63.7309375 120.794375 64.586875 121.71875 65.46875 C127.63425709 71.23819519 132.96784979 77.32588944 138 83.875 C138.70914551 84.78620605 138.70914551 84.78620605 139.43261719 85.71582031 C163.69973315 117.14677498 178.75757685 153.78182502 185 192.875 C185.11859375 193.58172852 185.2371875 194.28845703 185.359375 195.01660156 C192.40384844 238.43655544 185.06760401 287.89034207 164.97460938 326.97314453 C163.89263574 329.08451091 162.84610881 331.2120301 161.796875 333.33984375 C153.26894889 350.35187312 142.67809512 365.70422395 130 379.875 C129.21882813 380.76574219 128.43765625 381.65648437 127.6328125 382.57421875 C119.39874669 391.87671871 110.75493394 400.17784919 101 407.875 C99.53626953 409.06416016 99.53626953 409.06416016 98.04296875 410.27734375 C89.19240698 417.32439482 79.79153925 423.22335146 70 428.875 C69.30922363 429.27605957 68.61844727 429.67711914 67.90673828 430.09033203 C38.06379691 447.21427359 2.23078693 457.88878042 -32.29296875 458.078125 C-33.58321205 458.08871445 -33.58321205 458.08871445 -34.89952087 458.09951782 C-70.97125014 458.32834855 -70.97125014 458.32834855 -87 454.875 C-88.41490723 454.57698486 -88.41490723 454.57698486 -89.85839844 454.27294922 C-125.84313211 446.4768409 -159.42966194 431.20375149 -188 407.875 C-189.01835937 407.0603125 -190.03671875 406.245625 -191.0859375 405.40625 C-204.74549375 394.30733062 -217.36065348 381.76543398 -227.76904297 367.5546875 C-228.99785707 365.8779241 -230.24944508 364.22012847 -231.50390625 362.5625 C-267.09753319 314.85884148 -281.55916439 253.21074911 -273.48095703 194.44604492 C-271.1229164 179.28814288 -267.4256956 164.37863143 -262.4375 149.875 C-262.16905273 149.09286133 -261.90060547 148.31072266 -261.62402344 147.50488281 C-258.01853574 137.5347378 -253.51878328 129.20446332 -244.09375 123.77734375 C-236.85210363 120.58686431 -228.99900298 120.84333044 -221.6875 123.625 C-217.81643292 125.28121206 -214.46631892 127.49409407 -211 129.875 C-212.76433535 146.86833519 -217.21033092 160.71496335 -227.9375 174.3125 C-242.58927212 192.88909814 -248.81312584 213.37081378 -247 236.875 C-244.92095379 254.01409065 -237.38869407 268.32797741 -226.73120117 281.62963867 C-217.87922727 292.8416197 -213.23968278 305.35683299 -211.37109375 319.50390625 C-208.60307414 340.42997262 -202.07145813 356.54765973 -187 371.875 C-185.96939453 372.92494141 -185.96939453 372.92494141 -184.91796875 373.99609375 C-171.09788196 387.14953442 -154.21243866 392.02754246 -135.8125 394.875 C-119.39108352 397.42027499 -107.44839724 403.02684461 -94.3125 413.3125 C-76.27435014 426.9516688 -54.94359977 432.76444098 -32.45092773 429.98095703 C-17.14464574 427.74538214 -4.33913898 421.30952181 7.8125 411.9375 C20.72309961 401.98956257 33.70392306 396.70899368 49.8125 394.4375 C67.64779503 391.907392 83.4750122 386.11189372 97 373.875 C97.75796875 373.20984375 98.5159375 372.5446875 99.296875 371.859375 C114.70850356 357.51061738 120.87163768 339.37017488 123.5324707 319.0065918 C125.63041821 303.48972047 131.45755436 290.16970299 141.4375 278.125 C155.49223423 260.95900409 160.80312584 239.77149565 159 217.875 C156.91645771 201.18944232 149.94200079 187.06880746 139.69921875 173.921875 C129.83302456 161.25335003 125.116228 148.51094124 123.03491211 132.71679688 C120.37007109 112.83629634 113.21963486 97.33605481 99 82.875 C98.31292969 82.17503906 97.62585938 81.47507812 96.91796875 80.75390625 C82.53405473 67.06383595 64.89077307 62.34465019 45.78491211 59.38696289 C30.81626521 56.99515739 19.21283511 51.70781484 7.36987305 42.17114258 C-7.77385366 30.05387881 -24.88931884 25.32426099 -44 22.875 C-43.76043184 15.32860296 -41.96599176 10.609273 -37 4.875 C-26.44085902 -4.85550884 -13.05907282 -2.77532532 0 0 Z " fill="#C36833" transform="translate(300,54.125)"/>
<path d="M0 0 C19.83455512 1.41675394 33.80568885 6.08066086 49.26586914 18.36645508 C62.26715283 28.61161582 76.85404331 33.129531 92.93066406 35.66601562 C114.2608492 39.10864107 132.17375353 47.33753672 145.29296875 65.10546875 C151.47621111 74.62975013 155.63811336 84.67483743 157 96 C153.73925221 98.03746657 150.46493707 100.05200913 147.1875 102.0625 C146.25873047 102.64322266 145.32996094 103.22394531 144.37304688 103.82226562 C143.0340332 104.63920898 143.0340332 104.63920898 141.66796875 105.47265625 C140.84578857 105.98062744 140.0236084 106.48859863 139.17651367 107.01196289 C137 108 137 108 134 107 C131 103.55555556 131 103.55555556 131 101 C130.4225 100.71253906 129.845 100.42507812 129.25 100.12890625 C127.82907497 99.41597685 126.41184749 98.69558512 125 97.96484375 C124.01 97.45630859 124.01 97.45630859 123 96.9375 C122.01 96.42509766 122.01 96.42509766 121 95.90234375 C114.21377263 92.84058882 106.71979842 93.083536 99.8125 95.625 C90.9500083 99.62562321 86.59238801 105.00418541 83 114 C80.96713476 120.83197116 81.85331631 126.50520238 84.34375 133.01953125 C85 135 85 135 85 138 C84.36835938 138.35078613 83.73671875 138.70157227 83.0859375 139.06298828 C69.35798723 146.69594622 55.71538754 154.45161168 42.1640625 162.39453125 C35.43928031 166.3349526 28.69019689 170.23269161 21.9375 174.125 C20.30470093 175.06653931 20.30470093 175.06653931 18.63891602 176.02709961 C16.63273102 177.18327292 14.62540884 178.33747632 12.61669922 179.48925781 C11.00682004 180.41871595 9.40281522 181.35855043 7.80908203 182.31542969 C3.30930927 185 3.30930927 185 0 185 C0 123.95 0 62.9 0 0 Z M23.95703125 51.42578125 C15.66159547 62.79884139 13.02198359 73.0460476 14 87 C16.2677147 97.94982242 21.56511696 108.62391466 31 115 C35.51182625 117.68002479 39.01305584 117.16832497 44 116 C54.67529374 112.47026578 63.01270231 104.28733399 68.20629883 94.47436523 C73.56630682 83.68455378 75.02209462 72.4479425 71.375 60.75 C67.76735479 51.25619681 63.05579806 42.9049264 53.953125 37.8671875 C43.27404416 33.12567561 30.35813437 43.82523624 23.95703125 51.42578125 Z " fill="#C36833" transform="translate(255,89)"/>
<path d="M0 0 C3.78518732 1.4160506 7.19749321 3.15421065 10.69921875 5.16796875 C12.36936035 6.12533936 12.36936035 6.12533936 14.07324219 7.10205078 C15.27804914 7.79710633 16.48280029 8.4922586 17.6875 9.1875 C18.94288672 9.90894749 20.19842292 10.63013494 21.45410156 11.35107422 C24.68120292 13.2050294 27.90596414 15.06301465 31.13006592 16.92218018 C32.90920925 17.94766871 34.68904049 18.97194872 36.46923828 19.99560547 C48.99397142 27.19764978 61.49177714 34.44453711 73.96630859 41.7331543 C81.25651238 45.99005497 88.56153489 50.22069774 95.875 54.4375 C96.9472583 55.0557666 98.0195166 55.6740332 99.12426758 56.31103516 C104.71262578 59.53198366 110.30296154 62.74947407 115.89453125 65.96484375 C127.32524509 72.54231182 138.73548032 79.14091129 150 86 C147.16572371 89.05185208 144.38442939 91.13081497 140.765625 93.1796875 C139.72752686 93.77265625 138.68942871 94.365625 137.61987305 94.9765625 C136.50781494 95.60304688 135.39575684 96.22953125 134.25 96.875 C131.90689419 98.20459012 129.56437416 99.53515974 127.22265625 100.8671875 C126.62616776 101.20562683 126.02967926 101.54406616 125.41511536 101.89276123 C121.27951908 104.24685007 117.19330545 106.67059952 113.12109375 109.1328125 C112.03860352 109.78266113 110.95611328 110.43250977 109.84082031 111.10205078 C107.77223421 112.34711027 105.71009997 113.60296611 103.65527344 114.87060547 C102.72102539 115.42893066 101.78677734 115.98725586 100.82421875 116.5625 C100.01041748 117.05878906 99.19661621 117.55507813 98.3581543 118.06640625 C95.44630664 119.21920731 93.9531977 118.92839493 91 118 C88.82421875 116.6953125 88.82421875 116.6953125 86.6875 115.125 C77.8279733 108.98808533 67.85161414 106.62271409 57.171875 108.49609375 C45.56536766 111.12987811 35.38109223 115.88307156 28.0625 125.5625 C25.29597317 131.90923802 26.22024462 135.93223268 28.67578125 142.23046875 C30.60048024 146.25587166 33.10049641 149.62691082 36 153 C32.44727158 155.21877945 28.88103708 157.41431803 25.3046875 159.59472656 C23.62636006 160.61807961 21.94946874 161.64378904 20.2734375 162.67089844 C17.31387332 164.47919215 14.3453944 166.27206214 11.375 168.0625 C9.91682861 168.95714966 9.91682861 168.95714966 8.42919922 169.86987305 C7.51154785 170.4194165 6.59389648 170.96895996 5.6484375 171.53515625 C4.82520996 172.034104 4.00198242 172.53305176 3.15380859 173.04711914 C1 174 1 174 -2 173 C-2.88154332 170.57273688 -3.59030807 168.23742832 -4.25 165.75 C-7.56189898 154.42081305 -12.8933749 145.2592316 -20.0625 135.9375 C-33.09640658 118.97556679 -37.91872312 101.22351283 -36 80 C-34.15897047 66.53237021 -28.11110586 54.50084472 -19.5625 44.125 C-10.4193853 33.02041369 -5.44058673 20.88157518 -2 7 C-1.34988825 4.66158189 -0.67610743 2.33110085 0 0 Z M2 47 C-4.1330207 54.64507879 -6.60974696 61.72309386 -6.44140625 71.54296875 C-5.51129736 78.8274499 -2.07237727 85.47998591 3.3125 90.5 C5.08996072 91.84471216 5.08996072 91.84471216 7 93 C7.65613281 93.40992188 8.31226563 93.81984375 8.98828125 94.2421875 C16.00980011 97.96474777 23.8994352 98.32005429 31.55078125 96.33984375 C40.42179312 92.80063176 46.11113336 86.89637395 50.08984375 78.33203125 C53.22473463 70.29971428 52.25360806 62.85056187 49 55 C44.81832648 47.42741815 38.46847913 42.75547394 30.5 39.625 C20.07915233 37.76413434 9.84953696 39.39458739 2 47 Z " fill="#C36833" transform="translate(100,191)"/>
<path d="M0 0 C0 59.73 0 119.46 0 181 C-5.58240053 181 -9.54253013 180.59409838 -14.6875 178.9375 C-15.38593018 178.71344482 -16.08436035 178.48938965 -16.80395508 178.25854492 C-26.0844491 175.12894017 -33.64001409 170.15349892 -41.25 164.0625 C-54.57269063 153.47308125 -69.63752959 148.19731574 -86.4128418 145.96948242 C-105.2850679 143.45662869 -122.64650416 136.1691797 -135 121 C-142.99698029 110.31029707 -148.04818284 99.33741727 -150 86 C-148.65364583 85.20442708 -147.30729167 84.40885417 -145.9609375 83.61328125 C-145.08050781 83.09266113 -144.20007813 82.57204102 -143.29296875 82.03564453 C-141.33071853 80.8768793 -139.36715237 79.72033985 -137.40234375 78.56591797 C-132.18602236 75.49676072 -126.99698776 72.39382736 -121.8515625 69.20703125 C-120.37937256 68.30633911 -120.37937256 68.30633911 -118.87744141 67.38745117 C-116.98858755 66.23051616 -115.10768995 65.06046927 -113.23583984 63.8762207 C-106.83882947 59.98740787 -106.83882947 59.98740787 -102.6171875 60.05078125 C-100.42700298 60.84513176 -98.26523735 61.64335242 -96.125 62.5625 C-85.38677613 66.22037727 -73.11202027 64.74645849 -63 60 C-55.53191025 56.0435512 -50.06657375 50.66119211 -45.4375 43.625 C-44.71162817 39.269769 -45.9333181 35.23231849 -47 31 C-47.18949219 30.23816406 -47.37898438 29.47632813 -47.57421875 28.69140625 C-47.71472656 28.13324219 -47.85523438 27.57507813 -48 27 C-36.59767165 20.25071094 -25.13906204 13.60206908 -13.64892578 7.00366211 C-12.03219971 6.07372437 -12.03219971 6.07372437 -10.3828125 5.125 C-9.41746582 4.57070313 -8.45211914 4.01640625 -7.45751953 3.4453125 C-1.59932432 0 -1.59932432 0 0 0 Z M-69 91 C-73.90640528 97.09112265 -76.53976467 103.91498175 -76.234375 111.83984375 C-75.19242079 121.44318839 -71.23556431 127.6322526 -64 134 C-56.62989937 139.52137168 -48.98470816 140.11650535 -40 139 C-32.62594075 137.12617329 -25.74911441 132.32230704 -21.6484375 125.875 C-17.53791979 117.831397 -16.24814282 108.62059599 -18.9375 99.8125 C-21.99748551 93.04605317 -27.7127681 86.73266865 -34.375 83.4375 C-47.39317574 78.68303582 -59.18568488 81.28266428 -69 91 Z " fill="#C36833" transform="translate(250,292)"/>
<path d="M0 0 C0.99065964 0.00338379 1.98131927 0.00676758 3.0019989 0.01025391 C3.75713272 0.01460449 4.51226654 0.01895508 5.2902832 0.0234375 C5.33703377 20.61628622 5.37228704 41.20912617 5.39390755 61.80201721 C5.40421379 71.36396053 5.41826167 80.92587084 5.44116211 90.48779297 C5.46111593 98.82335876 5.47400438 107.15890065 5.47846019 115.49448967 C5.48106419 119.90683833 5.48717118 124.3191186 5.50174332 128.73144531 C5.51535868 132.88790443 5.51949786 137.04426724 5.51649857 141.20074654 C5.51704696 142.72287075 5.5210008 144.24499832 5.52869415 145.7671032 C5.62361901 165.52343457 5.62361901 165.52343457 -0.7097168 173.0234375 C-4.88250078 176.84344989 -8.81052669 178.3929857 -14.4597168 178.7109375 C-19.06695792 178.44905863 -22.32958607 177.50889057 -26.4128418 175.37890625 C-27.45730469 174.83435791 -28.50176758 174.28980957 -29.57788086 173.72875977 C-34.34777425 171.13149555 -39.03979935 168.42079896 -43.7097168 165.6484375 C-45.81320649 164.41030749 -47.91740285 163.17337744 -50.0222168 161.9375 C-51.11276367 161.2971582 -52.20331055 160.65681641 -53.3269043 159.99707031 C-59.09718411 156.63051849 -64.90411231 153.32851942 -70.7097168 150.0234375 C-80.37853221 144.51552902 -90.01013695 138.94782334 -99.61181641 133.32348633 C-106.24917714 129.44190173 -112.91350396 125.61069388 -119.59545898 121.80664062 C-122.0196714 120.42637122 -124.44085214 119.0410294 -126.85913086 117.65039062 C-131.81428301 114.80330856 -136.76639286 111.97114839 -141.81518555 109.29296875 C-142.53311279 108.89956299 -143.25104004 108.50615723 -143.99072266 108.10083008 C-145.78739908 107.11772617 -147.59941158 106.16278323 -149.4128418 105.2109375 C-151.7097168 103.0234375 -151.7097168 103.0234375 -152.16674805 99.25390625 C-150.86144691 82.09455244 -143.66961235 68.1772773 -131.7097168 56.0234375 C-131.16959961 55.39953125 -130.62948242 54.775625 -130.07299805 54.1328125 C-118.13519005 40.78171238 -100.34502148 37.17310092 -83.50415039 34.51806641 C-76.26319903 33.35294695 -69.47736406 31.9327005 -62.7097168 29.0234375 C-61.7815918 28.63929687 -60.8534668 28.25515625 -59.8972168 27.859375 C-53.61510778 25.00235202 -48.37102658 21.36129998 -42.9597168 17.1484375 C-30.26224521 7.3118113 -16.43739566 -0.07282246 0 0 Z M-129.7097168 63.0234375 C-132.81048597 67.49701417 -134.67925786 71.22636022 -134.7722168 76.7109375 C-133.54905402 80.52432733 -131.97613749 83.74809404 -129.7097168 87.0234375 C-129.11030273 87.8896875 -129.11030273 87.8896875 -128.4987793 88.7734375 C-121.78389555 97.46785345 -111.32457043 102.8114643 -100.7097168 105.0234375 C-87.29893242 106.49664937 -76.3485085 103.14028455 -65.7097168 95.0234375 C-65.14510742 94.62253906 -64.58049805 94.22164062 -63.9987793 93.80859375 C-58.81214558 89.8988724 -54.96662716 84.54138731 -53.5847168 78.1484375 C-53.1819697 71.71706982 -56.77025997 66.53284041 -60.55737305 61.6328125 C-69.2871473 52.03821949 -81.26389258 46.91455299 -94.0222168 45.7109375 C-108.1641473 46.90940619 -120.19662826 52.41785646 -129.7097168 63.0234375 Z M-57.37768555 103.94921875 C-61.64452087 110.59346964 -63.34476419 118.00299996 -62.1472168 125.8359375 C-59.96537854 135.21926805 -55.25329293 141.54663547 -47.1550293 146.68359375 C-40.37113663 150.40064676 -33.39346643 151.18447966 -25.9362793 149.3359375 C-16.96934317 146.38790371 -11.03384277 142.06782766 -6.7175293 133.578125 C-3.69874168 125.92584941 -2.51759822 117.7657251 -5.7097168 110.0234375 C-9.95708979 102.03994937 -15.64600169 96.20870641 -24.1003418 92.76171875 C-36.84771635 89.1550514 -49.26668936 93.5884572 -57.37768555 103.94921875 Z " fill="#C36834" transform="translate(222.709716796875,36.9765625)"/>
<path d="M0 0 C3.54997152 1.41998861 6.18729934 2.6121589 9.3125 4.625 C10.00988281 5.07101562 10.70726562 5.51703125 11.42578125 5.9765625 C11.94527344 6.31429688 12.46476562 6.65203125 13 7 C12.89300781 7.75023437 12.78601563 8.50046875 12.67578125 9.2734375 C11.64591529 18.06605653 12.55008297 24.45015409 16.75 32.25 C22.30902406 39.04436274 28.09775956 42.95526024 36.8125 44.8125 C45.2294388 45.57767625 52.35852132 43.07877781 59 38 C59.66 37.34 60.32 36.68 61 36 C64.79271677 36.34645583 67.51806966 37.66097079 70.75390625 39.59765625 C71.67623047 40.14357422 72.59855469 40.68949219 73.54882812 41.25195312 C74.54333984 41.84943359 75.53785156 42.44691406 76.5625 43.0625 C78.72971204 44.34633034 80.89771303 45.62882957 83.06640625 46.91015625 C84.20094238 47.58191895 85.33547852 48.25368164 86.50439453 48.94580078 C91.71670522 52.01901722 96.97788551 55.00660877 102.23764038 57.99761963 C111.93587156 63.51369958 121.60997924 69.0701496 131.25 74.6875 C132.219375 75.25146484 133.18875 75.81542969 134.1875 76.39648438 C139.51745756 79.50939038 144.78371242 82.70002464 150 86 C147.01107364 104.62986903 138.2247034 121.0584162 122.84375 132.30859375 C110.22402753 140.996445 98.32932376 144.26924875 83.30810547 146.49047852 C65.86907929 149.13469602 51.53187064 155.50780906 37.9375 166.625 C26.948088 175.59851206 14.26030459 181 0 181 C0 121.27 0 61.54 0 0 Z M20.625 84.25 C13.08099988 93.33990179 9.45726182 104.63669297 9.75 116.3828125 C10.47968688 124.02172206 12.15969767 130.80862015 18 136 C25.35861978 140.30347853 33.47381052 139.79357639 41.5 137.8125 C54.18228937 133.95422605 64.27331034 127.36739623 70.78515625 115.5703125 C76.01989455 104.49488549 77.30779643 92.84614781 74 81 C71.76617292 75.93936629 69.19763959 72.26563777 64 70 C48.33474821 65.35352701 31.44007369 72.94976413 20.625 84.25 Z " fill="#C36833" transform="translate(262,292)"/>
<path d="M0 0 C0.12375 0.680625 0.2475 1.36125 0.375 2.0625 C3.35365422 16.06217484 10.29280844 27.79255063 19 39 C24.29748088 45.95706514 28.09483306 52.73144795 31 61 C31.32097656 61.88816406 31.64195312 62.77632813 31.97265625 63.69140625 C37.42153396 81.50796919 34.54364515 101.58317785 25.9609375 117.85546875 C23.57526076 121.68110575 20.88700678 125.19126049 18.125 128.75 C9.32425582 140.09861395 3.61721926 152.10226283 0 166 C-4.85530681 166 -7.67421623 164.22872257 -11.75 161.875 C-12.53584473 161.42979004 -13.32168945 160.98458008 -14.13134766 160.52587891 C-21.58347186 156.28590213 -28.98143459 151.94999647 -36.37841797 147.61474609 C-45.67204199 142.17131676 -55.02060809 136.82706909 -64.38427734 131.50537109 C-70.97491145 127.75339603 -77.51879211 123.93822759 -84 120 C-83.90235352 119.2481543 -83.80470703 118.49630859 -83.70410156 117.72167969 C-82.58183421 108.65362629 -83.3116127 101.51835169 -88.51953125 93.8515625 C-93.86609621 87.16482954 -100.29262691 83.38966866 -108.8125 82.125 C-117.88058391 81.44868933 -124.67926526 85.0035891 -131.7734375 90.33203125 C-134 91 -134 91 -137.015625 89.6640625 C-138.08296875 88.99117188 -139.1503125 88.31828125 -140.25 87.625 C-141.32765625 86.95726562 -142.4053125 86.28953125 -143.515625 85.6015625 C-144.33546875 85.07304687 -145.1553125 84.54453125 -146 84 C-143.60030318 81.34434213 -141.03555811 79.72001447 -137.93359375 77.953125 C-136.38937744 77.06838501 -136.38937744 77.06838501 -134.81396484 76.16577148 C-133.69973145 75.53356689 -132.58549805 74.9013623 -131.4375 74.25 C-130.2674468 73.58132488 -129.0976925 72.91212649 -127.92822266 72.24243164 C-125.49645633 70.85046746 -123.06341756 69.46076798 -120.62939453 68.07275391 C-116.10928964 65.49351221 -111.60015521 62.89534851 -107.09277344 60.29394531 C-104.9502576 59.05785347 -102.80637816 57.82412211 -100.66113281 56.59277344 C-95.14212323 53.41963658 -89.65569332 50.20282225 -84.20703125 46.91015625 C-83.11213379 46.254104 -82.01723633 45.59805176 -80.88916016 44.92211914 C-78.80206611 43.66913062 -76.72189726 42.40451135 -74.64990234 41.12670898 C-73.25118896 40.29055054 -73.25118896 40.29055054 -71.82421875 39.4375 C-71.01041748 38.94121094 -70.19661621 38.44492188 -69.3581543 37.93359375 C-65.19402364 36.28501361 -62.34271358 37.85227863 -58.375 39.5625 C-51.41539916 42.2050552 -44.54153369 41.8539926 -37.625 39.25 C-29.89077983 35.71226522 -25.32397481 30.88650073 -22 23 C-21.84639415 20.83627627 -21.74382306 18.66843788 -21.6875 16.5 C-21.33288609 13.02395903 -20.93152432 10.85690539 -18.31152344 8.44677734 C-6.46345166 0 -6.46345166 0 0 0 Z M-39 67 C-47.19401072 77.95562852 -50.39120716 89.38911759 -49 103 C-46.58084176 114.86675848 -40.13297055 126.13447485 -30 133 C-25.77661149 135.44511967 -22.95697802 136.10633089 -18.0625 135.5625 C-7.24818123 132.06374981 0.12374086 123.90092301 5.3125 114.125 C10.25738701 103.56092322 11.39990592 93.23415996 8.09375 81.890625 C3.47373216 69.84111902 -3.40028909 60.79985545 -15 55 C-25.15275646 53.98472435 -32.36474825 59.87233625 -39 67 Z " fill="#C36833" transform="translate(414,198)"/>
<path d="M0 0 C4.6484976 4.26044911 8.86410342 8.61058171 10 15 C10.01967924 16.99990318 10.02212866 19.00012242 10 21 C8.71867188 21.15855469 7.43734375 21.31710938 6.1171875 21.48046875 C-12.68279919 23.95419918 -27.79214939 29.35806657 -42.9375 41 C-56.64213873 51.49208802 -70.62824813 56.00698051 -87.5625 58.4375 C-109.35548196 61.62262813 -127.84279991 72.36809782 -141.64453125 89.63671875 C-149.94814699 101.04098707 -154.37373716 114.25674106 -157 128 C-163.67922674 127.06967913 -169.13711696 123.06832141 -173.6875 118.19140625 C-179.09514795 110.9651148 -179.88599463 103.780434 -179 95 C-177.08078179 87.45674362 -171.99414465 81.76662026 -167 76 C-166.36578125 75.25492187 -165.7315625 74.50984375 -165.078125 73.7421875 C-162.77387123 71.10747873 -160.40602065 68.54131481 -158 66 C-157.4107373 65.37673828 -156.82147461 64.75347656 -156.21435547 64.11132812 C-146.22387696 53.63260247 -135.86692579 44.30354863 -124 36 C-123.32001953 35.52369141 -122.64003906 35.04738281 -121.93945312 34.55664062 C-97.28893201 17.51981717 -70.11653724 5.8901291 -41 -1 C-40.25637207 -1.17789062 -39.51274414 -1.35578125 -38.74658203 -1.5390625 C-26.94948863 -4.28092788 -10.48667034 -7.81809419 0 0 Z " fill="#C36833" transform="translate(217,4)"/>
<path d="M0 0 C5.42788043 3.83088584 9.01328185 8.28099098 11.625 14.375 C11.19146519 18.45022724 9.39086853 20.02803667 6.3984375 22.70703125 C-0.88377198 28.31187788 -9.38739908 30.70949956 -18.5625 30.3125 C-28.36004856 28.95686435 -35.93924401 23.94647872 -42.1640625 16.4609375 C-45.74520579 11.41060722 -45.74520579 11.41060722 -45.5546875 7.78515625 C-43.64995889 2.35410574 -37.95857292 -0.54528391 -33.03125 -3.0234375 C-21.34441644 -7.75862006 -10.63781632 -6.51766041 0 0 Z " fill="#C36833" transform="translate(182.6875,315.6875)"/>
<path d="M0 0 C7.7576592 5.82199568 12.0243229 13.61553377 14 23 C15.15702002 33.83945076 11.62545031 42.13655143 5.0546875 50.6328125 C2.47903215 53.60020251 0.59412107 55.40261286 -3 57 C-8.23750826 56.5445645 -10.59442862 54.13172993 -14.0625 50.4140625 C-20.34658994 42.58428915 -21.92967513 34.5895877 -21.41796875 24.7421875 C-20.3635993 15.30213209 -15.09692395 8.09692395 -8.5 1.5 C-5.15670373 -0.50597776 -3.83848285 -0.90317243 0 0 Z " fill="#C36833" transform="translate(398,265)"/>
<path d="M0 0 C6.13728017 5.169756 9.56952427 13.8885175 10.3828125 21.65625 C10.72428872 33.0387908 8.44458004 39.99052081 0.734375 48.27734375 C-3.19722811 52.18238198 -6.94158984 55.37263381 -12.4375 56.5 C-15.64843406 55.87347628 -16.87043653 54.42129585 -18.80078125 51.8515625 C-24.85139277 42.50957598 -25.79942788 34.00926394 -25 23 C-22.72234736 13.50520709 -15.08170302 5.80106439 -7 0.75 C-4.47057267 -0.19853525 -2.68925808 -0.27015378 0 0 Z " fill="#C36833" transform="translate(306,138)"/>
<path d="M0 0 C4.01220486 6.01830729 3.8571391 13.708002 2.46875 20.66015625 C-0.32309353 30.71989678 -6.02050754 37.63595985 -14.9765625 42.9296875 C-21.77544457 46.52600736 -28.51342808 46.22127799 -36 46 C-40.01113269 38.47912621 -40.01543378 31.06725546 -37.875 22.875 C-34.71027668 13.64455699 -29.66555627 7.50608926 -21 3 C-14.42299144 -0.14552584 -7.23030224 -1.15053171 0 0 Z " fill="#C36833" transform="translate(323,373)"/>
<path d="M0 0 C9.49620614 7.81357899 9.49620614 7.81357899 10.0625 13.25 C6.80879273 20.68704519 -0.03774788 25.02381698 -7.25 28.25 C-15.50692779 30.97883541 -25.17915701 30.29063234 -32.875 26.5 C-38.96852144 23.12039987 -43.93251228 19.50218839 -47.25 13.25 C-47.34880839 9.29766436 -45.56521043 6.713653 -42.9609375 3.80078125 C-30.99413169 -7.04584411 -13.49599403 -9.61428908 0 0 Z " fill="#C36833" transform="translate(147.25,100.75)"/>
<path d="M0 0 C4.48410376 2.50582269 6.85146928 5.42986421 9.0625 10.0625 C10.26843007 15.76326032 9.70913068 20.42976201 7.0625 25.625 C3.1581151 30.1625284 -0.26079165 32.40461216 -6.1875 33.25 C-10.95845663 33.52896148 -14.10500595 32.86326557 -18.25 30.3125 C-21.93799984 26.77469019 -24.93064812 23.53672566 -25.453125 18.26171875 C-25.55893644 13.15631684 -25.23572863 9.64662221 -22.25 5.3125 C-15.76350238 -1.22000115 -8.8322668 -4.09420965 0 0 Z " fill="#C36833" transform="translate(211.25,386.6875)"/>
<path d="M0 0 C4.10796071 2.75654008 6.45151052 6.5080212 7.79296875 11.203125 C8.4680278 17.16614664 7.07303337 21.31497675 3.79296875 26.203125 C-0.24104571 30.13370319 -3.94024704 31.94650792 -9.51953125 32.578125 C-15.32058572 31.98818726 -19.51276871 29.94197339 -23.58203125 25.765625 C-26.73042047 20.80085739 -27.71840378 17.1350464 -27.20703125 11.203125 C-25.10255073 4.42202109 -21.95141691 1.21933266 -15.76953125 -2.109375 C-9.76251955 -3.72101229 -5.33593768 -2.93115338 0 0 Z " fill="#C36833" transform="translate(312.20703125,293.796875)"/>
<path d="M0 0 C5.24733852 2.72589014 8.03516157 6.8164222 9.8671875 12.3125 C10.28940677 17.8013505 9.57783363 21.50328913 6.8671875 26.3125 C3.35244086 30.01004671 0.07577161 32.99469738 -5.18359375 33.515625 C-11.16741165 33.63964195 -15.08154591 32.89103515 -19.796875 28.90625 C-23.77974776 24.90450107 -25.07055226 21.35757389 -25.30078125 15.73828125 C-24.94564808 10.60949751 -23.00180156 7.31517968 -19.6953125 3.5 C-13.97374033 -1.38426893 -7.23537519 -2.33228211 0 0 Z " fill="#C36833" transform="translate(197.1328125,141.6875)"/>
<path d="M0 0 C4.71372937 2.63856166 6.99572627 6.2996788 8.6875 11.375 C9.22527752 17.72077479 8.33500139 22.08553657 4.6875 27.375 C-0.614724 32.29849371 -4.17821974 32.73326982 -11.26171875 32.6484375 C-15.79301768 32.24230315 -17.76809207 31.25483145 -21.3125 28.375 C-24.71171073 24.16248118 -26.21877696 19.81093656 -26.3125 14.375 C-25.27242428 8.12359753 -22.98116159 4.37657494 -18.03125 0.46875 C-12.60663253 -2.9832793 -5.69230979 -2.56900123 0 0 Z " fill="#C36833" transform="translate(131.3125,243.625)"/>
<path d="M0 0 C4.79698517 3.34673384 7.58687509 6.59507273 9.1875 12.1875 C10.06922824 17.2724182 9.25588673 21.40130678 6.6875 25.875 C3.56801091 29.30356289 0.08419989 32.63254777 -4.66796875 33.11328125 C-11.1921256 33.28425915 -15.1004057 32.91703231 -20.3125 28.875 C-24.52038028 23.44904911 -26.15791236 18.73631767 -25.3125 11.875 C-23.67575917 6.20374515 -20.75598092 2.56953424 -15.59375 -0.28125 C-10.28184176 -2.24592839 -5.28236982 -1.79401239 0 0 Z " fill="#C36933" transform="translate(373.3125,195.125)"/>
</svg>
