<?xml version="1.0" encoding="UTF-8"?>
<svg version="1.1" xmlns="http://www.w3.org/2000/svg" width="512" height="512">
<path d="M0 0 C1.21895696 -0.00307895 1.21895696 -0.00307895 2.46253932 -0.0062201 C5.20292747 -0.01190318 7.94326557 -0.01043124 10.6836586 -0.00901413 C12.66131404 -0.01159701 14.63896897 -0.01460996 16.61662316 -0.01801753 C22.06489889 -0.02609976 27.51316146 -0.02787778 32.96144247 -0.028615 C38.8320676 -0.03046342 44.70268587 -0.03800966 50.57330704 -0.04475021 C64.08603443 -0.05905147 77.59876001 -0.0648611 91.11149357 -0.06944216 C97.78822782 -0.07177779 104.46496131 -0.07538039 111.14169489 -0.07913754 C133.99463925 -0.09197294 156.84758312 -0.10269237 179.70053101 -0.10614014 C181.1351779 -0.10636177 182.56982479 -0.10658355 184.00447167 -0.10680549 C185.44259184 -0.10702613 186.880712 -0.10724661 188.31883216 -0.10746694 C191.20397043 -0.10790949 194.08910871 -0.1083566 196.97424698 -0.10880661 C197.68959385 -0.108916 198.40494073 -0.10902539 199.14196478 -0.1091381 C222.34019728 -0.11276921 245.53839853 -0.12869134 268.73661907 -0.15199697 C293.26040516 -0.17658929 317.7841734 -0.19031269 342.30797219 -0.19150805 C344.99971152 -0.19167951 347.69145084 -0.19189494 350.38319016 -0.19214249 C351.045977 -0.19219826 351.70876385 -0.19225402 352.39163514 -0.19231148 C362.39983517 -0.19339114 372.40800573 -0.20275641 382.41619492 -0.21632767 C393.7992646 -0.23170866 405.18228075 -0.23686093 416.56535885 -0.22858956 C422.37488251 -0.22467604 428.18429828 -0.22564697 433.99380875 -0.23964691 C439.31101286 -0.2523435 444.62802753 -0.25122565 449.94523123 -0.2390562 C451.86987294 -0.23709184 453.79452789 -0.24021156 455.71915099 -0.24890056 C458.33442105 -0.25996103 460.94901871 -0.25252721 463.56427002 -0.24050903 C464.31219633 -0.24810423 465.06012264 -0.25569942 465.83071339 -0.26352477 C472.32392618 -0.19907003 477.77465812 1.22369335 482.84631729 5.50642776 C488.53957443 12.33833633 488.82502053 17.41899205 488.03381729 26.13142776 C481.65881819 66.03892217 452.33156677 100.62605621 420.90881729 124.19392776 C419.86455582 124.98754715 419.86455582 124.98754715 418.79919815 125.79719925 C417.28120996 126.90916122 415.73452892 127.98266998 414.16613674 129.02233028 C412.52352042 130.12835986 410.8851981 131.24413547 409.30733645 132.44073164 C394.80160934 143.38006295 380.45258011 143.72190149 362.98004043 143.52542198 C359.09512496 143.49397502 355.21062809 143.5268083 351.32573318 143.55096817 C343.74252959 143.58807667 336.16060185 143.56680605 328.57746973 143.52435406 C319.72919035 143.47671531 310.88121563 143.48510563 302.03284536 143.49467555 C286.23855991 143.50957895 270.44488082 143.46979644 254.65076065 143.40071487 C239.35529455 143.33382566 224.06060973 143.31264401 208.76501846 143.33919144 C192.06617873 143.36811578 175.36769454 143.37169007 158.6688655 143.33150941 C156.88608002 143.32725086 155.1032945 143.32300416 153.32050896 143.31876945 C152.44356841 143.31665029 151.56662786 143.31453112 150.66311335 143.31234774 C144.50735604 143.2990284 138.35175144 143.30305072 132.19599342 143.3134861 C124.68961455 143.32550337 117.18395723 143.30805989 109.67775264 143.25408395 C105.85386889 143.22723449 102.03106766 143.21266035 98.20711899 143.23311234 C69.26662949 143.3712223 69.26662949 143.3712223 58.03381729 134.13142776 C56.55059307 133.15856299 55.05927171 132.19767887 53.55334854 131.26033401 C52.31265791 130.41215278 51.0768343 129.55680233 49.84631729 128.69392776 C49.17761612 128.2285762 48.50891495 127.76322464 47.8199501 127.28377151 C14.09545817 103.55832404 -14.38573928 70.00681523 -23.52477646 28.96736526 C-24.6090867 22.00091184 -25.4756775 14.92307031 -21.90368271 8.56892776 C-16.33816985 1.07445874 -8.78483872 -0.02052648 0 0 Z M411.34631729 63.25642776 C397.67740221 78.34879682 381.86311268 89.42459311 363.95959854 98.97517776 C357.66873937 102.23112289 357.66873937 102.23112289 352.59631729 107.00642776 C351.48047142 111.22184551 352.524419 114.24977687 354.65881729 117.94392776 C357.83019842 120.8649367 359.75102686 120.95151546 364.03381729 121.13142776 C366.737898 120.17704634 368.92517275 119.2334079 371.40881729 117.88142776 C372.09435684 117.52226273 372.77989639 117.16309769 373.48620987 116.79304886 C391.3681674 107.21031484 407.3842057 95.11038475 422.03381729 81.13142776 C422.82143448 80.38506058 423.60905167 79.63869339 424.42053604 78.86970901 C431.22827458 72.51103131 431.22827458 72.51103131 434.47131729 64.06892776 C433.9680069 60.68955798 433.12765342 58.82350278 431.03381729 56.13142776 C422.90439335 50.44083101 416.66497314 57.2047046 411.34631729 63.25642776 Z " fill="#489F67" transform="translate(23.966182708740234,305.8685722351074)"/>
<path d="M0 0 C8.84148443 7.46000249 14.82625105 16.41834519 16.375 28.02734375 C16.69115796 34.69334085 16.55133769 41.35916672 16.375 48.02734375 C16.99246094 48.23488281 17.60992187 48.44242188 18.24609375 48.65625 C30.05520957 52.95210796 39.21994389 60.75941485 44.9140625 72.08984375 C52.20567186 89.14623992 53.29000333 105.97994713 47.1640625 123.48828125 C45.98427401 126.38412572 44.73088008 129.21027252 43.375 132.02734375 C43.04886719 132.71054688 42.72273437 133.39375 42.38671875 134.09765625 C41.73846584 135.41874039 41.06186431 136.72591663 40.375 138.02734375 C41.035 138.21296875 41.695 138.39859375 42.375 138.58984375 C50.3792536 142.42521527 55.74806574 149.03524967 59.375 157.02734375 C60.365 160.32734375 61.355 163.62734375 62.375 167.02734375 C26.075 167.02734375 -10.225 167.02734375 -47.625 167.02734375 C-46.625 160.02734375 -46.625 160.02734375 -45.17651367 158.42919922 C-44.55494385 158.08775879 -43.93337402 157.74631836 -43.29296875 157.39453125 C-42.58591797 156.98726807 -41.87886719 156.58000488 -41.15039062 156.16040039 C-40.37888672 155.7452417 -39.60738281 155.33008301 -38.8125 154.90234375 C-37.17933696 153.96380741 -35.54789215 153.02227629 -33.91796875 152.078125 C-32.62898682 151.34263428 -32.62898682 151.34263428 -31.31396484 150.59228516 C-26.66770363 147.88822356 -22.14508166 144.99840372 -17.625 142.08984375 C-16.7589917 141.54634277 -15.8929834 141.0028418 -15.00073242 140.44287109 C-14.19611572 139.92547363 -13.39149902 139.40807617 -12.5625 138.875 C-11.84964844 138.42133057 -11.13679687 137.96766113 -10.40234375 137.50024414 C-8.36182112 135.8092451 -7.53578653 134.50561999 -6.625 132.02734375 C-6.70015049 127.81891611 -6.97301397 125.75384247 -9.8125 122.58984375 C-13.15798486 120.73124105 -14.84105442 120.69631454 -18.625 121.02734375 C-21.29454053 122.17418901 -21.29454053 122.17418901 -23.8046875 123.87109375 C-24.7328125 124.45761719 -25.6609375 125.04414063 -26.6171875 125.6484375 C-27.56851563 126.26847656 -28.51984375 126.88851562 -29.5 127.52734375 C-30.47453125 128.14738281 -31.4490625 128.76742187 -32.453125 129.40625 C-34.85171075 130.93476053 -37.24162648 132.47526145 -39.625 134.02734375 C-40.56579728 131.01197865 -40.63017648 129.0181408 -39.91235352 125.95239258 C-39.73209122 125.1608931 -39.55182892 124.36939362 -39.36610413 123.5539093 C-39.16407883 122.70596298 -38.96205353 121.85801666 -38.75390625 120.984375 C-38.5527269 120.10134201 -38.35154755 119.21830902 -38.14427185 118.30851746 C-37.28490395 114.53702628 -36.40483285 110.77045771 -35.52514648 107.00366211 C-34.88506927 104.24900557 -34.2567214 101.49184772 -33.62890625 98.734375 C-33.42890518 97.89654984 -33.22890411 97.05872467 -33.02284241 96.19551086 C-30.71720796 86.60232636 -30.71720796 86.60232636 -33.1875 77.52734375 C-36.96852622 75.20055838 -40.51012565 74.61611818 -44.875 75.46484375 C-49.66606887 79.74258381 -50.57367312 88.60570904 -51.8515625 94.671875 C-52.04471039 95.56347824 -52.23785828 96.45508148 -52.43685913 97.373703 C-53.04692553 100.19456061 -53.64882659 103.01707886 -54.25 105.83984375 C-54.85984753 108.68010764 -55.47140042 111.51999308 -56.08456421 114.35954285 C-56.46413145 116.11972623 -56.84151342 117.8803826 -57.21646118 119.64155579 C-57.38688934 120.43635849 -57.5573175 121.23116119 -57.73291016 122.05004883 C-57.88152496 122.74761795 -58.03013977 123.44518707 -58.18325806 124.16389465 C-58.625 126.02734375 -58.625 126.02734375 -59.625 129.02734375 C-62.99395839 127.90435762 -63.22493985 127.512045 -64.9296875 124.60546875 C-65.34863281 123.909375 -65.76757812 123.21328125 -66.19921875 122.49609375 C-66.62847656 121.76390625 -67.05773437 121.03171875 -67.5 120.27734375 C-70.41872924 115.31461147 -73.11695066 110.74070491 -77.625 107.02734375 C-81.37912801 106.10600098 -84.98093938 106.81265688 -88.625 108.02734375 C-90.70697955 113.51619893 -90.96349084 115.71065713 -88.53134155 121.17764282 C-87.16553783 123.96503396 -85.51168134 126.50248784 -83.7890625 129.08203125 C-83.24721817 129.90080246 -83.24721817 129.90080246 -82.69442749 130.7361145 C-81.55158952 132.4617872 -80.40146388 134.18241728 -79.25 135.90234375 C-76.34335258 140.2573758 -73.47335809 144.63382569 -70.625 149.02734375 C-70.05620117 149.85524414 -69.48740234 150.68314453 -68.90136719 151.53613281 C-68.42602539 152.27831055 -67.95068359 153.02048828 -67.4609375 153.78515625 C-67.05149902 154.39762207 -66.64206055 155.01008789 -66.22021484 155.64111328 C-65.625 158.02734375 -65.625 158.02734375 -67.625 167.02734375 C-105.575 167.02734375 -143.525 167.02734375 -182.625 167.02734375 C-182.625 145.48700547 -179.01735051 127.05029335 -163.625 111.02734375 C-154.85637328 102.91519175 -146.51986853 99.47201173 -134.625 99.02734375 C-134.78484375 98.32480469 -134.9446875 97.62226563 -135.109375 96.8984375 C-137.75271232 82.17985467 -134.28089419 64.86909292 -125.88671875 52.45703125 C-124.19108197 50.25669744 -122.42737041 48.14031683 -120.625 46.02734375 C-120.026875 45.16109375 -119.42875 44.29484375 -118.8125 43.40234375 C-111.74662871 35.73082634 -100.15814917 28.68280757 -89.56225586 27.86889648 C-87.43370696 27.83189742 -85.31570503 27.85171856 -83.1875 27.90234375 C-82.09018555 27.91587891 -82.09018555 27.91587891 -80.97070312 27.9296875 C-79.18865702 27.95298222 -77.40678241 27.98884185 -75.625 28.02734375 C-75.33367187 27.12113281 -75.04234375 26.21492188 -74.7421875 25.28125 C-72.23632168 17.83457327 -69.61157183 11.19884354 -64.625 5.02734375 C-64.12484375 4.4034375 -63.6246875 3.77953125 -63.109375 3.13671875 C-47.21999784 -14.60384798 -18.04565101 -13.5610919 0 0 Z " fill="#489F67" transform="translate(313.625,119.97265625)"/>
<path d="M0 0 C91.74 0 183.48 0 278 0 C278 25 278 25 274 32 C268.33152806 36.40909893 263.50607223 36.57244486 256.48657227 36.50793457 C255.44014085 36.51417453 254.39370943 36.5204145 253.31556797 36.52684355 C249.81561695 36.54277476 246.31636222 36.5301682 242.81640625 36.51757812 C240.30459182 36.52299915 237.79278057 36.5301217 235.28097534 36.53881836 C229.17072256 36.55516317 223.06072684 36.55277255 216.95047069 36.5411678 C211.9835758 36.53212592 207.01673597 36.53091272 202.04983521 36.53526306 C200.98855072 36.53618246 200.98855072 36.53618246 199.90582615 36.53712043 C198.46840499 36.53839936 197.03098385 36.53969622 195.59356272 36.5410108 C182.12200383 36.5524108 168.65055391 36.53931203 155.17901289 36.51780933 C143.62547227 36.49993884 132.07209241 36.50304312 120.51855469 36.52148438 C107.09446409 36.54290137 93.67046894 36.55131222 80.24636364 36.53903532 C78.81429737 36.53776115 77.38223109 36.53650367 75.95016479 36.53526306 C75.24560247 36.53464596 74.54104014 36.53402886 73.81512743 36.53339306 C68.85549821 36.52994263 63.89592964 36.53576184 58.93630981 36.54518127 C52.25824171 36.5575859 45.58052382 36.54872577 38.90246964 36.52560425 C36.4510969 36.52031367 33.99969862 36.52183684 31.54833603 36.53065491 C28.20302114 36.54157952 24.85868049 36.52788261 21.51342773 36.50793457 C20.5425097 36.51685746 19.57159166 36.52578034 18.57125187 36.53497362 C12.52760285 36.46503424 8.82704696 35.75461462 4 32 C0 25 0 25 0 0 Z " fill="#489F67" transform="translate(117,468)"/>
<path d="M0 0 C0.94746094 0.4125 1.89492188 0.825 2.87109375 1.25 C15.42498815 7.37894706 23.09195504 17.18609852 28 30 C30.04112008 36.69388441 30.25087945 43.10523935 30.125 50.0625 C30.11597656 51.02349609 30.10695313 51.98449219 30.09765625 52.97460938 C30.07435208 55.31667805 30.04164058 57.65819792 30 60 C30.75023437 60.20753906 31.50046875 60.41507812 32.2734375 60.62890625 C47.72669192 65.2804526 58.38864936 74.90356063 66 89 C70.15979019 98.21958776 73 106.87465577 73 117 C46.27 117 19.54 117 -8 117 C-9.485 112.545 -9.485 112.545 -11 108 C-15.66544286 94.809825 -15.66544286 94.809825 -24.2890625 84.20703125 C-26 82 -26 82 -25.55078125 78.35546875 C-25.16157248 76.95936494 -24.74778115 75.56993251 -24.3125 74.1875 C-23.90936153 72.80697758 -23.50958886 71.42546759 -23.11328125 70.04296875 C-22.91782715 69.36210205 -22.72237305 68.68123535 -22.52099609 67.97973633 C-17.60999062 49.31837581 -21.35560291 27.43662749 -30.7734375 10.8828125 C-32.95411149 7.41397666 -35.18313317 4.04253095 -37.7109375 0.81640625 C-39 -1 -39 -1 -39 -3 C-27.35129608 -6.88290131 -11.04750601 -4.9721546 0 0 Z " fill="#489F67" transform="translate(404,170)"/>
<path d="M0 0 C14.62652774 12.41429227 24.67340658 27.00364391 27.66015625 46.2578125 C27.95118422 50.19969785 27.99447584 54.11878543 27.97265625 58.0703125 C27.9670166 59.12968018 27.96137695 60.18904785 27.95556641 61.28051758 C27.66748967 79.81297908 27.66748967 79.81297908 21.97265625 85.5078125 C18.05085032 87.57970997 14.97400025 87.84119655 10.66015625 87.2578125 C7.78781179 86.28793884 5.19491366 84.95299861 2.53515625 83.5078125 C1.85839844 83.15976563 1.18164062 82.81171875 0.484375 82.453125 C-12.06196345 75.90087861 -12.06196345 75.90087861 -14.33984375 71.2578125 C-14.45262368 68.33999317 -14.42571226 65.59777156 -14.27734375 62.6953125 C-14.05380111 52.7167283 -15.5423954 45.36213168 -21.90234375 37.3828125 C-28.34716299 30.77182849 -35.21216409 28.01462385 -44.40234375 27.6953125 C-54.89100284 28.14139506 -61.42051708 31.82345004 -69.30859375 38.55078125 C-71.62830577 40.50023154 -72.8354946 41.18598813 -75.8359375 41.61328125 C-80.94052163 41.09542489 -84.88195879 38.90160101 -89.40234375 36.5703125 C-90.28728516 36.13525391 -91.17222656 35.70019531 -92.08398438 35.25195312 C-96.95349588 32.78614648 -100.87732406 30.51671172 -104.33984375 26.2578125 C-105.65630856 22.10055521 -106.12045925 19.95645521 -104.296875 15.98828125 C-94.50960055 0.58578768 -78.22447068 -8.94960621 -60.74609375 -13.21875 C-39.61309938 -17.81586241 -17.16138489 -13.29438652 0 0 Z " fill="#489F67" transform="translate(467.33984375,62.7421875)"/>
<path d="M0 0 C1.37901489 -0.0009668 1.37901489 -0.0009668 2.78588867 -0.00195312 C9.62581166 0.05104619 16.06916579 0.63832105 22.75 2.1875 C22.75 3.1775 22.75 4.1675 22.75 5.1875 C20.625 6.9140625 20.625 6.9140625 17.75 8.8125 C11.29800841 13.32972448 5.7977428 18.36442056 2.046875 25.3671875 C-0.57769868 28.58987831 -2.18281497 28.99978585 -6.23974609 29.4753418 C-7.00625488 29.545354 -7.77276367 29.61536621 -8.5625 29.6875 C-26.4316673 32.02179312 -42.58860739 40.16430636 -54.25 54.1875 C-60.20573474 62.17737732 -64.3416211 70.02968961 -67.375 79.51953125 C-68.25 82.1875 -68.25 82.1875 -69.25 83.1875 C-71.39558827 83.27525605 -73.54404421 83.29445219 -75.69140625 83.28515625 C-76.99658203 83.28193359 -78.30175781 83.27871094 -79.64648438 83.27539062 C-81.0351569 83.26703401 -82.42382877 83.25856905 -83.8125 83.25 C-85.20507656 83.24498666 -86.59765481 83.24042347 -87.99023438 83.23632812 C-91.4101987 83.22449434 -94.83007844 83.2080088 -98.25 83.1875 C-94.93624785 65.08931517 -88.13141651 49.34069787 -76.25 35.1875 C-75.50169922 34.21490234 -75.50169922 34.21490234 -74.73828125 33.22265625 C-60.5606827 15.30769647 -36.68772895 4.04885362 -14.44921875 0.59765625 C-9.63786124 0.04844891 -4.83840481 -0.00351788 0 0 Z " fill="#489F67" transform="translate(126.25,203.8125)"/>
<path d="M0 0 C4.70163441 3.23429426 5.29367736 7.61148274 6.4609375 12.921875 C8.68974512 25.64868954 5.32269934 38.41918333 -2 49 C-9.37800108 58.47298904 -21.04736202 65.29248029 -33 67 C-45.75134986 68.09000684 -57.68985527 65.74383774 -67.9296875 57.78515625 C-68.61289063 57.19605469 -69.29609375 56.60695312 -70 56 C-70.58007812 55.50371094 -71.16015625 55.00742187 -71.7578125 54.49609375 C-73.67264779 52.57602667 -74.86481697 50.74651072 -75.3515625 48.05859375 C-75.29252214 44.94716673 -74.78068293 42.76600651 -72.51953125 40.54736328 C-66.72361876 36.41105357 -60.74894995 32.60969024 -54.6875 28.875 C-52.54660029 27.54731787 -50.40597863 26.21918728 -48.265625 24.890625 C-47.20794922 24.23513672 -46.15027344 23.57964844 -45.06054688 22.90429688 C-41.45860187 20.66313773 -37.87382387 18.39602564 -34.29345703 16.12060547 C-31.25331881 14.19066902 -28.20320788 12.2767832 -25.15332031 10.36230469 C-23.01598729 9.01011441 -20.89458175 7.63521753 -18.7734375 6.2578125 C-17.45362292 5.42108908 -16.1333364 4.58510946 -14.8125 3.75 C-13.94902954 3.17499756 -13.94902954 3.17499756 -13.06811523 2.58837891 C-8.45102329 -0.28492732 -5.27468795 -0.66809122 0 0 Z " fill="#489F67" transform="translate(254,8)"/>
<path d="M0 0 C6.80326213 4.93980783 11.23989424 10.51571306 15 18 C15.36351563 18.69222656 15.72703125 19.38445312 16.1015625 20.09765625 C18.1704608 24.62224688 18.27651296 28.16898154 16.91796875 32.9609375 C14.31446772 38.74403341 7.62361798 41.73671614 2 44 C-9.92052251 48.04601676 -23.62653396 47.35417553 -35 42 C-46.79476075 36.17159483 -54.1920507 28.30171854 -59 16 C-60.18874488 12.00635148 -60.26547138 8.94811206 -59.125 4.875 C-45.75346726 -13.21589724 -17.09519788 -10.77923807 0 0 Z " fill="#489F67" transform="translate(111,94)"/>
<path d="M0 0 C-0.20496094 0.79019531 -0.40992188 1.58039063 -0.62109375 2.39453125 C-3.07851326 12.68277083 -3.6170907 22.43170329 -4 33 C-15.22 33 -26.44 33 -38 33 C-36.18474649 22.10847895 -29.25596472 13.50204358 -20.39453125 7.125 C-6.51736757 -2.06263941 -6.51736757 -2.06263941 0 0 Z " fill="#489E68" transform="translate(116,254)"/>
</svg>
