<?xml version="1.0" encoding="UTF-8"?>
<svg version="1.1" xmlns="http://www.w3.org/2000/svg" width="512" height="512">
<path d="M0 0 C1.2998584 0.28206299 1.2998584 0.28206299 2.62597656 0.56982422 C55.23840254 12.1519292 100.51407289 43.95633813 129.6015625 89.1875 C130.40356388 90.45674312 131.20308391 91.72755784 132 93 C132.56799316 93.89912109 132.56799316 93.89912109 133.14746094 94.81640625 C144.9753301 113.81485698 152.27528323 135.22662657 157 157 C157.26466064 158.13743652 157.26466064 158.13743652 157.53466797 159.29785156 C161.77306264 178.0408813 160.2709085 197.91137029 160 217 C156.04219981 216.25439398 152.47495497 215.13043342 148.6875 213.75 C141.70022092 211.36904214 134.68957612 209.78175535 127.45703125 208.328125 C126.35153931 208.10205566 125.24604736 207.87598633 124.10705566 207.64306641 C121.40551945 207.09122599 118.70319633 206.54363907 116 206 C115.99191315 205.24689041 115.98382629 204.49378082 115.97549438 203.71784973 C115.89746846 196.61136248 115.81015377 189.50506373 115.71247292 182.39882374 C115.66258312 178.74565726 115.61625271 175.09251866 115.578125 171.43920898 C115.54117936 167.91182174 115.49479479 164.38467205 115.44193649 160.85748863 C115.41445709 158.86070403 115.39668716 156.86379345 115.37905884 154.86689758 C115.3492543 153.03556526 115.3492543 153.03556526 115.31884766 151.16723633 C115.29886215 149.55840324 115.29886215 149.55840324 115.2784729 147.91706848 C114.98986106 144.89379229 114.37177827 142.70247251 113 140 C110.05653313 138.52826656 108.30819685 138.66276115 105 139 C101.68031141 140.30554389 98.57897397 141.98063588 95.4375 143.6640625 C93.57051946 144.6306082 91.70332542 145.5967416 89.8359375 146.5625 C86.90930871 148.09423037 83.98626883 149.63227482 81.06738281 151.17871094 C78.24106872 152.67029749 75.40290995 154.13704295 72.5625 155.6015625 C71.25913696 156.3060704 71.25913696 156.3060704 69.92944336 157.02481079 C63.83532805 160.14654244 63.83532805 160.14654244 59.61547852 159.40625 C55.29040693 157.08081246 55.29040693 157.08081246 53.58984375 155.8984375 C52.70244507 155.29225586 52.70244507 155.29225586 51.79711914 154.67382812 C51.18344482 154.24521484 50.56977051 153.81660156 49.9375 153.375 C43.85732833 149.20643491 37.67267497 145.32643248 31.31640625 141.59375 C30.55199219 141.0678125 29.78757812 140.541875 29 140 C29 139.34 29 138.68 29 138 C29.6290625 137.78085938 30.258125 137.56171875 30.90625 137.3359375 C43.80584421 132.55687097 53.00357563 123.9925737 58.9921875 111.5546875 C63.55019087 100.00067895 63.91578348 86.30516517 59.3203125 74.671875 C52.73717465 61.34978539 42.82889733 53.39972366 29.26953125 47.890625 C17.11724086 44.58032368 3.19120135 46.37071197 -7.66796875 52.5078125 C-19.29564192 60.07195692 -26.79873548 70.50392007 -30 84 C-30.28992583 86.90201951 -30.33248716 89.77249755 -30.3125 92.6875 C-30.31121094 93.47044434 -30.30992187 94.25338867 -30.30859375 95.06005859 C-30.2003229 101.66052038 -29.0690204 107.71904523 -27 114 C-33.23505228 113.35714676 -39.3861106 112.49994065 -45.5625 111.4375 C-46.38041016 111.29892578 -47.19832031 111.16035156 -48.04101562 111.01757812 C-50.02772915 110.6806501 -52.01392199 110.34065416 -54 110 C-53.59007812 109.14277344 -53.18015625 108.28554687 -52.7578125 107.40234375 C-52.21898437 106.25894531 -51.68015625 105.11554688 -51.125 103.9375 C-50.59132812 102.81214844 -50.05765625 101.68679687 -49.5078125 100.52734375 C-44.46805276 88.73743949 -43.9290333 74.69800662 -48.6796875 62.671875 C-55.26282535 49.34978539 -65.17110267 41.39972366 -78.73046875 35.890625 C-90.88275914 32.58032368 -104.80879865 34.37071197 -115.66796875 40.5078125 C-127.30373988 48.07722488 -134.78418594 58.50204363 -138 72 C-139.57263922 86.59464743 -137.14279861 99.25777825 -128 111 C-126.05208198 113.39062666 -124.05582166 115.69943767 -122 118 C-122.680625 118.268125 -123.36125 118.53625 -124.0625 118.8125 C-132.31755424 122.14964959 -140.24768888 125.9784357 -148.15917969 130.05517578 C-149.76898004 130.88142609 -151.38770224 131.6902467 -153.0078125 132.49609375 C-175.58620932 144.11442331 -200.96810139 169.80223956 -210 194 C-210.65544836 199.20757323 -209.0290125 202.51986776 -206.3125 206.8125 C-205.91458252 207.45558105 -205.51666504 208.09866211 -205.10668945 208.76123047 C-196.78589656 221.90331406 -186.90925259 233.93600624 -176 245 C-175.26652344 245.74636719 -174.53304687 246.49273437 -173.77734375 247.26171875 C-163.11783938 257.40319113 -149.10811878 263.6514686 -136 270 C-134.66539603 270.66411931 -133.33130496 271.32929193 -132 272 C-131.96261719 273.08796875 -131.92523438 274.1759375 -131.88671875 275.296875 C-131.43500712 286.08379795 -130.18203459 295.9341505 -126 306 C-126.86625 306.85271484 -126.86625 306.85271484 -127.75 307.72265625 C-131.12564854 311.23309631 -133.66649147 313.92536139 -135.125 318.625 C-132.29220659 327.12338024 -119.08341038 331.91519823 -111.625 336 C-109.51241283 337.16556534 -107.40043194 338.33223024 -105.2890625 339.5 C-104.25297852 340.06847656 -103.21689453 340.63695312 -102.14941406 341.22265625 C-99.9925318 342.43987352 -97.85958178 343.70021473 -95.74902344 344.99609375 C-94.70520508 345.63675781 -93.66138672 346.27742188 -92.5859375 346.9375 C-91.65571777 347.52402344 -90.72549805 348.11054688 -89.76708984 348.71484375 C-85.54891078 350.67394862 -82.35298868 350.45099623 -78 349 C-77.0048217 346.50639601 -77.0048217 346.50639601 -76.375 343.5625 C-75.05063291 338.10126582 -75.05063291 338.10126582 -74 336 C-71.60408547 335.36410319 -69.23531506 334.82221411 -66.8125 334.3125 C-53.87205021 331.30735119 -40.77292059 325.71548918 -33.19140625 314.26953125 C-32.15291715 312.50385073 -31.14871599 310.71722912 -30.19140625 308.90625 C-29.79824219 308.2771875 -29.40507812 307.648125 -29 307 C-28.34 307 -27.68 307 -27 307 C-27.2165625 307.928125 -27.433125 308.85625 -27.65625 309.8125 C-33.36075259 336.96552656 -31.0679228 364.9012238 -21.171875 390.69140625 C-20 394 -20 394 -20 397 C-81.69574325 398.19574307 -134.96485032 383.80374404 -180.60546875 340.6171875 C-192.90312902 328.74870956 -202.94314845 315.46114568 -212 301 C-212.37866211 300.40058594 -212.75732422 299.80117188 -213.14746094 299.18359375 C-224.9753301 280.18514302 -232.27528323 258.77337343 -237 237 C-237.17644043 236.24170898 -237.35288086 235.48341797 -237.53466797 234.70214844 C-243.38980667 208.8095529 -242.13326383 177.65139632 -236 152 C-235.76394043 151.01225586 -235.52788086 150.02451172 -235.28466797 149.00683594 C-222.29531207 96.76466826 -189.37198448 53.41595936 -144 25 C-143.10087891 24.43200684 -143.10087891 24.43200684 -142.18359375 23.85253906 C-123.18514302 12.0246699 -101.77337343 4.72471677 -80 0 C-79.24170898 -0.17644043 -78.48341797 -0.35288086 -77.70214844 -0.53466797 C-53.70450886 -5.96129691 -23.92288855 -5.56641797 0 0 Z " fill="#7977E5" transform="translate(264,27)"/>
<path d="M0 0 C3.26701612 2.66358727 6.39330111 5.45632415 9.50390625 8.30078125 C10.70273437 9.37585938 10.70273437 9.37585938 11.92578125 10.47265625 C23.25289034 21.15709249 31.22417267 34.17323423 37.50390625 48.30078125 C38.22707031 49.89986328 38.22707031 49.89986328 38.96484375 51.53125 C50.78051581 79.78144774 49.75735979 113.27799334 38.81640625 141.55078125 C32.90163585 155.93577959 24.97055595 167.85479591 14.50390625 179.30078125 C13.7871875 180.1 13.07046875 180.89921875 12.33203125 181.72265625 C1.64253838 193.05512614 -11.36968274 201.0066886 -25.49609375 207.30078125 C-26.55054688 207.78289062 -27.605 208.265 -28.69140625 208.76171875 C-56.86326923 220.65010083 -90.59211526 219.58413017 -118.80859375 208.61328125 C-133.15670956 202.68516729 -145.07138452 194.74797525 -156.49609375 184.30078125 C-157.2953125 183.5840625 -158.09453125 182.86734375 -158.91796875 182.12890625 C-170.24507784 171.44447001 -178.21636017 158.42832827 -184.49609375 144.30078125 C-184.97820312 143.23472656 -185.4603125 142.16867187 -185.95703125 141.0703125 C-197.77270331 112.82011476 -196.74954729 79.32356916 -185.80859375 51.05078125 C-179.89382335 36.66578291 -171.96274345 24.74676659 -161.49609375 13.30078125 C-160.779375 12.5015625 -160.06265625 11.70234375 -159.32421875 10.87890625 C-148.63472588 -0.45356364 -135.62250476 -8.4051261 -121.49609375 -14.69921875 C-120.44164062 -15.18132812 -119.3871875 -15.6634375 -118.30078125 -16.16015625 C-80.31158865 -32.19140121 -32.31783025 -25.47213687 0 0 Z M-52.49609375 29.30078125 C-54.01203125 30.32171875 -54.01203125 30.32171875 -55.55859375 31.36328125 C-63.74364951 38.6537954 -68.1219195 48.97194335 -68.84375 59.6953125 C-69.41155875 72.98257302 -67.11906615 83.9887791 -58.33203125 94.42578125 C-54.84581904 97.98616818 -51.274768 100.70788983 -46.49609375 102.30078125 C-46.48729439 103.29556992 -46.48729439 103.29556992 -46.47831726 104.31045532 C-46.41431667 111.22140973 -46.32987918 118.13190135 -46.23364258 125.04248047 C-46.20041594 127.62054335 -46.17237702 130.19867858 -46.1496582 132.77685547 C-46.11607168 136.48566479 -46.06375131 140.19381245 -46.0078125 143.90234375 C-46.00142258 145.05256012 -45.99503265 146.20277649 -45.9884491 147.3878479 C-45.86068284 155.2663675 -45.86068284 155.2663675 -42.49609375 162.30078125 C-39.65525734 163.72119946 -37.64132097 163.61530397 -34.49609375 163.30078125 C-31.64828756 161.06871694 -30.64611709 159.75085126 -29.49609375 156.30078125 C-29.41484702 154.55768065 -29.39152356 152.81161285 -29.40185547 151.06665039 C-29.40450409 149.99866714 -29.40715271 148.9306839 -29.40988159 147.83033752 C-29.41512848 146.67718552 -29.42037537 145.52403351 -29.42578125 144.3359375 C-29.41719942 141.90298763 -29.4067244 139.47004383 -29.39453125 137.03710938 C-29.3778037 133.1939548 -29.37116703 129.35215765 -29.39648438 125.5090332 C-29.41738493 121.80464747 -29.39426878 118.10270553 -29.36328125 114.3984375 C-29.38067352 113.24730972 -29.3980658 112.09618195 -29.41598511 110.91017151 C-29.29780667 103.12718824 -29.29780667 103.12718824 -26.97525024 100.73309326 C-25.11132812 99.6652832 -25.11132812 99.6652832 -21.49609375 98.30078125 C-14.24046699 93.13611321 -9.13528958 84.91695804 -6.93359375 76.2890625 C-4.86151034 62.13599279 -6.07440464 49.38679623 -14.30859375 37.36328125 C-18.79664222 31.57386557 -23.45125037 27.63894048 -30.49609375 25.30078125 C-38.59601712 24.46853106 -45.72784559 24.49134374 -52.49609375 29.30078125 Z M-138.80859375 31.11328125 C-141.30336064 34.34723833 -141.62422144 36.94636151 -141.65722656 40.90478516 C-141.66683411 41.83650543 -141.67644165 42.76822571 -141.68634033 43.72817993 C-141.69059021 44.73440399 -141.69484009 45.74062805 -141.69921875 46.77734375 C-141.70491882 47.817164 -141.7106189 48.85698425 -141.7164917 49.92831421 C-141.72594384 52.1323749 -141.73247653 54.33644975 -141.73632812 56.54052734 C-141.74599589 59.89185761 -141.77700208 63.24256467 -141.80859375 66.59375 C-141.81512785 68.73827762 -141.82037672 70.88280962 -141.82421875 73.02734375 C-141.83656555 74.02142242 -141.84891235 75.0155011 -141.8616333 76.03970337 C-141.8410534 82.55862906 -141.47201951 89.59330282 -137.2210083 94.88931274 C-131.35665011 100.2529011 -124.94898348 100.38564852 -117.49609375 100.30078125 C-117.50275558 100.98902985 -117.50941742 101.67727844 -117.51628113 102.38638306 C-117.58270631 109.55653202 -117.62792444 116.72659341 -117.66088867 123.89697266 C-117.67426926 126.57227846 -117.6964276 129.24710274 -117.72241211 131.92236328 C-117.75884459 135.76991876 -117.77583203 139.61714711 -117.7890625 143.46484375 C-117.80454636 144.65880768 -117.82003021 145.85277161 -117.83598328 147.08291626 C-117.89721341 155.13000772 -117.89721341 155.13000772 -114.49609375 162.30078125 C-111.65525734 163.72119946 -109.64132097 163.61530397 -106.49609375 163.30078125 C-103.64828756 161.06871694 -102.64611709 159.75085126 -101.49609375 156.30078125 C-101.4078241 154.47545539 -101.37846172 152.64703436 -101.38256836 150.81958008 C-101.38264389 149.69864456 -101.38271942 148.57770905 -101.38279724 147.42280579 C-101.38795853 146.213358 -101.39311981 145.00391022 -101.3984375 143.7578125 C-101.39985245 142.51907883 -101.4012674 141.28034515 -101.40272522 140.0040741 C-101.40737773 136.71446588 -101.41635985 133.42490665 -101.4274292 130.13531494 C-101.43766746 126.77706502 -101.44222801 123.41880792 -101.44726562 120.06054688 C-101.4583023 113.47393913 -101.47504608 106.8873642 -101.49609375 100.30078125 C-98.49678802 100.32252502 -98.49678802 100.32252502 -95.4974823 100.3442688 C-90.9202491 100.24481152 -86.48013414 98.88993981 -82.88671875 96.01171875 C-76.96112651 89.49356728 -77.18773189 81.6039294 -77.1953125 73.328125 C-77.18888481 71.76621178 -77.18888481 71.76621178 -77.18232727 70.17274475 C-77.17660482 67.97999802 -77.17606827 65.78723231 -77.18041992 63.59448242 C-77.18358683 60.24560207 -77.16006997 56.89759991 -77.13476562 53.54882812 C-77.13249308 51.41276153 -77.13178893 49.27669256 -77.1328125 47.140625 C-77.12360275 46.14361069 -77.11439301 45.14659637 -77.10490417 44.11936951 C-77.14035493 38.78109286 -77.41901646 34.88099884 -80.49609375 30.30078125 C-83.33693016 28.88036304 -85.35086653 28.98625853 -88.49609375 29.30078125 C-91.34389994 31.53284556 -92.34607041 32.85071124 -93.49609375 36.30078125 C-93.58314804 37.88111317 -93.61377327 39.46488503 -93.60961914 41.04760742 C-93.60954361 42.00837692 -93.60946808 42.96914642 -93.60939026 43.95903015 C-93.60422897 44.9934877 -93.59906769 46.02794525 -93.59375 47.09375 C-93.59233505 48.15491531 -93.5909201 49.21608063 -93.58946228 50.30940247 C-93.58385981 53.7023906 -93.57130689 57.09531302 -93.55859375 60.48828125 C-93.55357907 62.78710842 -93.54901611 65.08593663 -93.54492188 67.38476562 C-93.53388958 73.02345997 -93.51714905 78.66211591 -93.49609375 84.30078125 C-96.13609375 84.30078125 -98.77609375 84.30078125 -101.49609375 84.30078125 C-101.48943192 83.71275726 -101.48277008 83.12473328 -101.47590637 82.51889038 C-101.40942491 76.38683552 -101.36423998 70.25488343 -101.33129883 64.12255859 C-101.31623259 61.8354069 -101.29577578 59.548284 -101.26977539 57.26123047 C-101.23329769 53.96965418 -101.21634541 50.67846063 -101.203125 47.38671875 C-101.18764114 46.36774506 -101.17215729 45.34877136 -101.15620422 44.29891968 C-101.15492938 38.89478335 -101.35697029 34.93052328 -104.49609375 30.30078125 C-107.33693016 28.88036304 -109.35086653 28.98625853 -112.49609375 29.30078125 C-115.34389994 31.53284556 -116.34607041 32.85071124 -117.49609375 36.30078125 C-117.58314804 37.88111317 -117.61377327 39.46488503 -117.60961914 41.04760742 C-117.60950584 42.48876167 -117.60950584 42.48876167 -117.60939026 43.95903015 C-117.60422897 44.9934877 -117.59906769 46.02794525 -117.59375 47.09375 C-117.59233505 48.15491531 -117.5909201 49.21608063 -117.58946228 50.30940247 C-117.58385981 53.7023906 -117.57130689 57.09531302 -117.55859375 60.48828125 C-117.55357907 62.78710842 -117.54901611 65.08593663 -117.54492188 67.38476562 C-117.53388958 73.02345997 -117.51714905 78.66211591 -117.49609375 84.30078125 C-120.13609375 84.30078125 -122.77609375 84.30078125 -125.49609375 84.30078125 C-125.48943192 83.71275726 -125.48277008 83.12473328 -125.47590637 82.51889038 C-125.40942491 76.38683552 -125.36423998 70.25488343 -125.33129883 64.12255859 C-125.31623259 61.8354069 -125.29577578 59.548284 -125.26977539 57.26123047 C-125.23329769 53.96965418 -125.21634541 50.67846063 -125.203125 47.38671875 C-125.18764114 46.36774506 -125.17215729 45.34877136 -125.15620422 44.29891968 C-125.15492938 38.89478335 -125.35697029 34.93052328 -128.49609375 30.30078125 C-132.29140854 28.40312386 -135.4693134 28.49600746 -138.80859375 31.11328125 Z " fill="#7977E5" transform="translate(441.49609375,271.69921875)"/>
<path d="M0 0 C1.00804687 0.55300781 2.01609375 1.10601562 3.0546875 1.67578125 C12.81198023 7.21549081 22.13970404 13.50399434 31.52050781 19.65185547 C34.07004021 21.31922843 36.62796338 22.97303706 39.1875 24.625 C39.97713135 25.14602295 40.7667627 25.6670459 41.58032227 26.20385742 C47.33476346 29.94600608 47.33476346 29.94600608 54 31 C56.64744591 29.96978546 58.911 28.92137966 61.375 27.5625 C62.78494989 26.82122195 64.1951127 26.08034876 65.60546875 25.33984375 C66.32653809 24.95425293 67.04760742 24.56866211 67.79052734 24.17138672 C71.39241248 22.2617906 75.0399547 20.44537563 78.6875 18.625 C79.3460498 18.29185791 80.00459961 17.95871582 80.68310547 17.61547852 C84.08806967 15.90244657 87.45091657 14.41963337 91 13 C91 29.17 91 45.34 91 62 C81.595 62.99 81.595 62.99 72 64 C43.52630297 69.48382313 11.34478458 83.75545698 -6.21484375 108.06640625 C-9.56308244 112.16895472 -14.19404217 113.48482999 -19.0625 115.1875 C-19.99900391 115.52773193 -20.93550781 115.86796387 -21.90039062 116.21850586 C-40.8493149 122.98668132 -40.8493149 122.98668132 -47 121 C-48.67578125 119.50390625 -48.67578125 119.50390625 -50.3125 117.5625 C-54.11099706 113.55497748 -58.21278731 110.70179694 -62.875 107.8125 C-63.52251221 107.409104 -64.17002441 107.00570801 -64.8371582 106.59008789 C-68.56201705 104.32670115 -72.35744244 102.28743181 -76.26220703 100.3503418 C-77.15247589 99.9078862 -78.04274475 99.4654306 -78.95999146 99.00956726 C-79.96979568 98.50983147 -79.96979568 98.50983147 -81 98 C-81.00808685 96.84599197 -81.01617371 95.69198395 -81.02450562 94.50300598 C-81.10197969 83.62923392 -81.18972232 72.75558679 -81.28752708 61.88197803 C-81.3374796 56.29170528 -81.38380988 50.70145133 -81.421875 45.11108398 C-81.45874078 39.7163961 -81.50510454 34.32186591 -81.55806351 28.92731285 C-81.57660052 26.8688604 -81.59171104 24.81037415 -81.60334396 22.75187111 C-81.62021806 19.86932848 -81.64925631 16.98714644 -81.68115234 14.10473633 C-81.68331253 13.25309402 -81.68547272 12.40145172 -81.68769836 11.52400208 C-81.7476016 7.28813817 -81.8934028 3.80011845 -84 0 C-86.79870027 -1.39935013 -88.90498792 -1.25265405 -92 -1 C-94.55949546 0.85342775 -94.97918798 1.93756393 -96 5 C-96.12026065 7.81354711 -96.18537479 10.60417015 -96.20532227 13.41870117 C-96.22017166 14.70682961 -96.22017166 14.70682961 -96.23532104 16.02098083 C-96.26692766 18.86161535 -96.29169021 21.7022666 -96.31640625 24.54296875 C-96.3369765 26.51166724 -96.35797299 28.48036132 -96.37937927 30.4490509 C-96.43459262 35.63248118 -96.48400518 40.81595127 -96.53222656 45.99945068 C-96.58244694 51.28808132 -96.63813021 56.57665409 -96.69335938 61.86523438 C-96.80093196 72.24344201 -96.90187421 82.62169875 -97 93 C-106.9 93.99 -106.9 93.99 -117 95 C-116.67 92.40125 -116.34 89.8025 -116 87.125 C-113.19614682 60.38417482 -113.82546527 32.53677948 -118 6 C-118.28949304 4.06907492 -118.57856011 2.13808592 -118.8671875 0.20703125 C-119.53823763 -4.20255829 -120.25298435 -8.60267383 -121 -13 C-82.99297568 -27.9432904 -34.75667558 -19.24697626 0 0 Z M-62.3125 7.8125 C-65.40873547 11.82613858 -65.15369643 15.74722169 -65.16113281 20.58911133 C-65.16609772 21.3601973 -65.17106262 22.13128326 -65.17617798 22.92573547 C-65.19078807 25.47784314 -65.19759993 28.02988863 -65.203125 30.58203125 C-65.20887773 32.35698956 -65.21463545 34.13194785 -65.22039795 35.90690613 C-65.23090488 39.63007903 -65.23674945 43.35323037 -65.24023438 47.07641602 C-65.24571621 51.84124728 -65.26973884 56.60579237 -65.29820633 61.37053394 C-65.31685449 65.03802822 -65.32203948 68.70545389 -65.32357025 72.37299156 C-65.32659276 74.12922415 -65.33460774 75.88545564 -65.34775543 77.64164162 C-65.36486045 80.1022158 -65.36292493 82.56209513 -65.35644531 85.02270508 C-65.3656601 85.74447937 -65.37487488 86.46625366 -65.3843689 87.2098999 C-65.34611604 91.86031982 -64.46596943 95.05512037 -62 99 C-59.15916359 100.42041821 -57.14522722 100.31452272 -54 100 C-51.15219381 97.76793569 -50.15002334 96.45007001 -49 93 C-48.89381274 90.461416 -48.84276668 87.94987876 -48.83886719 85.41088867 C-48.83390228 84.6398027 -48.82893738 83.86871674 -48.82382202 83.07426453 C-48.80921193 80.52215686 -48.80240007 77.97011137 -48.796875 75.41796875 C-48.79112227 73.64301044 -48.78536455 71.86805215 -48.77960205 70.09309387 C-48.76909512 66.36992097 -48.76325055 62.64676963 -48.75976562 58.92358398 C-48.75428379 54.15875272 -48.73026116 49.39420763 -48.70179367 44.62946606 C-48.68314551 40.96197178 -48.67796052 37.29454611 -48.67642975 33.62700844 C-48.67340724 31.87077585 -48.66539226 30.11454436 -48.65224457 28.35835838 C-48.63513955 25.8977842 -48.63707507 23.43790487 -48.64355469 20.97729492 C-48.6343399 20.25552063 -48.62512512 19.53374634 -48.6156311 18.7901001 C-48.65388396 14.13968018 -49.53403057 10.94487963 -52 7 C-55.79531479 5.10234261 -58.97321965 5.19522621 -62.3125 7.8125 Z M-30.3125 7.8125 C-33.40873547 11.82613858 -33.15369643 15.74722169 -33.16113281 20.58911133 C-33.16609772 21.3601973 -33.17106262 22.13128326 -33.17617798 22.92573547 C-33.19078807 25.47784314 -33.19759993 28.02988863 -33.203125 30.58203125 C-33.20887773 32.35698956 -33.21463545 34.13194785 -33.22039795 35.90690613 C-33.23090488 39.63007903 -33.23674945 43.35323037 -33.24023438 47.07641602 C-33.24571621 51.84124728 -33.26973884 56.60579237 -33.29820633 61.37053394 C-33.31685449 65.03802822 -33.32203948 68.70545389 -33.32357025 72.37299156 C-33.32659276 74.12922415 -33.33460774 75.88545564 -33.34775543 77.64164162 C-33.36486045 80.1022158 -33.36292493 82.56209513 -33.35644531 85.02270508 C-33.3656601 85.74447937 -33.37487488 86.46625366 -33.3843689 87.2098999 C-33.34611604 91.86031982 -32.46596943 95.05512037 -30 99 C-27.15916359 100.42041821 -25.14522722 100.31452272 -22 100 C-19.15219381 97.76793569 -18.15002334 96.45007001 -17 93 C-16.89381274 90.461416 -16.84276668 87.94987876 -16.83886719 85.41088867 C-16.83390228 84.6398027 -16.82893738 83.86871674 -16.82382202 83.07426453 C-16.80921193 80.52215686 -16.80240007 77.97011137 -16.796875 75.41796875 C-16.79112227 73.64301044 -16.78536455 71.86805215 -16.77960205 70.09309387 C-16.76909512 66.36992097 -16.76325055 62.64676963 -16.75976562 58.92358398 C-16.75428379 54.15875272 -16.73026116 49.39420763 -16.70179367 44.62946606 C-16.68314551 40.96197178 -16.67796052 37.29454611 -16.67642975 33.62700844 C-16.67340724 31.87077585 -16.66539226 30.11454436 -16.65224457 28.35835838 C-16.63513955 25.8977842 -16.63707507 23.43790487 -16.64355469 20.97729492 C-16.6343399 20.25552063 -16.62512512 19.53374634 -16.6156311 18.7901001 C-16.65388396 14.13968018 -17.53403057 10.94487963 -20 7 C-23.79531479 5.10234261 -26.97321965 5.19522621 -30.3125 7.8125 Z " fill="#7977E5" transform="translate(273,171)"/>
<path d="M0 0 C8.50520405 33.17632787 14.91143086 90.17713829 -1 122 C-7.40899862 120.09630895 -13.12408466 117.60288679 -18.9375 114.3125 C-19.72600342 113.86753174 -20.51450684 113.42256348 -21.3269043 112.96411133 C-37.50940811 103.65429236 -50.19956921 90.06568566 -61 75 C-61.40186523 74.45359863 -61.80373047 73.90719727 -62.21777344 73.34423828 C-69.0087867 64.08252196 -69.0087867 64.08252196 -68.98046875 60.59375 C-67.65143117 57.07788962 -65.73471158 54.08400749 -63.625 51 C-63.17946777 50.34281982 -62.73393555 49.68563965 -62.27490234 49.00854492 C-57.62630299 42.27399403 -52.51034133 36.04268674 -47 30 C-46.52836426 29.47776855 -46.05672852 28.95553711 -45.57080078 28.41748047 C-33.99976149 15.75712559 -20.33430785 8.33054717 -5 1 C-3 0 -3 0 0 0 Z " fill="#7977E5" transform="translate(138,163)"/>
<path d="M0 0 C11.88918266 6.17635514 21.69654869 13.86798901 28.17871094 25.75195312 C30.21131646 32.18853728 30.1222306 37.15922018 27.36621094 43.37695312 C22.1504431 52.85079131 13.58164644 58.35903059 3.49121094 61.50195312 C-0.69050278 62.45422456 -4.90636589 62.72645752 -9.18066406 62.97070312 C-11.84441927 63.33469452 -13.4831594 63.79049981 -15.69628906 65.31445312 C-16.81102041 67.24549221 -16.81102041 67.24549221 -17.44628906 69.43945312 C-17.80980469 70.52613281 -17.80980469 70.52613281 -18.18066406 71.63476562 C-18.35082031 72.1890625 -18.52097656 72.74335938 -18.69628906 73.31445312 C-22.25734506 72.63668012 -24.98347985 71.16678284 -28.11816406 69.37304688 C-29.65537109 68.4980957 -29.65537109 68.4980957 -31.22363281 67.60546875 C-32.28710938 66.99380859 -33.35058594 66.38214844 -34.44628906 65.75195312 C-36.06470703 64.82866211 -36.06470703 64.82866211 -37.71582031 63.88671875 C-40.37845509 62.36689625 -43.03846602 60.84266969 -45.69628906 59.31445312 C-45.69628906 56.31445312 -45.69628906 56.31445312 -43.69628906 54.00195312 C-41.23454943 50.69399049 -41.34366389 49.36219273 -41.69628906 45.31445312 C-42.70884744 42.4328858 -42.70884744 42.4328858 -44.13378906 39.68945312 C-48.76048161 30.2778905 -49.07497782 19.41865191 -47.08300781 9.15429688 C-44.65229464 2.22622893 -39.87832422 -2.66569845 -33.28613281 -5.84960938 C-21.98868807 -9.49614508 -10.13198736 -5.02234345 0 0 Z M-32.56738281 9.07226562 C-37.5484982 16.66954126 -37.5484982 16.66954126 -37.69628906 25.31445312 C-36.2163575 27.87784001 -36.2163575 27.87784001 -33.69628906 29.31445312 C-30.69628906 29.98111979 -30.69628906 29.98111979 -27.69628906 29.31445312 C-24.07835673 26.2860006 -21.74193212 22.53278266 -19.38378906 18.50195312 C-19.01189453 17.91091797 -18.64 17.31988281 -18.25683594 16.7109375 C-16.29894653 13.36757701 -15.69316544 11.38911535 -15.85644531 7.48632812 C-16.44111124 4.29963946 -16.44111124 4.29963946 -18.44628906 2.37695312 C-25.60406937 -1.0031098 -28.76854633 3.47314547 -32.56738281 9.07226562 Z M-12.69628906 15.31445312 C-14.3015308 17.57889207 -15.7042027 19.73327195 -17.07128906 22.12695312 C-17.43867188 22.71798828 -17.80605469 23.30902344 -18.18457031 23.91796875 C-20.78167759 28.41145436 -20.99528872 31.332912 -19.69628906 36.31445312 C-18.19628906 38.48111979 -18.19628906 38.48111979 -15.69628906 39.31445312 C-12.21718683 39.79553501 -12.21718683 39.79553501 -8.69628906 38.31445312 C-6.23595955 35.56776697 -4.50041957 32.51717471 -2.69628906 29.31445312 C-2.07173828 28.37085938 -2.07173828 28.37085938 -1.43457031 27.40820312 C1.23371166 23.28875025 2.1286408 20.17237342 1.30371094 15.31445312 C-0.82314836 12.76272453 -0.82314836 12.76272453 -3.69628906 11.31445312 C-8.5079054 11.31445312 -9.30314897 12.0526265 -12.69628906 15.31445312 Z M2.03027344 29.65429688 C1.32131141 30.84854471 0.62083325 32.04786768 -0.07128906 33.25195312 C-0.43867188 33.84685547 -0.80605469 34.44175781 -1.18457031 35.0546875 C-2.96892848 38.13523038 -3.70999754 40.04963021 -3.52441406 43.63476562 C-2.87224212 46.35895993 -2.87224212 46.35895993 -1.07128906 48.25195312 C2.45876596 49.83118827 4.62699049 49.36494468 8.30371094 48.31445312 C11.51112987 44.82235203 13.82179856 40.94922574 16.11621094 36.81445312 C16.74140625 35.71101563 17.36660156 34.60757813 18.01074219 33.47070312 C19.40837292 30.05896406 19.53788179 28.73078114 18.30371094 25.31445312 C16.2972745 22.66309069 15.12400249 21.50375117 11.86621094 20.75195312 C7.18889735 21.7786805 4.53054706 25.77597189 2.03027344 29.65429688 Z " fill="#7977E5" transform="translate(194.6962890625,285.685546875)"/>
<path d="M0 0 C8.34468007 4.97590182 13.53387008 11.86345977 16.109375 21.2578125 C17.10789012 32.35758522 16.45884702 41.9922991 9.359375 51.0703125 C3.68970122 57.1408723 -3.36319277 60.85433149 -11.66015625 61.59375 C-19.4412515 61.76746925 -26.16911331 61.58646603 -32.890625 57.2578125 C-33.59703125 56.82210937 -34.3034375 56.38640625 -35.03125 55.9375 C-41.93709584 51.25687115 -45.68778524 45.25759899 -47.890625 37.2578125 C-48.88914012 26.15803978 -48.24009702 16.5233259 -41.140625 7.4453125 C-30.84272373 -3.5807232 -13.59449082 -6.52353083 0 0 Z M-33.265625 11.8828125 C-35.37769006 14.96967682 -35.50257645 16.5861038 -34.890625 20.2578125 C-33.390625 22.7578125 -33.390625 22.7578125 -30.890625 24.2578125 C-27.2189163 24.86976395 -25.60248932 24.74487756 -22.515625 22.6328125 C-20.40355994 19.54594818 -20.27867355 17.9295212 -20.890625 14.2578125 C-22.390625 11.7578125 -22.390625 11.7578125 -24.890625 10.2578125 C-28.5623337 9.64586105 -30.17876068 9.77074744 -33.265625 11.8828125 Z M-9.265625 11.8828125 C-11.37769006 14.96967682 -11.50257645 16.5861038 -10.890625 20.2578125 C-9.390625 22.7578125 -9.390625 22.7578125 -6.890625 24.2578125 C-3.2189163 24.86976395 -1.60248932 24.74487756 1.484375 22.6328125 C3.59644006 19.54594818 3.72132645 17.9295212 3.109375 14.2578125 C1.609375 11.7578125 1.609375 11.7578125 -0.890625 10.2578125 C-4.5623337 9.64586105 -6.17876068 9.77074744 -9.265625 11.8828125 Z M-33.265625 35.8828125 C-35.37769006 38.96967682 -35.50257645 40.5861038 -34.890625 44.2578125 C-33.390625 46.7578125 -33.390625 46.7578125 -30.890625 48.2578125 C-27.2189163 48.86976395 -25.60248932 48.74487756 -22.515625 46.6328125 C-20.40355994 43.54594818 -20.27867355 41.9295212 -20.890625 38.2578125 C-22.390625 35.7578125 -22.390625 35.7578125 -24.890625 34.2578125 C-28.5623337 33.64586105 -30.17876068 33.77074744 -33.265625 35.8828125 Z M-9.265625 35.8828125 C-11.37769006 38.96967682 -11.50257645 40.5861038 -10.890625 44.2578125 C-9.390625 46.7578125 -9.390625 46.7578125 -6.890625 48.2578125 C-3.2189163 48.86976395 -1.60248932 48.74487756 1.484375 46.6328125 C3.59644006 43.54594818 3.72132645 41.9295212 3.109375 38.2578125 C1.609375 35.7578125 1.609375 35.7578125 -0.890625 34.2578125 C-4.5623337 33.64586105 -6.17876068 33.77074744 -9.265625 35.8828125 Z " fill="#7977E5" transform="translate(295.890625,90.7421875)"/>
<path d="M0 0 C8.34468007 4.97590182 13.53387008 11.86345977 16.109375 21.2578125 C17.07655527 32.0092583 16.56606299 41.67174418 9.796875 50.5703125 C3.97938987 56.38779763 -0.50545017 58.98831376 -8.765625 59.5703125 C-9.51714844 59.64314453 -10.26867187 59.71597656 -11.04296875 59.79101562 C-22.09121427 60.78592624 -28.874063 60.50479744 -38.078125 54.0078125 C-44.44547459 47.78195957 -48.06815343 40.56393717 -48.27099609 31.54858398 C-48.24447316 21.47107346 -46.71640444 13.41533898 -39.59375 5.7890625 C-28.99673947 -3.73852495 -12.95346121 -6.21592266 0 0 Z M-33.265625 11.8828125 C-35.37769006 14.96967682 -35.50257645 16.5861038 -34.890625 20.2578125 C-33.390625 22.7578125 -33.390625 22.7578125 -30.890625 24.2578125 C-27.2189163 24.86976395 -25.60248932 24.74487756 -22.515625 22.6328125 C-20.40355994 19.54594818 -20.27867355 17.9295212 -20.890625 14.2578125 C-22.390625 11.7578125 -22.390625 11.7578125 -24.890625 10.2578125 C-28.5623337 9.64586105 -30.17876068 9.77074744 -33.265625 11.8828125 Z M-9.265625 11.8828125 C-11.37769006 14.96967682 -11.50257645 16.5861038 -10.890625 20.2578125 C-9.390625 22.7578125 -9.390625 22.7578125 -6.890625 24.2578125 C-3.2189163 24.86976395 -1.60248932 24.74487756 1.484375 22.6328125 C3.59644006 19.54594818 3.72132645 17.9295212 3.109375 14.2578125 C1.609375 11.7578125 1.609375 11.7578125 -0.890625 10.2578125 C-4.5623337 9.64586105 -6.17876068 9.77074744 -9.265625 11.8828125 Z M-33.265625 35.8828125 C-35.37769006 38.96967682 -35.50257645 40.5861038 -34.890625 44.2578125 C-33.390625 46.7578125 -33.390625 46.7578125 -30.890625 48.2578125 C-27.2189163 48.86976395 -25.60248932 48.74487756 -22.515625 46.6328125 C-20.40355994 43.54594818 -20.27867355 41.9295212 -20.890625 38.2578125 C-22.390625 35.7578125 -22.390625 35.7578125 -24.890625 34.2578125 C-28.5623337 33.64586105 -30.17876068 33.77074744 -33.265625 35.8828125 Z M-9.265625 35.8828125 C-11.37769006 38.96967682 -11.50257645 40.5861038 -10.890625 44.2578125 C-9.390625 46.7578125 -9.390625 46.7578125 -6.890625 48.2578125 C-3.2189163 48.86976395 -1.60248932 48.74487756 1.484375 46.6328125 C3.59644006 43.54594818 3.72132645 41.9295212 3.109375 38.2578125 C1.609375 35.7578125 1.609375 35.7578125 -0.890625 34.2578125 C-4.5623337 33.64586105 -6.17876068 33.77074744 -9.265625 35.8828125 Z " fill="#7977E5" transform="translate(187.890625,78.7421875)"/>
<path d="M0 0 C4.98795223 2.51763813 8.32618441 6.90406573 10.3359375 12.05078125 C12.47269812 21.54051225 12.71769097 32.61495662 7.47265625 41.07421875 C4.6191541 44.80572156 2.51937087 47.46192245 -2.359375 48.50390625 C-6.92496538 48.82903163 -10.2019717 48.39033684 -13.875 45.5625 C-20.70128854 38.54255788 -21.61960178 31.12794203 -21.54321289 21.67602539 C-21.2242521 13.73514431 -18.8895284 7.64269604 -13.3125 1.875 C-8.75477381 -0.70484502 -5.11512752 -1.11868082 0 0 Z " fill="#7977E5" transform="translate(409,312)"/>
<path d="M0 0 C-2.27435204 7.18216433 -5.03584181 14.0758202 -8 21 C-8.66 20.67 -9.32 20.34 -10 20 C-9.979375 18.700625 -9.95875 17.40125 -9.9375 16.0625 C-9.92995028 11.30617675 -10.40112883 6.71611047 -11 2 C-7.12315913 0.80712589 -4.08378077 0 0 0 Z " fill="#7674E6" transform="translate(248,304)"/>
</svg>
