<?xml version="1.0" encoding="UTF-8"?>
<svg version="1.1" xmlns="http://www.w3.org/2000/svg" width="512" height="512">
<path d="M0 0 C3.42643101 1.9468358 6.83861563 3.90324772 10.21875 5.9296875 C18.50814675 10.84411557 26.90759855 14.78741983 36 18 C36.77778809 18.2769873 37.55557617 18.55397461 38.35693359 18.83935547 C69.69823121 29.82136575 102.96170863 34.76290536 136 37 C136.81919922 37.05784668 137.63839844 37.11569336 138.48242188 37.17529297 C200.39139865 41.40548866 280.2450212 38.6397271 333.50390625 3.62890625 C335.62587676 2.24414615 337.7090761 1.07269143 340 0 C340.82357934 27.68493622 327.39947233 59.26914028 311 81 C310.23945313 82.05316406 309.47890625 83.10632813 308.6953125 84.19140625 C297.23686267 99.70005639 283.18578122 113.49936086 267 124 C266.38560059 124.40009277 265.77120117 124.80018555 265.13818359 125.21240234 C228.30841614 148.87430602 182.18040813 157.92970541 139 150 C138.1740332 149.84934082 137.34806641 149.69868164 136.49707031 149.54345703 C103.44045897 143.26619829 74.08059302 128.54768916 50 105 C49.00756246 104.06788902 48.01405672 103.13691418 47.01953125 102.20703125 C34.45317049 90.27894892 24.87312984 76.37925902 17 61 C16.68192383 60.38302246 16.36384766 59.76604492 16.03613281 59.13037109 C9.2771575 45.84195725 4.61101367 31.97434326 1.625 17.375 C1.45718018 16.55813721 1.28936035 15.74127441 1.11645508 14.8996582 C0.15493854 9.84923161 -0.15289976 5.13978432 0 0 Z " fill="#8A9BA5" transform="translate(86,283)"/>
<path d="M0 0 C5.02771557 5.17841005 6.80607852 10.10773551 6.71484375 17.1328125 C5.98394372 23.22364607 1.88525997 27.53076744 -2.56640625 31.4765625 C-3.200625 32.04117188 -3.83484375 32.60578125 -4.48828125 33.1875 C-5.1740625 33.75726563 -5.85984375 34.32703125 -6.56640625 34.9140625 C-7.20578125 35.44902344 -7.84515625 35.98398437 -8.50390625 36.53515625 C-10.56640625 37.4765625 -10.56640625 37.4765625 -12.890625 36.86328125 C-15.42813277 35.54822248 -17.95702001 34.21902619 -20.47265625 32.86254883 C-47.91156796 18.31022641 -79.09621093 13.90327678 -109.56640625 10.4765625 C-110.60909668 10.35651855 -111.65178711 10.23647461 -112.72607422 10.11279297 C-168.80944972 3.97281174 -262.20754473 0.67311214 -309.50390625 37.4140625 C-312.56640625 39.4765625 -312.56640625 39.4765625 -314.8828125 39.36328125 C-322.93898677 36.70134303 -330.37131778 29.70947365 -334.56640625 22.4765625 C-336.2748401 17.35126096 -336.68934968 12.17517755 -334.578125 7.1015625 C-321.66513036 -13.85022599 -290.7562079 -21.90626452 -268.48046875 -27.44042969 C-246.45808275 -32.64520494 -224.12587087 -35.85858258 -201.56640625 -37.5234375 C-200.42437744 -37.61020752 -200.42437744 -37.61020752 -199.25927734 -37.69873047 C-138.48198099 -42.09494186 -47.77796694 -42.85122214 0 0 Z " fill="#8A9BA5" transform="translate(420.56640625,238.5234375)"/>
<path d="M0 0 C0 0.66 0 1.32 0 2 C-39.52728974 17.75498105 -82.66852989 23.10028756 -125 24 C-126.3607666 24.03287109 -126.3607666 24.03287109 -127.74902344 24.06640625 C-171.18636013 24.98377345 -215.35108702 20.71729526 -257.0625 8.3125 C-258.02679932 8.02721436 -258.99109863 7.74192871 -259.98461914 7.44799805 C-260.86754639 7.1725415 -261.75047363 6.89708496 -262.66015625 6.61328125 C-263.42980713 6.37391846 -264.19945801 6.13455566 -264.99243164 5.88793945 C-267.18928516 4.91627993 -268.42551846 3.79283801 -270 2 C-264.0856681 -2.11134851 -258.14074082 -4.70206741 -251.3125 -6.9375 C-250.27939697 -7.27740967 -249.24629395 -7.61731934 -248.18188477 -7.9675293 C-228.03600039 -14.35027993 -206.99600257 -17.88308272 -186 -20 C-185.03626465 -20.10296387 -184.0725293 -20.20592773 -183.07958984 -20.31201172 C-125.5069287 -26.2329694 -52.92747474 -26.30383563 0 0 Z " fill="#8A9BA5" transform="translate(393,283)"/>
<path d="M0 0 C0.5978833 0.18175781 1.1957666 0.36351562 1.81176758 0.55078125 C50.03689536 15.12623399 93.87249652 14.63086482 142 0 C142.08172936 2.5215021 142.14083373 5.04029917 142.1875 7.5625 C142.21263672 8.26697266 142.23777344 8.97144531 142.26367188 9.69726562 C142.35174791 16.06809863 141.0761526 20.75994062 136.625 25.5625 C122.39710051 36.11196694 102.69006034 39.10138758 85.390625 39.203125 C84.59012222 39.21018463 83.78961945 39.21724426 82.96485901 39.22451782 C49.00442792 39.45603491 49.00442792 39.45603491 35 36 C34.14937988 35.79068848 33.29875977 35.58137695 32.42236328 35.36572266 C21.01720163 32.45100147 8.92606492 29.3267919 1 20 C-0.37006952 15.84675262 -0.1164052 11.52064908 -0.0625 7.1875 C-0.05798828 6.49462891 -0.05347656 5.80175781 -0.04882812 5.08789062 C-0.03713156 3.39188932 -0.01919924 1.69593297 0 0 Z " fill="#8A9BA5" transform="translate(185,437)"/>
<path d="M0 0 C2.875 2.0625 2.875 2.0625 5 5 C5.48906368 9.11868335 5.52317887 11.22641073 3.171875 14.703125 C2.37265625 15.54359375 1.5734375 16.3840625 0.75 17.25 C-4.5108455 23.29914253 -8.56557048 29.87872303 -8.0625 38.1875 C-6.20064572 44.86827126 -2.67652356 49.34486407 2 54.375 C10.33649313 63.46792351 12.59519016 72.81622967 12.3359375 84.82421875 C11.75095369 95.46753986 5.53870374 103.98814957 -1 112 C-1.79277344 112.98226562 -1.79277344 112.98226562 -2.6015625 113.984375 C-5.08831852 116.77698871 -6.98209247 117.99434499 -10.5625 119.125 C-14.74590203 118.97287629 -16.12309577 117.96151906 -19 115 C-20.44945432 112.10109135 -20.3541846 110.22615974 -20 107 C-18.4857482 104.67082642 -17.03703113 102.71424504 -15.25 100.625 C-14.32642701 99.47871343 -13.40710113 98.32899112 -12.4921875 97.17578125 C-12.05616211 96.62744629 -11.62013672 96.07911133 -11.17089844 95.51416016 C-6.98181992 90.09700732 -5.28274143 85.31883711 -5.62890625 78.4375 C-6.61797028 71.94091103 -9.94818871 67.93809021 -14.375 63.25 C-21.68511504 55.44530622 -26.39856637 46.20291571 -26.21484375 35.36328125 C-25.07956391 22.87520305 -20.02530631 11.6918077 -11 3 C-7.32349889 0.13053572 -4.65519083 -0.77586514 0 0 Z " fill="#8A9BA5" transform="translate(334,51)"/>
<path d="M0 0 C2.85695513 1.71417308 3.01592889 3.05628208 3.9375 6.3125 C4.02587624 11.52669833 1.92892756 13.88018898 -1.5 17.6484375 C-6.96300494 23.68505796 -9.69497748 29.49562523 -9.33984375 37.77734375 C-8.4273188 43.74546668 -5.56378762 47.6226088 -1.1875 51.625 C5.34913193 57.76992365 10.45728622 67.46656108 11.203125 76.4453125 C11.4760086 92.04515811 4.55826411 103.77252355 -5.828125 114.8828125 C-8.61827433 117.60270627 -9.44825944 117.94891291 -13.375 118.3125 C-17 118 -17 118 -19.375 116.375 C-21.38506043 113.43721938 -21.92733979 111.5603504 -22 108 C-20.10559755 104.3651153 -17.72798102 101.40773227 -15.0625 98.3125 C-10.28370296 92.36986309 -6.50035367 86.30613389 -6.9375 78.4375 C-8.13569708 71.71098768 -11.43870422 66.26511121 -16.4375 61.6875 C-22.15747918 56.36804453 -26.65356066 47.63433612 -27.23828125 39.8125 C-27.48206779 27.28957029 -24.58682372 17.15599811 -17 7 C-11.37156799 1.23505752 -8.22701046 -1.7320022 0 0 Z " fill="#8A9BA5" transform="translate(265,36)"/>
<path d="M0 0 C3.51812713 2.52387381 4.79040457 4.07428687 5.75 8.3125 C4.82626413 12.85420137 3.01040992 14.55384414 -0.11328125 17.8359375 C-4.65734587 23.04797021 -7.85852253 29.76169753 -8.25 36.72265625 C-7.34285984 44.98613619 -1.61177549 50.71189056 3.84375 56.4765625 C11.86928747 65.86876758 12.83614516 76.11479375 12 88 C9.65950364 98.98341365 2.36190614 111.56257501 -7 118 C-10.18988257 118.93546647 -11.60405287 118.67918943 -15 118 C-18.06458538 115.95694308 -18.82153128 114.55920198 -19.9375 111.0625 C-20.07297604 104.42417395 -13.94768992 98.94415254 -10.05859375 93.9375 C-5.95464431 88.08138999 -5.1697873 83.01907099 -6 76 C-7.48375891 70.71224175 -10.66094059 67.18327033 -14.375 63.25 C-21.98287603 55.13995394 -26.36166656 45.88693627 -26.21484375 34.77734375 C-25.23603992 22.12407964 -19.27408227 10.55501824 -10 2 C-6.52736888 -0.05858625 -4.05455693 -0.57922242 0 0 Z " fill="#8A9BA5" transform="translate(193,51)"/>
</svg>
