<?xml version="1.0" encoding="UTF-8"?>
<svg version="1.1" xmlns="http://www.w3.org/2000/svg" width="512" height="512">
<path d="M0 0 C142.56 0 285.12 0 432 0 C428.67889546 16.60552271 421.74967629 29.31173472 407.80078125 39.140625 C396.71388436 46.5009638 386.12753768 48.44892351 372.91474915 48.39440918 C371.50612233 48.39930582 370.09749954 48.40549918 368.68888348 48.41286707 C364.84103684 48.42919222 360.99339607 48.4269639 357.14552701 48.4214921 C352.98652421 48.41881264 348.82757516 48.43337095 344.66859436 48.44558716 C336.52878982 48.46660583 328.38905657 48.47118402 320.2492281 48.46939927 C313.62916298 48.46808968 307.00912002 48.47190586 300.38905907 48.47932434 C298.47933918 48.48142363 296.5696193 48.48352123 294.65989941 48.48561716 C293.23392699 48.48718245 293.23392699 48.48718245 291.77914705 48.48877937 C273.81312343 48.50766788 255.84714066 48.506636 237.88111123 48.49981004 C221.46683902 48.49423746 205.05272303 48.51505033 188.63848732 48.54817051 C171.76360969 48.58195443 154.88880679 48.59706986 138.01389474 48.59245348 C128.54830667 48.5902133 119.08286292 48.59538549 109.61730385 48.62034607 C101.55723791 48.64142018 93.4973954 48.64489098 85.43732009 48.62604648 C81.33002724 48.61692556 77.22315027 48.61563258 73.1158905 48.63640213 C69.34593317 48.65525403 65.57672819 48.65045232 61.80679824 48.62785631 C59.81811503 48.6217602 57.82940141 48.6399481 55.84080392 48.65939283 C42.22021384 48.52705289 30.65535432 44.6209672 20 36 C18.96875 35.2575 17.9375 34.515 16.875 33.75 C7.07851987 24.37945379 1.9039035 13.32732448 0 0 Z " fill="#DE8383" transform="translate(40,392)"/>
<path d="M0 0 C100.32 0 200.64 0 304 0 C304 3.96 304 7.92 304 12 C299.49997406 16.50002594 299.49997406 16.50002594 294.89624023 16.50336456 C293.3413665 16.51901105 293.3413665 16.51901105 291.75508118 16.53497362 C290.61774033 16.52605073 289.48039948 16.51712785 288.30859375 16.50793457 C286.49460335 16.51729451 286.49460335 16.51729451 284.64396667 16.52684355 C281.28554526 16.54005546 277.92801627 16.53527762 274.56964874 16.52289867 C270.94858195 16.51386269 267.32759416 16.52781065 263.70654297 16.53881836 C256.61231922 16.55662379 249.51826455 16.55275465 242.42403412 16.5411678 C236.65946564 16.53214167 230.89494461 16.5309059 225.13037109 16.53526306 C223.90065598 16.53618246 223.90065598 16.53618246 222.64609814 16.53712043 C220.98077518 16.53839931 219.31545224 16.53969616 217.65012932 16.5410108 C202.02693923 16.55242252 186.40384296 16.53929363 170.78066826 16.51780933 C157.36935685 16.4999378 143.95818391 16.50304174 130.546875 16.52148438 C114.98036925 16.54288065 99.41394577 16.55132383 83.84742737 16.53903532 C82.18816123 16.5377611 80.52889507 16.53650361 78.86962891 16.53526306 C78.05319507 16.53464596 77.23676123 16.53402886 76.39558697 16.53339306 C70.63658871 16.52993642 64.87764254 16.53577524 59.11865234 16.54518127 C52.10226653 16.55638886 45.08605976 16.55338749 38.06969452 16.5320583 C34.48839969 16.52153099 30.90740359 16.51745426 27.32611084 16.53065491 C23.44770629 16.54473472 19.56979309 16.52794652 15.69140625 16.50793457 C13.98539497 16.5213189 13.98539497 16.5213189 12.24491882 16.53497362 C11.20833633 16.52454263 10.17175385 16.51411164 9.10375977 16.50336456 C8.2082692 16.50271515 7.31277863 16.50206574 6.39015198 16.50139666 C4 16 4 16 0 12 C0 8.04 0 4.08 0 0 Z " fill="#DD8383" transform="translate(104,456)"/>
<path d="M0 0 C0.66 -0.0103125 1.32 -0.020625 2 -0.03125 C5.12452034 0.79870072 6.08021784 1.85735289 8 4.5 C8.62359715 8.01248821 8.5564306 11.50396979 8.53485107 15.0635376 C8.5439133 16.15161925 8.55297553 17.2397009 8.56231236 18.36075473 C8.58770447 22.01964546 8.5843531 25.67794477 8.58105469 29.33691406 C8.59301885 31.95504018 8.60662845 34.57315922 8.62176514 37.19126892 C8.65499905 43.57292077 8.66598488 49.95442484 8.66821465 56.33615598 C8.67011523 61.52432426 8.67833391 66.71244377 8.69101715 71.90059662 C8.72624812 86.61158356 8.7446943 101.32245375 8.74169526 116.03348318 C8.74153543 116.8266476 8.74137561 117.61981201 8.74121094 118.43701172 C8.74104741 119.23114537 8.74088389 120.02527903 8.74071541 120.84347734 C8.73909009 133.70964078 8.77735313 146.57533567 8.8337644 159.4413636 C8.89123643 172.65366727 8.91884415 185.86574251 8.9153893 199.07817435 C8.91406181 206.49535383 8.92503057 213.91204234 8.9681015 221.32910919 C9.00835724 228.30611555 9.00716419 235.28206924 8.97803497 242.25912666 C8.97384766 244.81975123 8.98332707 247.3804401 9.00747681 249.94095421 C9.03832304 253.43803475 9.01981456 256.93152546 8.98895264 260.42852783 C9.01981402 261.94780581 9.01981402 261.94780581 9.05129886 263.49777627 C8.94151673 269.12873577 8.12501247 271.96649784 4.08052444 276.00642014 C2.72293006 277.17395398 1.36303224 278.33881918 0 279.5 C-2.24241438 282.34759761 -2.24241438 282.34759761 -3.9375 285 C-4.93816259 286.51353066 -5.95258504 288.01843913 -7 289.5 C-7.33 289.5 -7.66 289.5 -8 289.5 C-8.0915047 253.26079525 -8.16201285 217.02161072 -8.20426132 180.78231429 C-8.2092643 176.50640595 -8.21444157 172.23049784 -8.21972656 167.95458984 C-8.2207758 167.10331388 -8.22182505 166.25203791 -8.22290608 165.3749657 C-8.24032339 151.58129843 -8.27186835 137.78769768 -8.30861118 123.9940699 C-8.34598377 109.84629949 -8.36822804 95.69856396 -8.37635398 81.5507462 C-8.38184942 72.81690394 -8.39922193 64.08324964 -8.43166587 55.34946522 C-8.45276834 49.36482748 -8.45920976 43.38028728 -8.45400551 37.39561501 C-8.45143703 33.93988572 -8.4554441 30.48448547 -8.4768219 27.02881432 C-8.49661412 23.28585021 -8.49197768 19.54370173 -8.48101807 15.80072021 C-8.49266943 14.70345132 -8.5043208 13.60618242 -8.51632524 12.47566295 C-8.45796598 5.14259541 -8.45796598 5.14259541 -6.09493637 1.82690811 C-3.84133375 0.39950266 -2.6485889 -0.0413842 0 0 Z " fill="#DD8383" transform="translate(112,39.5)"/>
<path d="M0 0 C34.07350868 -0.09120413 68.14698353 -0.16201475 102.22058712 -0.20426132 C106.2411338 -0.20926429 110.26168024 -0.21444156 114.28222656 -0.21972656 C115.48287984 -0.22130043 115.48287984 -0.22130043 116.70778874 -0.22290608 C129.67697613 -0.2403225 142.64609277 -0.27186697 155.61523816 -0.30861118 C168.91775904 -0.34598624 182.2202428 -0.36822857 195.52281404 -0.37635398 C203.73460062 -0.38184891 211.94618724 -0.39921862 220.15791228 -0.43166587 C225.78513004 -0.4527714 231.41224406 -0.45920907 237.03949854 -0.45400551 C240.28867844 -0.45143748 243.53743336 -0.45760874 246.78656769 -0.4768219 C250.30621642 -0.49662047 253.8249982 -0.49197549 257.34466553 -0.48101807 C258.89134969 -0.49849512 258.89134969 -0.49849512 260.46928 -0.51632524 C267.3670857 -0.45797725 267.3670857 -0.45797725 270.63275528 1.90506363 C272.1060932 4.16255941 272.54178141 5.32598987 272.5 8 C272.51546875 8.99 272.51546875 8.99 272.53125 10 C271.6998749 13.12988273 270.65195311 14.08104481 268 16 C264.45488782 16.60899506 260.93362924 16.52157224 257.34466553 16.48101807 C255.69795093 16.48614462 255.69795093 16.48614462 254.01796937 16.49137473 C250.32649554 16.4979817 246.63574318 16.47593003 242.94433594 16.45410156 C240.3033687 16.45297369 237.66244614 16.45342947 235.02148438 16.45587158 C229.32910393 16.45796969 223.63690679 16.44541253 217.94457245 16.42292023 C209.71442986 16.39042136 201.48437597 16.37999539 193.25417617 16.37496826 C179.90149688 16.36621228 166.5489153 16.3395885 153.19628906 16.30175781 C140.22493987 16.26504556 127.25361721 16.23672996 114.28222656 16.21972656 C113.08303068 16.21815022 113.08303068 16.21815022 111.85960862 16.21654204 C107.84896023 16.21132191 103.83831165 16.20626707 99.82766294 16.20129442 C66.5517035 16.15982294 33.27586645 16.08906909 0 16 C0 10.72 0 5.44 0 0 Z " fill="#DD8383" transform="translate(200,88)"/>
<path d="M0 0 C0.66 -0.0103125 1.32 -0.020625 2 -0.03125 C5.08937646 0.78936562 6.08794074 1.91235037 8 4.5 C8.60188334 7.7554855 8.52187876 10.97991832 8.48101807 14.28216553 C8.48443577 15.28605356 8.48785347 16.28994158 8.49137473 17.32425046 C8.49797859 20.6979001 8.47593548 24.07075924 8.45410156 27.44433594 C8.45297363 29.85868816 8.45360588 32.27304176 8.45587158 34.68739319 C8.45678331 39.89031406 8.44541678 45.09305522 8.42292023 50.29592133 C8.39041522 57.81837582 8.37999477 65.34073329 8.37496826 72.8632504 C8.36621323 85.06790552 8.33959207 97.27245372 8.30175781 109.47705078 C8.26504307 121.33283961 8.2367287 133.1885994 8.21972656 145.04443359 C8.21867567 145.77519662 8.21762477 146.50595964 8.21654204 147.258867 C8.21132189 150.92488173 8.20626706 154.59089667 8.20129442 158.25691175 C8.15982593 188.67135105 8.0890746 219.08566069 8 249.5 C2.72 252.14 -2.56 254.78 -8 257.5 C-8.0912078 225.33740309 -8.16201664 193.1748429 -8.20426132 161.01214693 C-8.20926427 157.21691936 -8.21444155 153.42169204 -8.21972656 149.62646484 C-8.22130043 148.4931004 -8.22130043 148.4931004 -8.22290608 147.33683971 C-8.24032162 135.0951343 -8.2718656 122.85350386 -8.30861118 110.61184296 C-8.34598871 98.05513053 -8.36822909 85.49845742 -8.37635398 72.94169164 C-8.3818484 65.19054184 -8.39921532 57.43960392 -8.43166587 49.68851933 C-8.45526612 43.74965786 -8.45782791 37.81090573 -8.45243073 31.87199593 C-8.45353446 29.43225103 -8.4615345 26.99249838 -8.4768219 24.55280113 C-8.4966268 21.23019354 -8.49197332 17.90850384 -8.48101807 14.58587646 C-8.49266943 13.61311791 -8.5043208 12.64035936 -8.51632524 11.63812327 C-8.45798844 5.12437346 -8.45798844 5.12437346 -6.09493637 1.90283585 C-3.83422825 0.38899398 -2.69652947 -0.04213327 0 0 Z " fill="#DD8383" transform="translate(144,39.5)"/>
<path d="M0 0 C1.04929687 0.350625 2.09859375 0.70125 3.1796875 1.0625 C24.68300563 9.10529951 41.64843926 27.10808499 51.203125 47.6171875 C55.02027868 56.44688799 58 66.36032481 58 76 C52.39 76 46.78 76 41 76 C40.319375 73.31875 39.63875 70.6375 38.9375 67.875 C33.89480528 49.27152235 24.57849069 34.41066358 8 24 C-9.45250736 14.00656757 -29.53727153 10.81650166 -49.08789062 16.02270508 C-66.60993768 21.27014763 -81.36508404 31.30695222 -90.875 47.1171875 C-95.86601907 56.43232222 -98.40566407 65.77988875 -101 76 C-106.61 76 -112.22 76 -118 76 C-117.10740548 54.57773161 -107.35471249 34.67485262 -91.890625 19.94921875 C-67.27935699 -2.29579926 -31.66770776 -10.9646733 0 0 Z " fill="#DE8383" transform="translate(222,300)"/>
<path d="M0 0 C0.66 -0.0103125 1.32 -0.020625 2 -0.03125 C5.07570058 0.78573297 6.08992059 1.93406168 8 4.5 C8.59916909 7.65485387 8.52200203 10.77573706 8.48101807 13.97845459 C8.48443577 14.9496742 8.48785347 15.92089381 8.49137473 16.92154431 C8.49797737 20.18464757 8.47593763 23.44693313 8.45410156 26.70996094 C8.4529736 29.04549642 8.45360593 31.38103333 8.45587158 33.71656799 C8.45702166 40.06542584 8.4334645 46.41398287 8.40557575 52.76277065 C8.38313932 58.72291384 8.37908535 64.68304515 8.37496826 70.64322487 C8.36621361 82.44856745 8.33959348 94.25379948 8.30175781 106.05908203 C8.26504209 117.52684984 8.2367282 128.99458762 8.21972656 140.46240234 C8.21867567 141.1692694 8.21762477 141.87613646 8.21654204 142.60442373 C8.21132189 146.15056589 8.20626706 149.69670827 8.20129442 153.24285078 C8.15982711 182.66197181 8.08907674 212.08098472 8 241.5 C6.27192682 241.83895656 4.54248026 242.17091525 2.8125 242.5 C1.84957031 242.685625 0.88664063 242.87125 -0.10546875 243.0625 C-2.7934206 243.46877612 -5.28771019 243.57933572 -8 243.5 C-8.09121161 213.12093006 -8.16201863 182.74187425 -8.20426132 152.36269872 C-8.20926426 148.77776897 -8.21444154 145.1928395 -8.21972656 141.60791016 C-8.2207758 140.89420247 -8.22182505 140.18049478 -8.22290608 139.44515958 C-8.2403207 127.88243711 -8.27186416 116.31979402 -8.30861118 104.75711867 C-8.34599129 92.89649415 -8.36822963 81.03591127 -8.37635398 69.17523026 C-8.38135436 62.5116616 -8.39389502 55.84825109 -8.42292023 49.18474579 C-8.45000031 42.91722175 -8.45845992 36.6499527 -8.45243073 30.38237572 C-8.45353428 28.07808485 -8.46153189 25.77378576 -8.4768219 23.46954536 C-8.49663345 20.33084097 -8.49197106 17.19310775 -8.48101807 14.05438232 C-8.49266943 13.13609705 -8.5043208 12.21781177 -8.51632524 11.27169967 C-8.45800017 5.11640334 -8.45800017 5.11640334 -6.09493637 1.93605423 C-3.83141793 0.38443897 -2.71761061 -0.04246267 0 0 Z " fill="#DD8383" transform="translate(176,39.5)"/>
<path d="M0 0 C1.43272706 1.19428148 2.84502718 2.41294985 4.25561523 3.63330078 C4.9169043 4.19404297 5.57819336 4.75478516 6.25952148 5.33251953 C20.84188007 18.76452965 28.97350456 37.42989545 32.25561523 56.63330078 C32.25561523 58.28330078 32.25561523 59.93330078 32.25561523 61.63330078 C26.64561523 61.63330078 21.03561523 61.63330078 15.25561523 61.63330078 C14.85342773 59.81958984 14.85342773 59.81958984 14.44311523 57.96923828 C9.78397351 38.07405035 0.57494308 22.33357704 -16.74438477 10.63330078 C-34.28923617 0.22136833 -54.11775857 -3.61512317 -74.24438477 0.69580078 C-80.01313489 2.43731025 -85.30521245 5.20302191 -90.61547852 8.01220703 C-93.29024703 9.39801094 -95.92774076 10.575085 -98.74438477 11.63330078 C-100.06512591 10.05683527 -101.37569701 8.47184547 -102.68188477 6.88330078 C-103.4127832 6.00158203 -104.14368164 5.11986328 -104.89672852 4.21142578 C-106.57475661 1.86999123 -107.33173642 0.43668952 -107.74438477 -2.36669922 C-99.550027 -8.12489657 -91.15104217 -12.10255943 -81.74438477 -15.36669922 C-80.77629883 -15.70958984 -79.80821289 -16.05248047 -78.81079102 -16.40576172 C-52.19142401 -24.13513016 -21.3631326 -17.20516423 0 0 Z " fill="#DE8383" transform="translate(375.744384765625,314.36669921875)"/>
<path d="M0 0 C9.90947997 8.8371855 15.44281479 19.89155725 18.09375 32.8671875 C18.09375 33.5271875 18.09375 34.1871875 18.09375 34.8671875 C12.15375 34.8671875 6.21375 34.8671875 0.09375 34.8671875 C-0.6796875 32.423125 -0.6796875 32.423125 -1.46875 29.9296875 C-5.46147467 19.06835956 -12.21336419 12.68390519 -22.43359375 7.61328125 C-31.582404 3.75761526 -41.2763338 3.34911749 -50.71875 6.4921875 C-60.79075233 10.7369227 -68.75519193 16.65145098 -73.2265625 26.890625 C-74.19434329 29.52325945 -75.05999212 32.1930126 -75.90625 34.8671875 C-81.84625 34.8671875 -87.78625 34.8671875 -93.90625 34.8671875 C-91.86860822 22.27085649 -87.63296748 12.28285636 -78.90625 2.8671875 C-78.32359375 2.23039062 -77.7409375 1.59359375 -77.140625 0.9375 C-56.54860978 -19.20686272 -21.34324732 -17.51048108 0 0 Z " fill="#DE8383" transform="translate(229.90625,341.1328125)"/>
<path d="M0 0 C9.00391256 8.35881516 16.01314357 19.62502682 18.3125 31.81640625 C18.3125 32.80640625 18.3125 33.79640625 18.3125 34.81640625 C12.3725 34.81640625 6.4325 34.81640625 0.3125 34.81640625 C-0.4609375 32.37234375 -0.4609375 32.37234375 -1.25 29.87890625 C-5.24272467 19.01757831 -11.99461419 12.63312394 -22.21484375 7.5625 C-32.69414098 3.14611482 -43.41796692 3.60025625 -53.984375 7.52734375 C-57.42288431 9.1670953 -60.27128549 11.17895759 -63.1640625 13.64453125 C-64.6875 14.81640625 -64.6875 14.81640625 -66.6875 14.81640625 C-67.52874316 12.56908523 -68.36064832 10.3190184 -69.1875 8.06640625 C-69.42597656 7.4321875 -69.66445313 6.79796875 -69.91015625 6.14453125 C-71.13551758 2.78354018 -71.6875 0.44769038 -71.6875 -3.18359375 C-47.58628703 -15.89957115 -22.72175616 -18.46142688 0 0 Z " fill="#DE8383" transform="translate(357.6875,341.18359375)"/>
<path d="M0 0 C5.03716445 3.46726425 8.55874513 7.46935553 10.04296875 13.40625 C-5.13703125 13.40625 -20.31703125 13.40625 -35.95703125 13.40625 C-33.33246352 6.84483066 -30.23692893 2.24675571 -23.83203125 -1.03125 C-16.03415184 -4.06375866 -7.46573237 -3.8076595 0 0 Z " fill="#DE8383" transform="translate(332.95703125,362.59375)"/>
<path d="M0 0 C5.03716445 3.46726425 8.55874513 7.46935553 10.04296875 13.40625 C-5.13703125 13.40625 -20.31703125 13.40625 -35.95703125 13.40625 C-33.33246352 6.84483066 -30.23692893 2.24675571 -23.83203125 -1.03125 C-16.03415184 -4.06375866 -7.46573237 -3.8076595 0 0 Z " fill="#DE8383" transform="translate(204.95703125,362.59375)"/>
<path d="M0 0 C1.25039062 0.01289062 2.50078125 0.02578125 3.7890625 0.0390625 C5.74199219 0.08933594 5.74199219 0.08933594 7.734375 0.140625 C9.05179688 0.15867187 10.36921875 0.17671875 11.7265625 0.1953125 C14.97947656 0.24245618 18.23201717 0.31419884 21.484375 0.390625 C21.484375 5.670625 21.484375 10.950625 21.484375 16.390625 C16.90041718 16.49834202 12.31897864 16.57782221 7.734375 16.640625 C6.43242188 16.67414063 5.13046875 16.70765625 3.7890625 16.7421875 C2.53867188 16.75507813 1.28828125 16.76796875 0 16.78125 C-1.15209961 16.80219727 -2.30419922 16.82314453 -3.49121094 16.84472656 C-7.14708993 16.29581351 -8.28356362 15.274207 -10.515625 12.390625 C-11.046875 10.390625 -11.046875 10.390625 -11.015625 8.390625 C-11.03109375 7.400625 -11.03109375 7.400625 -11.046875 6.390625 C-9.51172219 0.61122619 -5.3493102 -0.09726019 0 0 Z " fill="#DD8383" transform="translate(66.515625,119.609375)"/>
<path d="M0 0 C1.25039062 0.01289062 2.50078125 0.02578125 3.7890625 0.0390625 C5.74199219 0.08933594 5.74199219 0.08933594 7.734375 0.140625 C9.05179688 0.15867187 10.36921875 0.17671875 11.7265625 0.1953125 C14.97947656 0.24245618 18.23201717 0.31419884 21.484375 0.390625 C21.484375 5.670625 21.484375 10.950625 21.484375 16.390625 C16.90041718 16.49834202 12.31897864 16.57782221 7.734375 16.640625 C6.43242188 16.67414063 5.13046875 16.70765625 3.7890625 16.7421875 C2.53867188 16.75507812 1.28828125 16.76796875 0 16.78125 C-1.15209961 16.80219727 -2.30419922 16.82314453 -3.49121094 16.84472656 C-7.14708993 16.29581351 -8.28356362 15.274207 -10.515625 12.390625 C-11.046875 10.390625 -11.046875 10.390625 -11.015625 8.390625 C-11.03109375 7.400625 -11.03109375 7.400625 -11.046875 6.390625 C-9.51172219 0.61122619 -5.3493102 -0.09726019 0 0 Z " fill="#DD8383" transform="translate(66.515625,87.609375)"/>
<path d="M0 0 C1.25039062 0.01289062 2.50078125 0.02578125 3.7890625 0.0390625 C5.74199219 0.08933594 5.74199219 0.08933594 7.734375 0.140625 C9.05179688 0.15867188 10.36921875 0.17671875 11.7265625 0.1953125 C14.97947656 0.24245618 18.23201717 0.31419884 21.484375 0.390625 C21.484375 5.670625 21.484375 10.950625 21.484375 16.390625 C16.90041718 16.49834202 12.31897864 16.57782221 7.734375 16.640625 C6.43242188 16.67414063 5.13046875 16.70765625 3.7890625 16.7421875 C2.53867188 16.75507812 1.28828125 16.76796875 0 16.78125 C-1.15209961 16.80219727 -2.30419922 16.82314453 -3.49121094 16.84472656 C-7.14708993 16.29581351 -8.28356362 15.274207 -10.515625 12.390625 C-11.046875 10.390625 -11.046875 10.390625 -11.015625 8.390625 C-11.03109375 7.400625 -11.03109375 7.400625 -11.046875 6.390625 C-9.51172219 0.61122619 -5.3493102 -0.09726019 0 0 Z " fill="#DD8383" transform="translate(66.515625,55.609375)"/>
</svg>
