<?xml version="1.0" encoding="UTF-8"?>
<svg version="1.1" xmlns="http://www.w3.org/2000/svg" width="512" height="512">
<path d="M0 0 C1.18013672 -0.01611328 2.36027344 -0.03222656 3.57617188 -0.04882812 C4.71505859 -0.04947266 5.85394531 -0.05011719 7.02734375 -0.05078125 C8.58376587 -0.05525269 8.58376587 -0.05525269 10.17163086 -0.05981445 C13.5669177 0.37746385 15.38556725 1.18593455 18.0625 3.3125 C19.16162109 5.51391602 19.16162109 5.51391602 19.8359375 8.06640625 C20.09955078 8.99904297 20.36316406 9.93167969 20.63476562 10.89257812 C20.89966797 11.87677734 21.16457031 12.86097656 21.4375 13.875 C23.83204201 22.02696829 26.12066741 29.00688174 32.0625 35.3125 C32.55878906 35.87453125 33.05507812 36.4365625 33.56640625 37.015625 C38.0593965 41.47483337 43.70282955 43.45292151 49.484375 45.80859375 C62.3994638 51.23687889 73.7968084 58.86392353 79.29394531 72.32885742 C81.52547562 76.09356365 83.06723196 76.57452236 87.19140625 77.8671875 C88.39087891 78.25390625 89.59035156 78.640625 90.82617188 79.0390625 C92.07978516 79.41804688 93.33339844 79.79703125 94.625 80.1875 C95.89582695 80.59172888 97.16601898 80.99795962 98.43554688 81.40625 C104.1407088 83.4557563 104.1407088 83.4557563 110.0625 84.3125 C110.60519531 83.19230469 111.14789063 82.07210937 111.70703125 80.91796875 C112.42936662 79.44515508 113.15204062 77.97250746 113.875 76.5 C114.23142578 75.76201172 114.58785156 75.02402344 114.95507812 74.26367188 C115.30634766 73.55146484 115.65761719 72.83925781 116.01953125 72.10546875 C116.33897705 71.4508667 116.65842285 70.79626465 116.98754883 70.12182617 C118.16300348 68.1433355 119.27962151 66.76986914 121.0625 65.3125 C124.4375 64.8125 124.4375 64.8125 128.0625 65.3125 C132.5945692 69.19280005 135.87885304 73.96664782 139.3125 78.8125 C139.88025146 79.60986572 140.44800293 80.40723145 141.03295898 81.22875977 C142.17677499 82.83746809 143.31865261 84.44755656 144.45849609 86.05908203 C145.8773344 88.05236628 147.31695231 90.02735888 148.76953125 91.99609375 C155.72946735 101.53222829 159.15076126 110.71629529 161.0625 122.3125 C161.89652344 121.76980469 162.73054688 121.22710937 163.58984375 120.66796875 C183.68692348 107.80595751 202.30552054 109.55554464 225.05493164 113.51074219 C228.27887006 114.06748558 231.50691892 114.59322263 234.73632812 115.1171875 C236.79718846 115.4669078 238.85774823 115.81840503 240.91796875 116.171875 C242.35851875 116.40339264 242.35851875 116.40339264 243.82817078 116.6395874 C247.75900364 117.34386615 250.41846682 117.82481993 253.63793945 120.26269531 C255.55786452 123.02528158 255.99392397 124.9522746 256.0625 128.3125 C253.6771977 133.10008184 250.10270886 137.04971266 246.6875 141.125 C245.42502886 142.63999834 244.16332851 144.15563927 242.90234375 145.671875 C241.94303955 146.82526367 241.94303955 146.82526367 240.96435547 148.00195312 C239.14074237 150.21744406 237.34784022 152.45363992 235.56640625 154.703125 C224.9937263 168.04348185 213.63776925 180.04833794 196.0390625 183.11328125 C193.01620331 183.41795678 190.09831832 183.44168376 187.0625 183.3125 C187.5265625 184.9521875 187.5265625 184.9521875 188 186.625 C190.55574505 197.01111285 190.18240551 207.69420071 190.0625 218.3125 C190.63097656 218.45945312 191.19945312 218.60640625 191.78515625 218.7578125 C199.04504909 220.86669623 204.28734323 224.1478674 208.375 230.625 C215.68143966 245.35220785 213.80429298 267.05886921 208.79443359 282.28271484 C204.55221486 294.04716 198.55682152 304.33741927 191.0625 314.3125 C195.20257567 320.1776072 199.79270094 325.39017944 204.74707031 330.56713867 C209.4982233 335.58932544 213.67688684 340.37924575 214.375 347.5 C213.63629398 356.5122134 208.66119818 361.09092935 202.01171875 366.84375 C201.03847656 367.6584375 200.06523437 368.473125 199.0625 369.3125 C198.16144531 370.0859375 197.26039063 370.859375 196.33203125 371.65625 C190.95183181 376.1492456 186.06899076 379.93752997 178.6875 379.375 C165.90907223 377.41890124 155.0471704 358.56825277 147.421875 349.17578125 C144.10806247 345.15421737 140.712985 341.20446375 137.31054688 337.2578125 C134.19115191 333.63881053 131.11192108 329.99072506 128.0625 326.3125 C123.9619013 327.81962303 120.34859955 329.82981456 116.5625 332 C96.2125674 343.17860197 73.86588803 346.47729018 51.0625 348.3125 C51.59617188 348.64459473 52.12984375 348.97668945 52.6796875 349.31884766 C55.1429712 350.85467095 57.60273534 352.39604748 60.0625 353.9375 C60.90167969 354.45957031 61.74085938 354.98164063 62.60546875 355.51953125 C81.82912048 367.59019629 81.82912048 367.59019629 85.0625 378.3125 C86.8423078 386.38277353 85.93729967 393.40842997 81.734375 400.578125 C77.34310774 406.81834689 72.40392652 410.18247719 65.0625 412.3125 C55.04191908 413.52337546 46.21264987 411.02361304 36.81640625 407.921875 C35.36857666 407.45946933 33.9202026 406.99876547 32.47132874 406.53964233 C28.63739252 405.31979158 24.81107552 404.07758524 20.98603058 402.83017731 C17.0283952 401.54337192 13.06452748 400.2760728 9.10107422 399.00732422 C4.39463362 397.49943779 -0.31112664 395.9895712 -5.01367188 394.46957397 C-13.46848323 391.73729357 -21.9338061 389.05087756 -30.43359375 386.4609375 C-32.16937055 385.92877073 -33.90513 385.39654739 -35.64086914 384.86425781 C-37.92103833 384.16568888 -40.20181096 383.47048475 -42.48727417 382.78942871 C-68.82764548 374.92506595 -90.42203588 360.4767109 -103.79296875 335.90234375 C-105.47879168 332.59315254 -107.07833731 329.24331649 -108.68261719 325.89404297 C-110.14599885 322.8835765 -111.65262929 319.89678669 -113.1640625 316.91015625 C-119.00117794 305.37054743 -124.75171232 293.7982968 -130.1875 282.0625 C-130.6410083 281.09376953 -131.0945166 280.12503906 -131.56176758 279.12695312 C-137.69453873 265.72400464 -139.16694689 252.47241501 -134.19140625 238.30859375 C-130.41457219 229.28419587 -125.10796912 222.90933159 -117.9375 216.3125 C-118.35 215.66925781 -118.7625 215.02601563 -119.1875 214.36328125 C-120.41299937 212.44570299 -121.63114401 210.52341371 -122.84375 208.59765625 C-124.27566269 206.35094249 -125.72524177 204.13766138 -127.21875 201.93359375 C-127.95862407 200.81008724 -128.69821343 199.68639318 -129.4375 198.5625 C-130.1284375 197.53640625 -130.819375 196.5103125 -131.53125 195.453125 C-133.26924253 191.57160834 -132.94002979 189.39175913 -131.9375 185.3125 C-130.26065598 182.66485155 -129.08611139 182.35772955 -126.0625 181.4375 C-122.2126818 181.28350727 -121.0284915 182.06834739 -117.9375 184.3125 C-115.90112305 186.85620117 -115.90112305 186.85620117 -113.94921875 189.85546875 C-113.24345703 190.92861328 -112.53769531 192.00175781 -111.81054688 193.10742188 C-111.08180095 194.23813285 -110.3532882 195.36899415 -109.625 196.5 C-108.87792074 197.64321104 -108.12988304 198.78579635 -107.38085938 199.92773438 C-105.55688677 202.71664732 -103.74292977 205.51156177 -101.9375 208.3125 C-100.38095703 208.07273438 -100.38095703 208.07273438 -98.79296875 207.828125 C-84.32283868 205.89291004 -70.53094454 208.38565436 -58.5625 217.02734375 C-46.68901248 226.83500489 -42.17571051 240.54104619 -36.9375 254.5 C-31.29871381 269.42964963 -31.29871381 269.42964963 -25.2109375 284.1796875 C-24.94458496 284.80453537 -24.67823242 285.42938324 -24.40380859 286.07316589 C-16.88012679 303.17443994 -3.37937898 316.2749186 13.55859375 323.8828125 C36.96726926 332.44633673 64.32188844 332.74153491 88.0625 325.3125 C87.41925781 325.1172876 86.77601563 324.9220752 86.11328125 324.72094727 C64.81237516 318.17076671 40.08075294 308.87325954 27.0625 289.3125 C23.40020962 281.21559951 23.11464763 273.77109323 26.15234375 265.44921875 C29.50190489 257.58565676 35.27735314 252.62532845 43.0625 249.3125 C50.62014854 247.18085554 58.00576057 248.06947983 65.0625 251.3125 C70.60056344 254.67321664 75.83560119 258.49284317 81.0625 262.3125 C79.60632501 260.22923449 78.14980033 258.14621471 76.69287109 256.06347656 C75.42956925 254.25726001 74.16688306 252.45061271 72.90478516 250.64355469 C69.82578657 246.23968181 66.73645026 241.84477771 63.6015625 237.48046875 C63.06692383 236.73337646 62.53228516 235.98628418 61.98144531 235.21655273 C60.98286817 233.82337656 59.97989742 232.43333456 58.97167969 231.04711914 C52.60357708 222.14232168 48.65401338 214.05920189 50.453125 202.88671875 C52.32374248 195.1764172 56.55548982 189.31165016 63.1875 184.8984375 C70.51315463 181.04136934 77.79240196 180.3623713 85.875 182.25 C99.60107657 186.90779776 106.53445295 200.89291651 114.06396484 212.31005859 C117.30216096 217.17486874 120.65081484 221.96122759 124 226.75 C125.32828909 228.6548335 126.65641306 230.55978216 127.984375 232.46484375 C128.64888672 233.4172998 129.31339844 234.36975586 129.99804688 235.35107422 C132.15257986 238.44171815 134.30336367 241.53494161 136.453125 244.62890625 C137.17250244 245.664104 137.89187988 246.69930176 138.63305664 247.76586914 C140.00487941 249.7401485 141.37647573 251.71458524 142.74780273 253.68920898 C146.15333511 258.58777041 149.58159298 263.46718393 153.0625 268.3125 C156.40231877 263.30277185 156.12476263 259.07835425 156 253.1875 C155.92435441 242.35871933 156.67832147 233.81853785 164.0625 225.3125 C169.68165888 220.3125 169.68165888 220.3125 173.0625 220.3125 C173.52104436 207.35437616 172.11412402 195.09443085 170.0625 182.3125 C168.9072583 182.15168945 167.7520166 181.99087891 166.56176758 181.82519531 C162.26362417 181.22255688 157.96876205 180.5988136 153.67456055 179.96875 C151.81796296 179.6993353 149.96053176 179.43560012 148.10229492 179.17773438 C145.42646041 178.80539454 142.75432033 178.41251808 140.08203125 178.015625 C139.25476028 177.90502747 138.42748932 177.79442993 137.57514954 177.68048096 C131.75302137 176.78658938 128.35037174 175.14247938 124.55200195 170.4440918 C124.13909912 169.80640869 123.72619629 169.16872559 123.30078125 168.51171875 C122.82640625 167.78927979 122.35203125 167.06684082 121.86328125 166.32250977 C121.37214844 165.55608154 120.88101562 164.78965332 120.375 164 C119.31953841 162.37726063 118.2635402 160.75487017 117.20703125 159.1328125 C116.68189941 158.32231445 116.15676758 157.51181641 115.61572266 156.67675781 C114.17641214 154.48589282 112.70084015 152.32815314 111.19921875 150.1796875 C102.33707318 137.45583384 97.56255615 126.06933268 100 110.375 C100.29197266 108.78365234 100.29197266 108.78365234 100.58984375 107.16015625 C101.17166042 104.13593366 101.17166042 104.13593366 101.0625 100.3125 C95.7825 98.3325 90.5025 96.3525 85.0625 94.3125 C84.9078125 96.973125 84.9078125 96.973125 84.75 99.6875 C83.39365975 115.32207076 75.90604846 126.65643318 66.3515625 138.66748047 C63.53439145 142.26257489 60.86583203 145.97136357 58.16796875 149.65625 C51.28090195 158.34494281 43.12236825 164.47036476 32.0625 166.3125 C29.969515 166.41168206 27.87385747 166.46057557 25.77856445 166.47363281 C23.90555412 166.48804413 23.90555412 166.48804413 21.9947052 166.50274658 C20.63839909 166.50759645 19.28209084 166.51187481 17.92578125 166.515625 C17.23676413 166.51845238 16.547747 166.52127975 15.83785057 166.52419281 C12.18885291 166.53915198 8.53989442 166.54840107 4.89086914 166.55273438 C1.14656719 166.55820273 -2.59736814 166.5822051 -6.3415556 166.61070633 C-9.24230448 166.62945757 -12.14296741 166.63454497 -15.04377174 166.63607025 C-16.42269702 166.63907112 -17.80162174 166.64701141 -19.18048668 166.66025543 C-31.21965007 166.76760436 -39.99223976 165.12643661 -49.9375 158.3125 C-51.60110078 157.30740786 -53.26624278 156.30480897 -54.9375 155.3125 C-55.35 156.55128906 -55.7625 157.79007813 -56.1875 159.06640625 C-56.46207031 159.88898926 -56.73664063 160.71157227 -57.01953125 161.55908203 C-57.64388249 163.43180364 -58.26620297 165.30520326 -58.88671875 167.17919922 C-59.89299557 170.20648162 -60.91427481 173.22840832 -61.9375 176.25 C-62.28039062 177.28962891 -62.62328125 178.32925781 -62.9765625 179.40039062 C-63.31429687 180.39103516 -63.65203125 181.38167969 -64 182.40234375 C-64.30035156 183.29816162 -64.60070312 184.19397949 -64.91015625 185.11694336 C-65.9375 187.3125 -65.9375 187.3125 -68.9375 189.3125 C-72.89857524 189.7446173 -75.05102623 189.9656912 -78.3125 187.5625 C-80.01154733 185.20997293 -80.56374191 184.15209067 -80.9375 181.3125 C-78.56723969 168.15346862 -73.39644823 154.94821575 -66.625 143.4609375 C-65.72525002 141.29234309 -65.72525002 141.29234309 -66.51171875 138.953125 C-68.30307507 135.63543493 -70.48470517 132.68785481 -72.75 129.6875 C-82.00288011 117.0278475 -86.61368341 103.85339949 -84.5078125 88.09765625 C-82.00406851 74.11069138 -75.61863485 62.00540314 -64.0625 53.625 C-58.94646206 50.20669489 -53.8517864 47.40785593 -48.08984375 45.2421875 C-38.78307336 41.68890728 -31.13212591 36.65438564 -26.0546875 27.84765625 C-23.97185902 23.12123778 -22.57660225 18.17098765 -21.1484375 13.21484375 C-18.10308953 3.10479185 -18.10308953 3.10479185 -15.20629883 1.13574219 C-10.39632654 -0.60957435 -5.05622859 -0.01376219 0 0 Z M-3.9375 16.3125 C-6.4273619 25.45538583 -8.85813067 34.6131767 -11.26861572 43.77722168 C-11.97390684 46.45049318 -12.68473423 49.12225661 -13.39599609 51.79394531 C-14.67937878 56.62371502 -15.93954962 61.4591391 -17.18734741 66.29821777 C-17.68199719 68.20340726 -18.1833368 70.10687413 -18.69180298 72.00842285 C-22.86161676 87.63536774 -25.54681775 101.76756713 -19.71484375 117.453125 C-18.24243998 121.47504234 -16.80371571 125.50788885 -15.37890625 129.546875 C-12.92766549 136.47944449 -10.43831433 143.39762697 -7.9375 150.3125 C-2.3275 150.3125 3.2825 150.3125 9.0625 150.3125 C10.88222056 145.20959348 12.69857535 140.10572521 14.50683594 134.9987793 C15.12180214 133.26503277 15.73863081 131.53194562 16.35742188 129.79956055 C17.2511113 127.29650943 18.13787657 124.79109299 19.0234375 122.28515625 C19.29747406 121.52227798 19.57151062 120.75939972 19.85385132 119.97340393 C24.40776881 107.01662799 25.13146469 96.06948895 21.9921875 82.66015625 C21.77331375 81.71212128 21.55444 80.7640863 21.32893372 79.787323 C18.36472445 67.11334932 15.04574952 54.52832605 11.75 41.9375 C11.09799461 39.43627941 10.44630015 36.93497773 9.79492188 34.43359375 C8.22101772 28.39229334 6.64333025 22.35199154 5.0625 16.3125 C2.0925 16.3125 -0.8775 16.3125 -3.9375 16.3125 Z M-56.6875 68.6875 C-64.56241351 76.58956838 -68.05426873 84.65782901 -69.3125 95.5625 C-68.21746109 106.51288913 -63.95337803 114.69880505 -57.38427734 123.36816406 C-55.71735648 125.60835268 -54.11902767 127.890898 -52.51953125 130.1796875 C-51.30554604 131.89123428 -50.09070366 133.6021734 -48.875 135.3125 C-48.30990723 136.12605957 -47.74481445 136.93961914 -47.16259766 137.77783203 C-42.88610127 143.69014671 -38.42021388 148.15998407 -31.1875 150.01953125 C-30.445 150.05433594 -29.7025 150.08914062 -28.9375 150.125 C-27.87789062 150.17466919 -27.87789062 150.17466919 -26.796875 150.2253418 C-26.18328125 150.254104 -25.5696875 150.28286621 -24.9375 150.3125 C-27.10518914 141.79532674 -29.9199055 133.67351245 -33.06445312 125.47460938 C-41.31514492 103.43637212 -37.56999431 84.03813293 -31.58007812 62.01367188 C-30.82178484 59.28883278 -30.82178484 59.28883278 -30.9375 56.3125 C-39.22034472 56.3125 -50.65733644 63.4989697 -56.6875 68.6875 Z M32.0625 56.3125 C32.62624753 62.19260082 33.84426295 67.72291524 35.28564453 73.44775391 C41.40484512 97.97795242 37.76939333 115.68322811 29.06079102 138.97241211 C28.67463623 140.00889893 28.28848145 141.04538574 27.890625 142.11328125 C27.5390332 143.04309814 27.18744141 143.97291504 26.82519531 144.9309082 C25.91000587 147.37188862 25.91000587 147.37188862 26.0625 150.3125 C33.88250628 149.77318922 38.14976636 147.51823097 43.5625 141.75 C47.67585185 136.96037173 51.46929998 131.92824033 55.25 126.875 C55.84425781 126.08859131 56.43851563 125.30218262 57.05078125 124.49194336 C64.85841492 113.9019649 70.26549428 103.46944324 68.5859375 90.0703125 C66.60113781 79.61308426 61.18283931 71.95867121 52.7109375 65.52734375 C46.27895403 61.4314064 39.22374325 58.84924134 32.0625 56.3125 Z M126.0625 89.3125 C116.47120641 106.45087852 116.47120641 106.45087852 116.078125 125.53515625 C117.98373543 130.91169997 120.94908377 135.56107756 124.0625 140.3125 C124.61091553 141.15288818 124.61091553 141.15288818 125.17041016 142.01025391 C127.43262639 145.46856201 129.73266901 148.89944888 132.0625 152.3125 C135.30456335 148.50970242 137.16052183 144.14300811 139.1875 139.625 C139.54714844 138.85994141 139.90679687 138.09488281 140.27734375 137.30664062 C144.01036348 129.00871101 145.25125057 121.00775039 142.0625 112.3125 C140.31919897 108.79645028 138.24633181 105.56989618 136.0625 102.3125 C135.68544922 101.74821289 135.30839844 101.18392578 134.91992188 100.60253906 C133.70491025 98.79172318 132.48053284 96.98780119 131.25 95.1875 C130.85288818 94.60645508 130.45577637 94.02541016 130.04663086 93.42675781 C129.07899261 92.03610488 128.07422945 90.67141239 127.0625 89.3125 C126.7325 89.3125 126.4025 89.3125 126.0625 89.3125 Z M164.25 142.6015625 C156.35407674 152.23261549 156.35407674 152.23261549 149.0625 162.3125 C178.26489618 169.25633745 178.26489618 169.25633745 206.390625 161.98046875 C213.78556086 156.72687223 219.38451679 149.29922379 225.0625 142.3125 C226.21105469 140.90871094 226.21105469 140.90871094 227.3828125 139.4765625 C230.75999973 135.80874515 230.75999973 135.80874515 232.0625 131.3125 C228.01199637 130.58726697 223.95930292 129.87590086 219.90429688 129.17626953 C218.53061455 128.9373822 217.15753808 128.69497913 215.78515625 128.44873047 C195.26397678 124.77351923 178.52479653 125.73658112 164.25 142.6015625 Z M70.0625 200.3125 C67.62348833 202.66740782 67.05704229 204.33178393 66.125 207.625 C66.00595489 214.64866149 71.58471442 220.64255021 75.5625 226.1875 C76.63550151 227.69525212 77.70841573 229.20306637 78.78125 230.7109375 C79.32652344 231.4750293 79.87179687 232.23912109 80.43359375 233.02636719 C82.98907343 236.61292471 85.52531274 240.21299109 88.0625 243.8125 C91.15337347 248.19344616 94.24623189 252.57296755 97.34375 256.94921875 C97.88257813 257.71105469 98.42140625 258.47289062 98.9765625 259.2578125 C100.00194807 260.70749554 101.02794782 262.15674444 102.0546875 263.60546875 C103.39673441 265.50361245 104.73092273 267.4070026 106.0625 269.3125 C106.46275391 269.87646484 106.86300781 270.44042969 107.27539062 271.02148438 C109.80643305 274.66744424 110.84260179 276.82691469 110.0625 281.3125 C107.87262494 284.19557292 106.66007435 285.19952962 103.06640625 285.87890625 C86.27683869 285.85984885 73.38670383 278.03664496 60.625 267.8125 C57.17870393 265.17450365 54.50149982 264.2302963 50.0625 264.3125 C45.92562977 265.82404874 43.18487359 267.40286444 41.0625 271.3125 C40.01049444 274.76908971 39.88249473 276.72105411 40.9375 280.1875 C51.39495798 295.56611468 72.45572254 304.80496213 90.15625 308.6171875 C100.57271 310.47131738 109.40613656 309.09203068 119.43359375 306.28515625 C128.19578898 303.93662384 128.19578898 303.93662384 131.68359375 305.44921875 C134.26975102 307.47482962 136.10784505 309.53262552 138.125 312.125 C141.68217238 316.60549833 145.32036103 320.98535576 149.0625 325.3125 C153.37734655 330.31848089 157.60286466 335.38508471 161.76953125 340.515625 C165.29026941 344.81008585 168.88863134 349.03786933 172.484375 353.26953125 C175.02697714 356.27057226 177.54847372 359.28752953 180.0625 362.3125 C183.71234816 360.75432816 186.2310954 358.50125601 189.125 355.8125 C191.72170335 353.40713269 194.11356306 351.27845796 197.0625 349.3125 C196.57979127 345.0586293 193.90716702 342.68283311 191.0625 339.75 C185.78206636 334.15040502 180.81885427 328.36872748 176.0625 322.3125 C175.32966797 321.41724609 175.32966797 321.41724609 174.58203125 320.50390625 C172.70058193 318.03169468 172.04659902 316.65702124 172.19140625 313.51953125 C173.26405909 309.57043715 175.00617512 307.44709344 177.625 304.3125 C189.44570737 289.54883384 196.42805158 274.37024603 196.5625 255.25 C196.57216797 253.94760376 196.57216797 253.94760376 196.58203125 252.61889648 C196.45682899 246.38346284 195.6563879 240.18430446 191.3125 235.375 C188.13498136 233.87450509 185.57873648 233.43374953 182.0625 233.3125 C177.91278814 234.82874087 175.23568684 236.42363935 173.0625 240.3125 C171.95857233 244.21304444 172.05322852 247.84210547 172.17944336 251.84765625 C172.60502647 266.71508564 169.22225961 278.43832282 159.59375 290.08984375 C157.30865748 291.91442018 154.92781454 291.72679727 152.09765625 291.80859375 C146.88554767 290.53807976 144.12722042 284.70094909 141.3125 280.5 C140.33933755 279.06586586 139.36532665 277.63230722 138.390625 276.19921875 C137.86146484 275.41981934 137.33230469 274.64041992 136.78710938 273.83740234 C133.57838638 269.1396938 130.31679163 264.47869839 127.0625 259.8125 C122.50032506 253.26389803 117.94890492 246.70868595 113.4375 240.125 C107.55727507 231.55074148 101.60765392 223.02537148 95.62060547 214.52539062 C94.65427584 213.15296634 93.68946206 211.77947174 92.72705078 210.40429688 C91.63691995 208.84837069 90.53767059 207.29884351 89.4375 205.75 C88.86773437 204.94433594 88.29796875 204.13867188 87.7109375 203.30859375 C85.19124497 200.25749687 82.97628759 198.59060927 79.1875 197.4375 C75.25842383 197.28033695 73.34730322 198.19562681 70.0625 200.3125 Z M-95.9375 225.3125 C-95.74522172 227.43703863 -95.74522172 227.43703863 -95.0390625 229.8203125 C-94.80703125 230.72523438 -94.575 231.63015625 -94.3359375 232.5625 C-94.08070312 233.51125 -93.82546875 234.46 -93.5625 235.4375 C-89.35923321 251.15596642 -89.35923321 251.15596642 -91.9375 256.3125 C-95.09554822 257.89152411 -98.51042904 258.18999599 -101.9375 257.3125 C-104.47118523 254.47324064 -105.49293858 252.01271818 -106.32421875 248.328125 C-106.54013672 247.39355469 -106.75605469 246.45898438 -106.97851562 245.49609375 C-107.19185547 244.52800781 -107.40519531 243.55992187 -107.625 242.5625 C-107.84994141 241.57894531 -108.07488281 240.59539062 -108.30664062 239.58203125 C-108.85907901 237.16070556 -109.40234405 234.73769335 -109.9375 232.3125 C-113.61806523 234.98029225 -115.75575764 237.19813966 -117.6875 241.3125 C-118.09484375 242.158125 -118.5021875 243.00375 -118.921875 243.875 C-122.10511275 251.51477061 -121.94143734 259.3772554 -119.125 267.125 C-115.7936206 275.07338972 -111.81276472 282.72318509 -107.91015625 290.40234375 C-104.92061141 296.30392307 -102.07910937 302.27029156 -99.25 308.25 C-85.57019572 336.93825714 -71.1443759 355.56147532 -40.32540894 366.48968506 C-32.19700774 369.29053305 -23.96516916 371.78103497 -15.75 374.3125 C-12.58782471 375.29105503 -9.42597047 376.27064304 -6.26411438 377.25022888 C-4.09755162 377.92123994 -1.93079212 378.59161608 0.23616028 379.2613678 C7.8218361 381.60839128 15.39362565 383.99685461 22.9609375 386.40234375 C26.02955861 387.3733575 29.09850903 388.34332123 32.16763306 389.31274414 C34.12701906 389.93371747 36.0853514 390.55802606 38.04257202 391.18579102 C40.7664611 392.05880348 43.49400058 392.91936637 46.22265625 393.77734375 C47.01848114 394.03595688 47.81430603 394.29457001 48.63424683 394.5610199 C54.14143741 396.27405223 59.2385777 397.40356089 64.8125 395.25 C67.94365939 392.55372386 68.93945556 390.27618625 70.0625 386.3125 C69.74108027 382.64831502 69.24145461 380.37550062 66.4465332 377.85546875 C61.59321608 374.34118551 56.65082418 371.03879885 51.5625 367.875 C50.75208252 367.36694824 49.94166504 366.85889648 49.10668945 366.33544922 C46.42766818 364.65730038 43.74535768 362.98450787 41.0625 361.3125 C39.1288058 360.10562969 37.19521442 358.89859461 35.26171875 357.69140625 C34.2759082 357.07595947 33.29009766 356.4605127 32.27441406 355.82641602 C27.20179078 352.6582786 22.13168403 349.48613667 17.0625 346.3125 C16.06621582 345.68988281 15.06993164 345.06726563 14.04345703 344.42578125 C-22.02995437 321.84809749 -37.59814286 299.76620422 -51.95800781 260.18725586 C-59.05432697 239.92087891 -59.05432697 239.92087891 -74.9375 226.3125 C-80.76832791 223.61740731 -90.83315112 220.20815112 -95.9375 225.3125 Z " fill="#6B9F5C" transform="translate(202.9375,45.6875)"/>
<path d="M0 0 C1.51427582 0.00081573 1.51427582 0.00081573 3.05914307 0.00164795 C19.56873539 0.04241399 35.48532001 0.94970691 51.6875 4.375 C52.72938477 4.59462402 53.77126953 4.81424805 54.84472656 5.04052734 C90.7618261 12.87486844 124.29975462 28.05197547 153.80419922 49.98779297 C155.57978522 51.29565914 157.38054607 52.55809991 159.19140625 53.81640625 C166.25709423 59.00512986 166.25709423 59.00512986 167.45703125 62.82421875 C167.60509646 66.22971862 167.4970804 68.38017663 165.3046875 71.07421875 C162.76508994 73.11693853 160.92969662 73.31265007 157.6875 73.375 C153.28267418 71.42671166 149.90572658 68.7849101 146.1875 65.75 C100.55208418 28.63686063 36.87445734 11.51503692 -21.3125 17.375 C-52.92911525 20.89675064 -83.27283678 29.11855485 -111.3125 44.375 C-111.96089844 44.71998535 -112.60929688 45.0649707 -113.27734375 45.42041016 C-132.93974089 55.89839811 -150.17097552 69.04784081 -166.3125 84.375 C-166.84665527 84.88047363 -167.38081055 85.38594727 -167.93115234 85.90673828 C-176.22777201 93.81379899 -183.49651383 102.1679322 -190.3125 111.375 C-190.74159668 111.94863281 -191.17069336 112.52226563 -191.61279297 113.11328125 C-213.56538 142.57180773 -228.03775638 176.40429585 -235.3125 212.375 C-235.47766113 213.15133789 -235.64282227 213.92767578 -235.81298828 214.72753906 C-246.25131769 265.82893659 -235.82728892 322.87564436 -211.3125 368.375 C-210.96606445 369.02774902 -210.61962891 369.68049805 -210.26269531 370.35302734 C-199.78503389 390.00942693 -186.63574821 407.23759429 -171.3125 423.375 C-170.80702637 423.90915527 -170.30155273 424.44331055 -169.78076172 424.99365234 C-161.87220643 433.29184023 -153.4972587 440.52843024 -144.3125 447.375 C-143.36503906 448.09429687 -142.41757813 448.81359375 -141.44140625 449.5546875 C-134.66507057 454.60989293 -127.5874558 459.07734641 -120.3125 463.375 C-119.70809082 463.7373877 -119.10368164 464.09977539 -118.48095703 464.47314453 C-65.57480367 496.06320706 0.33884062 503.96753864 59.77734375 488.9987793 C78.27231963 484.07952256 95.8403287 477.45215818 112.6875 468.375 C113.34024902 468.02856445 113.99299805 467.68212891 114.66552734 467.32519531 C134.32192693 456.84753389 151.55009429 443.69824821 167.6875 428.375 C168.48873291 427.61678955 168.48873291 427.61678955 169.30615234 426.84326172 C177.60277201 418.93620101 184.87151383 410.5820678 191.6875 401.375 C192.11659668 400.80136719 192.54569336 400.22773438 192.98779297 399.63671875 C212.79157114 373.06171313 226.94090732 342.67696549 234.4375 310.375 C234.6238501 309.58351563 234.8102002 308.79203125 235.00219727 307.9765625 C238.74331788 290.96628573 240.24354018 274.07517203 240.125 256.6875 C240.12195862 255.73210327 240.11891724 254.77670654 240.11578369 253.7923584 C240.04328326 238.32366715 239.06532337 223.51775918 235.6875 208.375 C235.46787598 207.35615723 235.24825195 206.33731445 235.02197266 205.28759766 C232.00867615 191.56035803 228.01585226 178.37663156 222.6875 165.375 C222.23552246 164.25883301 222.23552246 164.25883301 221.77441406 163.12011719 C212.09450862 139.48885597 198.17220437 118.24258549 181.57421875 98.9140625 C176.89334544 93.2669969 176.89334544 93.2669969 175.9375 89.125 C176.98302416 85.2914114 178.50877014 83.72449598 181.6875 81.375 C184.5625 80.6875 184.5625 80.6875 187.6875 81.375 C195.19517359 86.38011572 200.34135906 94.2213454 205.6875 101.375 C206.34419678 102.25067627 206.34419678 102.25067627 207.01416016 103.14404297 C213.51594613 111.87148775 219.32239874 120.90931477 224.6875 130.375 C225.08437012 131.06625977 225.48124023 131.75751953 225.89013672 132.46972656 C240.76677188 158.61153289 250.10477889 187.70498065 254.6875 217.375 C254.86627686 218.49817627 255.04505371 219.62135254 255.22924805 220.77856445 C256.90906419 232.49537555 257.04482288 244.11540541 257 255.9375 C256.99784485 256.95790375 256.9956897 257.9783075 256.99346924 259.02963257 C256.94383352 273.65710524 256.69669712 288.00763838 253.6875 302.375 C253.38948486 303.83728027 253.38948486 303.83728027 253.08544922 305.32910156 C244.03420074 348.59881524 225.64979329 388.80019334 196.6875 422.375 C196.05328125 423.12007813 195.4190625 423.86515625 194.765625 424.6328125 C182.95448485 438.13779833 170.20389772 450.80918743 155.6875 461.375 C154.53755169 462.23149066 153.38781411 463.08826433 152.23828125 463.9453125 C144.04660474 469.9859414 135.53104922 475.34505071 126.6875 480.375 C126.05569824 480.73948242 125.42389648 481.10396484 124.77294922 481.47949219 C98.68572731 496.41095085 69.35257053 505.88380201 39.6875 510.375 C38.56939941 510.55232666 37.45129883 510.72965332 36.29931641 510.91235352 C25.53795702 512.45666151 14.8980899 512.71479671 4.03564453 512.69067383 C1.08718385 512.68752635 -1.86025697 512.71102578 -4.80859375 512.73632812 C-18.19855903 512.78094438 -31.11016733 511.57925057 -44.3125 509.375 C-45.44945312 509.18687744 -46.58640625 508.99875488 -47.7578125 508.80493164 C-91.02524735 501.03363308 -132.07563234 481.04578041 -165.3125 452.375 C-166.05757813 451.74078125 -166.80265625 451.1065625 -167.5703125 450.453125 C-181.07529833 438.64198485 -193.74668743 425.89139772 -204.3125 411.375 C-205.16899066 410.22505169 -206.02576433 409.07531411 -206.8828125 407.92578125 C-212.9234414 399.73410474 -218.28255071 391.21854922 -223.3125 382.375 C-223.67698242 381.74319824 -224.04146484 381.11139648 -224.41699219 380.46044922 C-246.02284998 342.71217428 -255.78948095 299.94560003 -255.625 256.75 C-255.62284485 255.73209381 -255.6206897 254.71418762 -255.61846924 253.66543579 C-255.56879854 239.05636477 -255.31790191 224.72424147 -252.3125 210.375 C-252.11382324 209.40014648 -251.91514648 208.42529297 -251.71044922 207.42089844 C-242.65920074 164.15118476 -224.27479329 123.94980666 -195.3125 90.375 C-194.67828125 89.62992187 -194.0440625 88.88484375 -193.390625 88.1171875 C-181.57948485 74.61220167 -168.82889772 61.94081257 -154.3125 51.375 C-153.16255169 50.51850934 -152.01281411 49.66173567 -150.86328125 48.8046875 C-142.67160474 42.7640586 -134.15604922 37.40494929 -125.3125 32.375 C-124.68069824 32.01051758 -124.04889648 31.64603516 -123.39794922 31.27050781 C-85.78163763 9.74018145 -43.05984712 -0.08759735 0 0 Z " fill="#6B9F5C" transform="translate(255.3125,-0.375)"/>
<path d="M0 0 C3.02706748 2.15081111 3.87395791 3.25950274 4.5 6.9375 C3.86162709 10.84753406 3.02791041 12.42627616 0 15 C-2.80141726 15.66017005 -5.19243175 15.60984064 -8 15 C-10.5 13.4375 -10.5 13.4375 -12 11 C-12.46918683 7.24650538 -12.53136381 4.96151547 -10.6875 1.625 C-7.30165512 -1.63544322 -4.27527223 -1.1342559 0 0 Z " fill="#6B9F5C" transform="translate(194,235)"/>
<path d="M0 0 C2.375 1.125 2.375 1.125 4 3 C5.17407634 6.60050078 5.32759676 8.27928713 3.75 11.75 C2 14 2 14 -1 16 C-4.3675602 15.81959499 -6.99113606 15.63894716 -9.875 13.8125 C-11.52261692 11.15800608 -11.87533099 9.11672513 -12 6 C-9.15980013 -0.08614258 -6.530177 -0.45035703 0 0 Z " fill="#6AA05B" transform="translate(201,266)"/>
<path d="M0 0 C2.4375 1.5 2.4375 1.5 4 4 C4.61014545 6.8089715 4.65360928 9.19636021 4 12 C1.9375 14.5625 1.9375 14.5625 -1 16 C-4.49672962 15.93971156 -6.8982551 15.69777177 -9.875 13.8125 C-11.52261692 11.15800608 -11.87533099 9.11672513 -12 6 C-9.1840965 -0.03407893 -6.51096853 -0.56129039 0 0 Z " fill="#6C9E5C" transform="translate(225,242)"/>
</svg>
