<?xml version="1.0" encoding="UTF-8"?>
<svg version="1.1" xmlns="http://www.w3.org/2000/svg" width="512" height="512">
<path d="M0 0 C1.08283768 -0.01710022 2.16567535 -0.03420044 3.28132629 -0.05181885 C5.55619651 -0.08000103 7.8311861 -0.09970361 10.10620117 -0.11132812 C13.58400804 -0.14064166 17.05662782 -0.23390488 20.53320312 -0.328125 C22.75127073 -0.34770139 24.96937604 -0.36345821 27.1875 -0.375 C28.22198776 -0.41204041 29.25647552 -0.44908081 30.3223114 -0.48724365 C37.31927478 -0.42240222 37.31927478 -0.42240222 40.34243774 2.47851562 C47.78993479 13.26673376 49.25696003 25.85080925 50.81640625 38.54296875 C52.13983707 48.50292658 54.46348928 57.89659797 59.51953125 66.671875 C60.01710937 67.54972656 60.5146875 68.42757812 61.02734375 69.33203125 C62.10138584 71.12107851 63.23704637 72.87314769 64.39453125 74.609375 C66.4079049 75.04599126 66.4079049 75.04599126 68.75244141 74.94995117 C69.65322418 74.94972458 70.55400696 74.94949799 71.48208618 74.94926453 C72.94308243 74.92603874 72.94308243 74.92603874 74.43359375 74.90234375 C75.42958588 74.89809891 76.425578 74.89385406 77.45175171 74.88948059 C80.6412835 74.8726518 83.83018958 74.83499176 87.01953125 74.796875 C89.17837631 74.7818336 91.33723125 74.76814425 93.49609375 74.75585938 C98.79578737 74.72273467 104.09511462 74.67249396 109.39453125 74.609375 C108.56743652 74.20380371 107.7403418 73.79823242 106.88818359 73.38037109 C105.8048877 72.84492676 104.7215918 72.30948242 103.60546875 71.7578125 C102.53087402 71.22849121 101.4562793 70.69916992 100.34912109 70.15380859 C90.19267855 64.84479723 84.44130105 55.32785848 80.33984375 44.9375 C79.16025277 40.78455984 78.8562925 36.7742347 78.51953125 32.484375 C77.48229894 21.43679251 75.18825488 12.35075275 68.56640625 3.25390625 C67.39453125 1.609375 67.39453125 1.609375 67.39453125 0.609375 C130.75453125 0.609375 194.11453125 0.609375 259.39453125 0.609375 C255.75072793 17.6137905 250.82007828 30.04677147 240.39453125 43.609375 C239.85441406 44.33382812 239.31429688 45.05828125 238.7578125 45.8046875 C226.58601276 60.95045342 209.3401218 68.62751148 191.39453125 74.609375 C277.52453125 75.104375 277.52453125 75.104375 365.39453125 75.609375 C365.39453125 85.839375 365.39453125 96.069375 365.39453125 106.609375 C353.51453125 106.609375 341.63453125 106.609375 329.39453125 106.609375 C328.73453125 108.589375 328.07453125 110.569375 327.39453125 112.609375 C318.48453125 130.429375 309.57453125 148.249375 300.39453125 166.609375 C174.33453125 166.609375 48.27453125 166.609375 -81.60546875 166.609375 C-110.60546875 108.609375 -110.60546875 108.609375 -110.60546875 106.609375 C-122.48546875 106.609375 -134.36546875 106.609375 -146.60546875 106.609375 C-146.60546875 96.379375 -146.60546875 86.149375 -146.60546875 75.609375 C-104.03546875 75.279375 -61.46546875 74.949375 -17.60546875 74.609375 C-20.90546875 72.629375 -24.20546875 70.649375 -27.60546875 68.609375 C-35.63754571 61.74136717 -40.99955903 53.31734127 -41.84375 42.578125 C-42.08850295 31.1391451 -40.20497398 21.53662368 -32.65234375 12.64453125 C-23.09959439 3.14647321 -13.18640611 0.16347665 0 0 Z " fill="#BC9B56" transform="translate(146.60546875,300.390625)"/>
<path d="M0 0 C10.56 0 21.12 0 32 0 C32 20.79 32 41.58 32 63 C33.98 63.66 35.96 64.32 38 65 C49.97792991 71.88644674 57.31974276 81.76809248 61 95 C63.71880402 106.55491708 61.55402714 118.94046993 55.9375 129.3125 C51.01833634 137.06328307 45.03367353 142.58058719 36.81762695 146.62719727 C35.91583206 147.07289566 35.01403717 147.51859406 34.08491516 147.97779846 C33.39689316 148.31512497 32.70887115 148.65245148 32 149 C33.02238014 149.01213028 33.02238014 149.01213028 34.06541443 149.02450562 C41.18759167 149.1108566 48.30950033 149.21037236 55.43139648 149.31738281 C58.08600769 149.35660555 60.74053087 149.39043285 63.39526367 149.421875 C67.2207208 149.46776614 71.04583849 149.52572142 74.87109375 149.5859375 C76.04957382 149.59748871 77.22805389 149.60903992 78.44224548 149.62094116 C92.0185398 149.86169173 101.89190675 152.46427344 111.95703125 161.87109375 C119.07197425 169.2853269 122.04340863 178.35525257 122.375 188.5625 C121.99495963 199.71035093 117.45114133 210.05537465 109.375 217.8125 C98.15066357 226.90808297 85.34329773 227.15026947 71.59838867 227.14526367 C70.25546679 227.14826061 68.91254577 227.15166436 67.56962585 227.15544128 C63.94137289 227.16423104 60.31314355 227.16661727 56.68488097 227.16725707 C54.41264781 227.16797042 52.14042055 227.17011012 49.86818886 227.17275429 C41.92571256 227.18199103 33.98325298 227.18609126 26.04077148 227.18530273 C18.66198922 227.18470237 11.28328015 227.19525046 3.9045164 227.2110464 C-2.45160634 227.22416349 -8.80770527 227.22948489 -15.16384143 227.22884732 C-18.95073857 227.22859357 -22.73757058 227.23137686 -26.52445412 227.24202538 C-30.08926445 227.2517769 -33.65394831 227.25173775 -37.21876335 227.24450874 C-39.13337703 227.24298122 -41.04799088 227.25126004 -42.96258545 227.25994873 C-56.97482935 227.20948636 -69.47895217 225.08073611 -80.109375 215.29296875 C-87.79843808 205.96759679 -91.05126582 194.92435796 -90 183 C-87.73405378 171.50646557 -82.75400111 163.01005891 -73.109375 156.28125 C-65.71262487 151.78840918 -58.84227207 149.93189119 -50.17822266 149.79467773 C-49.05751373 149.77473251 -47.93680481 149.75478729 -46.78213501 149.73423767 C-44.99118912 149.70916893 -44.99118912 149.70916893 -43.1640625 149.68359375 C-41.31232925 149.6524221 -41.31232925 149.6524221 -39.42318726 149.62062073 C-35.49051329 149.55538164 -31.55777411 149.49635948 -27.625 149.4375 C-24.95441143 149.39479388 -22.28384851 149.35067536 -19.61328125 149.30664062 C-13.07558921 149.19972653 -6.53783271 149.09791299 0 149 C-1.0314212 148.49523384 -1.0314212 148.49523384 -2.0836792 147.98027039 C-2.98515686 147.53520645 -3.88663452 147.09014252 -4.81542969 146.6315918 C-5.70929382 146.19195602 -6.60315796 145.75232025 -7.52410889 145.29936218 C-15.9914062 140.85567487 -21.95819581 133.52380487 -26 125 C-26.33902344 124.28972656 -26.67804688 123.57945312 -27.02734375 122.84765625 C-31.00890705 112.40752023 -30.64934946 98.22527901 -26.9375 87.8125 C-21.84170058 76.66454665 -13.45092619 67.747945 -2 63 C-1.34 63 -0.68 63 0 63 C0 42.21 0 21.42 0 0 Z " fill="#BC9A56" transform="translate(240,45)"/>
</svg>
