<?xml version="1.0" encoding="UTF-8"?>
<svg version="1.1" xmlns="http://www.w3.org/2000/svg" width="512" height="512">
<path d="M0 0 C30.03 0 60.06 0 91 0 C91.33 17.49 91.66 34.98 92 53 C95.96 54.32 99.92 55.64 104 57 C112.28246454 60.9571775 118.51052153 65.54212614 125 72 C125.7734375 72.73863281 126.546875 73.47726563 127.34375 74.23828125 C148.1670188 95.45376915 146 122.71244197 146 151 C113 151 80 151 46 151 C46 207.1 46 263.2 46 321 C79 321 112 321 146 321 C146 354.33 146 387.66 146 422 C91.88 422 37.76 422 -18 422 C-18 402.2 -18 382.4 -18 362 C-30.21 362 -42.42 362 -55 362 C-55.27640486 355.85511051 -55.5146886 349.73186269 -55.65917969 343.58569336 C-55.71938648 341.49868649 -55.80118135 339.41218302 -55.90527344 337.3269043 C-56.75055147 319.95312583 -56.75055147 319.95312583 -52.51049805 315.22241211 C-49.39975116 313.44605202 -46.36583501 312.20836533 -43 311 C-20.79205817 296.34465246 -7.67168097 272.10147308 -1.54296875 246.84375 C1.84718771 229.08811042 -0.54771814 212.10732375 -3.5625 194.5 C-3.92516734 192.315733 -4.28647505 190.13123986 -4.64648438 187.9465332 C-5.56636288 182.38544949 -6.50278233 176.82731359 -7.44561768 171.27008057 C-8.66168707 164.09697147 -9.86416736 156.92157253 -11.06616211 149.74609375 C-11.67571879 146.1081197 -12.2929621 142.47158098 -12.91625977 138.8359375 C-13.19423768 137.19662552 -13.47215468 135.55730321 -13.75 133.91796875 C-13.877733 133.18382248 -14.005466 132.44967621 -14.1370697 131.69328308 C-14.75505803 128.02127412 -15 124.75660056 -15 121 C-28.2 121 -41.4 121 -55 121 C-55 102.60293459 -49.2130982 87.77888002 -37 74 C-36.48050781 73.38640625 -35.96101563 72.7728125 -35.42578125 72.140625 C-26.5971644 62.44471329 -14.44761222 56.49869327 -2 53 C-1.34 53 -0.68 53 0 53 C0 35.51 0 18.02 0 0 Z " fill="#D36F6F" transform="translate(272,90)"/>
<path d="M0 0 C41.91 0 83.82 0 127 0 C128.815 10.704375 130.63 21.40875 132.5 32.4375 C133.36141602 37.45215454 133.36141602 37.45215454 134.24023438 42.56811523 C134.69250024 45.27309205 135.14373812 47.97824103 135.59375 50.68359375 C135.77121765 51.69789207 135.77121765 51.69789207 135.95227051 52.73268127 C139.89642053 75.34839618 138.9451119 97.85645576 125.875 117.625 C114.40548296 133.69098736 99.19791566 144.20052108 80 149 C79.67 179.36 79.34 209.72 79 241 C92.2 241 105.4 241 119 241 C119 250.9 119 260.8 119 271 C82.37 271 45.74 271 8 271 C8 261.1 8 251.2 8 241 C21.2 241 34.4 241 48 241 C48 210.64 48 180.28 48 149 C44.04 148.01 40.08 147.02 36 146 C26.95062179 142.40391912 19.2224101 137.49234699 12 131 C11.38898438 130.48179687 10.77796875 129.96359375 10.1484375 129.4296875 C-3.70987848 116.83697116 -11.11741321 97.0838264 -12.12670898 78.69091797 C-12.24625869 72.17836721 -11.44748815 65.92280785 -10.4375 59.5 C-10.26694092 58.38375244 -10.09638184 57.26750488 -9.9206543 56.11743164 C-8.12913533 44.54518751 -6.22087226 32.99094182 -4.3125 21.4375 C-4.1564328 20.48842773 -4.0003656 19.53935547 -3.83956909 18.56152344 C-3.39279278 15.8515909 -2.94134095 13.14248204 -2.48828125 10.43359375 C-2.35300018 9.61084457 -2.21771912 8.7880954 -2.07833862 7.94041443 C-1.11497824 2.22995649 -1.11497824 2.22995649 0 0 Z " fill="#D46F6F" transform="translate(106,241)"/>
<path d="M0 0 C23.43 0 46.86 0 71 0 C71 36.3 71 72.6 71 110 C47.57 110 24.14 110 0 110 C0 73.7 0 37.4 0 0 Z " fill="#D47070" transform="translate(347,271)"/>
<path d="M0 0 C30.03 0 60.06 0 91 0 C91 19.8 91 39.6 91 60 C60.97 60 30.94 60 0 60 C0 40.2 0 20.4 0 0 Z " fill="#D47070" transform="translate(272,0)"/>
</svg>
